<svg xmlns="http://www.w3.org/2000/svg" width="44.544" height="62.913" viewBox="0 0 44.544 62.913"><g transform="translate(-196.351 -665.039)"><g transform="translate(-3015.951 2320.432) rotate(-90)"><path d="M51.7,0H3.034A3.157,3.157,0,0,0,0,3.275V41.269a3.157,3.157,0,0,0,3.034,3.275h26.7a5.251,5.251,0,0,0,4.81-2.587l.39-.819,1.777-3.832A3.093,3.093,0,0,1,38.05,35.93a4.66,4.66,0,0,1,2.254-.557H51.788a3.027,3.027,0,0,0,2.99-2.686V3.275A3.22,3.22,0,0,0,51.7,0ZM7.8,40.941a.949.949,0,0,1-.91.983h-1.6a.956.956,0,0,1-.91-.983v-1.37a.949.949,0,0,1,.91-.983h1.6a.956.956,0,0,1,.91.983Zm0-36.165a.949.949,0,0,1-.91.983h-1.6a.956.956,0,0,1-.91-.983V3.406a.949.949,0,0,1,.91-.983h1.6a.956.956,0,0,1,.91.983ZM14,40.941a.949.949,0,0,1-.91.983h-1.6a.956.956,0,0,1-.91-.983v-1.37a.949.949,0,0,1,.91-.983h1.6a.956.956,0,0,1,.91.983ZM14,4.776a.949.949,0,0,1-.91.983h-1.6a.956.956,0,0,1-.91-.983V3.406a.949.949,0,0,1,.91-.983h1.6a.956.956,0,0,1,.91.983Zm5.937,36.165a.949.949,0,0,1-.91.983h-1.6a.956.956,0,0,1-.91-.983v-1.37a.949.949,0,0,1,.91-.983h1.647a.956.956,0,0,1,.91.983v1.37Zm0-36.165a.949.949,0,0,1-.91.983h-1.6a.956.956,0,0,1-.91-.983V3.406a.949.949,0,0,1,.91-.983h1.647a.956.956,0,0,1,.91.983v1.37Zm6.2,36.165a.949.949,0,0,1-.91.983h-1.6a.956.956,0,0,1-.91-.983v-1.37a.949.949,0,0,1,.91-.983h1.6a.956.956,0,0,1,.91.983Zm0-36.165a.949.949,0,0,1-.91.983h-1.6a.956.956,0,0,1-.91-.983V3.406a.949.949,0,0,1,.91-.983h1.6a.956.956,0,0,1,.91.983Zm5.981,36.165a.949.949,0,0,1-.91.983H29.6a.956.956,0,0,1-.91-.983v-1.37a.949.949,0,0,1,.91-.983h1.6a.956.956,0,0,1,.91.983Zm0-36.165a.949.949,0,0,1-.91.983H29.6a.956.956,0,0,1-.91-.983V3.406a.949.949,0,0,1,.91-.983h1.6a.956.956,0,0,1,.91.983Zm6.2,0a.949.949,0,0,1-.91.983H35.8a.956.956,0,0,1-.91-.983V3.406a.949.949,0,0,1,.91-.983h1.6a.956.956,0,0,1,.91.983Zm5.981,0a.949.949,0,0,1-.91.983h-1.6a.956.956,0,0,1-.91-.983V3.406a.949.949,0,0,1,.91-.983h1.6a.956.956,0,0,1,.91.983Zm6.2,0a.949.949,0,0,1-.91.983h-1.6a.956.956,0,0,1-.91-.983V3.406a.949.949,0,0,1,.91-.983h1.6a.956.956,0,0,1,.91.983Z" transform="translate(1655.392 3256.845) rotate(180)"/><path d="M116.4,19.863v4.572a1.187,1.187,0,0,0,1.06,1.253h0a1.145,1.145,0,0,0,1.06-1.253h0a.418.418,0,0,1,.374-.438h.748a.418.418,0,0,1,.374.438v3.758a1.563,1.563,0,0,0,1.434,1.691h0a1.563,1.563,0,0,0,1.434-1.691l-.062-8.393Z" transform="translate(1622.363 3126.759) rotate(90)"/></g><text transform="translate(219 706)" fill="#fff" font-size="38" font-family="Montserrat-Black, Montserrat" font-weight="800"><tspan x="-11.514" y="0">?</tspan></text></g></svg>