<svg xmlns="http://www.w3.org/2000/svg" width="424.298" height="27.441" viewBox="0 0 424.298 27.441"><g transform="translate(-1038.966 -4329.226)"><g transform="translate(1038.966 4329.226)"><path d="M24.825,18.794a1.837,1.837,0,0,0-.064.181c-.043.151-.092.294-.142.438a8.632,8.632,0,0,1-.419,1,11.525,11.525,0,0,1-.916,1.509c-.249.347-.518.671-.8.988a11.87,11.87,0,0,1-1.2,1.154,13.093,13.093,0,0,1-1.6,1.169,12.321,12.321,0,0,1-1.96.981,13.345,13.345,0,0,1-1.6.521,11.077,11.077,0,0,1-2.109.332,8.035,8.035,0,0,1-.951.045c-.5-.023-1-.053-1.5-.121a12.431,12.431,0,0,1-2.144-.483,12.129,12.129,0,0,1-1.626-.664A11.788,11.788,0,0,1,5.633,24.5a10.744,10.744,0,0,1-.937-.8,9.247,9.247,0,0,1-.8-.807c-.277-.324-.554-.649-.809-.988-.227-.3-.44-.611-.639-.936a13.158,13.158,0,0,1-.667-1.207,14.7,14.7,0,0,1-.611-1.426A13.807,13.807,0,0,1,.6,16.319c-.057-.272-.114-.543-.149-.822-.036-.264-.064-.536-.092-.8A16.34,16.34,0,0,1,.3,12.834a6.092,6.092,0,0,1,.057-.717c.014-.106.021-.211.028-.309.021-.264.057-.521.1-.777.071-.407.22-1.071.334-1.471a14.422,14.422,0,0,1,.547-1.622A15.278,15.278,0,0,1,2.338,6c.213-.355.44-.687.682-1.019.192-.264.525-.679.738-.928.142-.166.284-.34.44-.49.227-.226.462-.445.7-.664.327-.294.66-.566,1.008-.822A11.612,11.612,0,0,1,7,1.358c.185-.106.369-.211.561-.309a13.08,13.08,0,0,1,2.23-.89A11.431,11.431,0,0,1,11.512-.2a10.838,10.838,0,0,1,1.1-.1c.263-.015.533-.03.8-.023A13.242,13.242,0,0,1,16.333.1,13.273,13.273,0,0,1,18.5.92a14.2,14.2,0,0,1,2.62,1.66,11.605,11.605,0,0,1,2.343,2.445,9.31,9.31,0,0,1,.966,1.788c.007.023.021.045.028.075A10.165,10.165,0,0,0,16.3,2.769,10.367,10.367,0,0,0,6.051,13.249a10.436,10.436,0,0,0,7.981,10.223,9.477,9.477,0,0,0,1.96.294,9.249,9.249,0,0,0,2.94-.355,8.051,8.051,0,0,0,.817-.279c.234-.091.469-.2.7-.309a10.142,10.142,0,0,0,2.258-1.5,6.589,6.589,0,0,0,.611-.581,9.889,9.889,0,0,0,1.314-1.781c.043-.075.085-.143.128-.219.007-.015.021-.038.05-.015C24.818,18.756,24.833,18.779,24.825,18.794Z" transform="translate(-0.3 0.327)" fill="#fff"/><path d="M122.346,70.2a8.356,8.356,0,1,0,7.846,8.345A8.105,8.105,0,0,0,122.346,70.2Zm-6.178,9.71h0a4.511,4.511,0,0,1-.27-1.524h0v-.038a4.4,4.4,0,0,1,.092-.875v-.008a4.323,4.323,0,0,1,.362-1.049,3.963,3.963,0,0,1,3.522-2.263,4.24,4.24,0,0,1,0,8.465A4.011,4.011,0,0,1,116.169,79.91Zm3.721,3.327a4.86,4.86,0,0,0,0-9.7,4.229,4.229,0,0,0-1.235.181A4.865,4.865,0,0,1,121,73.1a5.427,5.427,0,0,1,0,10.834,4.928,4.928,0,0,1-3.3-1.29A4.44,4.44,0,0,0,119.889,83.238Zm2.457,2a5.909,5.909,0,0,1-1.832-.287q.245.023.49.023a6.463,6.463,0,0,0,0-12.9c-.114,0-.22,0-.327.008a5.859,5.859,0,0,1,1.676-.241,6.712,6.712,0,0,1-.007,13.4Z" transform="translate(-106.391 -64.879)" fill="#fff"/></g><g transform="translate(1330.293 4330.033)"><path d="M2.67,4.288V9.272H9.165l-.024.23a7.1,7.1,0,0,0-.024,1.891l.048.486H2.67V22.308H9.886l.457,2.863H0V1.4l10.343.077L9.766,4.365Z" transform="translate(0 -1.017)" fill="#fff"/><path d="M85.4,20.7a13.373,13.373,0,0,0,1.155-2.377,27.642,27.642,0,0,1-.457-5.112,30.573,30.573,0,0,1,.313-4.243A11.854,11.854,0,0,0,75.511,1.3C68.992,1.3,63.7,6.923,63.7,13.85S68.992,26.4,75.511,26.4a11.406,11.406,0,0,0,8.419-3.757c1.419,1.176,2.742,1.738,3.1,1.278C87.417,23.46,86.359,21.824,85.4,20.7Zm-2.021-1.738c-.818-.46-1.3-.281-1.588.077-.313.383-.361.869.265,1.712a8.915,8.915,0,0,1-6.543,2.888c-5.1,0-9.237-4.4-9.237-9.815s4.137-9.815,9.237-9.815,9.237,4.4,9.237,9.815A10.762,10.762,0,0,1,83.376,18.961Z" transform="translate(-48.378 -0.942)" fill="#fff"/><path d="M191.808,1V16.719a9.756,9.756,0,0,1-19.508,0V1h3.151V16.336a6.619,6.619,0,1,0,13.23,0V1Z" transform="translate(-130.855 -0.719)" fill="#fff"/><rect width="3.175" height="24.971" transform="translate(63.262 0.281)" fill="#fff"/><path d="M334.093,9.791V25.153h-3.151V9.817a6.768,6.768,0,0,0-6.254-6.85q-.722-1.534-1.588-2.99A9.5,9.5,0,0,1,324.3-.1a9.843,9.843,0,0,1,9.766,9.534A1.92,1.92,0,0,1,334.093,9.791Z" transform="translate(-245.381 0.1)" fill="#fff"/><path d="M293,1.957A9.071,9.071,0,0,0,291.675,3V.5H288.5V25.471h.048V25.6H291.7V10.264a6.927,6.927,0,0,1,2.862-5.649" transform="translate(-219.104 -0.347)" fill="#fff"/><path d="M394.011.5a11.239,11.239,0,0,0-6.374,1.994c.241,1.073.433,2.2.6,3.3a8.637,8.637,0,0,1,5.773-2.275,9.2,9.2,0,0,1,8.9,9.457,9.2,9.2,0,0,1-8.9,9.457,8.507,8.507,0,0,1-5.749-2.249c-.168,1.15-.385,2.3-.625,3.425a11.3,11.3,0,0,0,6.374,1.994c6.519,0,11.811-5.623,11.811-12.55S400.529.5,394.011.5Zm-7.818,8a40.314,40.314,0,0,0-.6-4.217,12.946,12.946,0,0,0-3.392,8.792,12.814,12.814,0,0,0,3.368,8.767c.265-1.431.481-2.863.625-4.345a9.952,9.952,0,0,1-1.082-4.5,9.651,9.651,0,0,1,1.082-4.5Z" transform="translate(-290.265 -0.347)" fill="#fff"/><path d="M462.129,52.3l1.924,2.863-7.192,9.125H452.7l.746-.946a13.153,13.153,0,0,0,6.254-7.975Z" transform="translate(-343.807 -38.907)" fill="#fff"/><path d="M479.1,25.355h-3.9l-5.725-8.486h0L465.873,11.5h0l-2.141-3.169a13.309,13.309,0,0,0-4.258-6.339L458.2,0h3.873l5.893,8.767.746,1.1.144.23,1.924,2.863h0Z" transform="translate(-347.984 0.026)" fill="#fff"/><path d="M506.324,12.371,504.4,9.508,511.881,0h4.161Z" transform="translate(-383.071 0.026)" fill="#fff"/></g><text transform="translate(1068.893 4350.292)" fill="#fff" font-size="20" font-family="Montserrat-Medium, Montserrat" font-weight="500" letter-spacing="0.006em"><tspan x="0" y="0" xml:space="preserve"> Розроблено командою</tspan></text></g></svg>