<svg xmlns="http://www.w3.org/2000/svg" width="424.298" height="356" viewBox="0 0 424.298 356"><g transform="translate(-1216.669 -3990)"><path d="M343.477,263c-4.444,0-8.072,3.356-8.072,8.979s3.628,8.979,8.072,8.979,8.072-3.447,8.072-8.979S347.922,263,343.477,263Zm-174.055.454h-5.079v17.052h5.079c5.079,0,8.617-3.084,8.617-8.526C178.039,266.447,174.593,263.454,169.423,263.454Zm-41.9-.454c-4.444,0-8.072,3.356-8.072,8.979s3.628,8.979,8.072,8.979,8.072-3.447,8.072-8.979S131.963,263,127.519,263Zm-40.634.363H82.441V271.8h4.444c3.356,0,4.9-1.633,4.9-4.263C91.874,264.9,90.241,263.363,86.885,263.363Zm-37.641,0H44.8V271.8h4.444c3.356,0,4.9-1.633,4.9-4.263S52.6,263.363,49.244,263.363Z" transform="translate(1212.503 3965.543)" fill="#fff"/><path d="M399.173,0H379.129a9.716,9.716,0,0,0-9.7,9.7v9.8a4.4,4.4,0,0,1-8.8,0V8.526a2.283,2.283,0,0,0-.816-1.814,2.631,2.631,0,0,0-4.444,1.814V9.8a3.77,3.77,0,0,1-1.179,2.721,3.9,3.9,0,0,1-2.812,1.088,3.8,3.8,0,0,1-3.9-3.809V9.7a9.716,9.716,0,0,0-9.7-9.7H33.287C15.873,0,.907,13.514,0,30.929V322.35a33.575,33.575,0,0,0,25.94,32.743,35.864,35.864,0,0,0,7.71.907H240.085a33.673,33.673,0,0,0,33.65-33.741,33.67,33.67,0,0,1,17.052-29.3,33.068,33.068,0,0,1,16.6-4.354h83.263a33.414,33.414,0,0,0,19.863-6.531,33.791,33.791,0,0,0,13.786-27.21V32.562A33.486,33.486,0,0,0,399.173,0ZM369.605,35.373a4.951,4.951,0,0,1,4.989-4.989H394a4.986,4.986,0,0,1,4.989,4.989v19.41a4.917,4.917,0,0,1-.544,2.268A4.984,4.984,0,0,1,394,59.772h-19.41a4.951,4.951,0,0,1-4.989-4.989Zm-58.683,0a5.033,5.033,0,0,1,4.989-4.989h19.41a5.033,5.033,0,0,1,4.988,4.989v19.41a5.033,5.033,0,0,1-4.988,4.989H315.91a5.033,5.033,0,0,1-4.989-4.989Zm-56.053,0a5.033,5.033,0,0,1,4.989-4.989h19.41a5.033,5.033,0,0,1,4.989,4.989v19.41a5.033,5.033,0,0,1-4.989,4.989h-19.41a5.033,5.033,0,0,1-4.989-4.989Zm-57.413,0a5.014,5.014,0,0,1,4.9-4.989h19.5a5.353,5.353,0,0,1,1.27.181,4.955,4.955,0,0,1,3.719,4.807v19.41a4.881,4.881,0,0,1-3.809,4.807,4.6,4.6,0,0,1-1.179.181h-19.41a5.033,5.033,0,0,1-4.989-4.989Zm-57.323,0a5.033,5.033,0,0,1,4.989-4.989h19.41a5.033,5.033,0,0,1,4.989,4.989v19.41a5.033,5.033,0,0,1-4.989,4.989h-19.41a5.033,5.033,0,0,1-4.989-4.989Zm-.091,57.958h97.322v30.475H179.769v14.059H230.38v29.024H179.769v15.782h59.862v30.475H140.042ZM85.44,35.373a5.033,5.033,0,0,1,4.989-4.989h19.319a5.033,5.033,0,0,1,4.989,4.989v19.41a5.033,5.033,0,0,1-4.989,4.989H90.429a5.033,5.033,0,0,1-4.989-4.989Zm-57.413,0a5.033,5.033,0,0,1,4.989-4.989h19.41a4.935,4.935,0,0,1,4.989,4.989v19.41a4.691,4.691,0,0,1-2.358,4.172,5.012,5.012,0,0,1-2.63.816H33.015a5.033,5.033,0,0,1-4.989-4.989ZM49.795,172.331c6.349,7.891,12.335,11.791,18.956,11.791,8.344,0,12.97-5.079,12.97-14.875V123.716H41.087V93.24H121.63V166.8c0,32.834-17.233,48.888-49.432,48.888-18.594,0-34.194-6.168-44.081-17.777Zm8.889,151.561a5.033,5.033,0,0,1-4.989,4.989H34.376a5.033,5.033,0,0,1-4.989-4.989v-19.41a5.033,5.033,0,0,1,4.989-4.989h19.41a7,7,0,0,1,1.361.181,4.979,4.979,0,0,1,3.628,4.807v19.41ZM45.8,256.683h-5.17v8.889H28.48v-36.1H45.8c10.068,0,16.417,5.261,16.417,13.514C62.221,251.422,55.872,256.683,45.8,256.683Zm35.827-.272H78.365v9.07H66.211V229.473H83.535c9.977,0,16.417,5.261,16.417,13.514a12.127,12.127,0,0,1-6.8,11.338l7.528,11.065H87.708Zm37.1,67.481a5.033,5.033,0,0,1-4.989,4.989H94.329a5.033,5.033,0,0,1-4.989-4.989v-19.41a5.033,5.033,0,0,1,4.989-4.989h19.41a5.033,5.033,0,0,1,4.989,4.989Zm4.626-57.595c-11.7,0-20.317-7.891-20.317-18.866,0-10.884,8.617-18.775,20.317-18.775s20.317,7.891,20.317,18.775C143.67,258.406,135.053,266.3,123.353,266.3Zm52.788,57.595a2.49,2.49,0,0,1-.181,1.179,5.037,5.037,0,0,1-4.807,3.809h-19.41a5.092,5.092,0,0,1-2.812-.816,4.957,4.957,0,0,1-2.177-4.172v-19.41a5.033,5.033,0,0,1,4.989-4.989h19.41a5.149,5.149,0,0,1,3.9,1.814,4.653,4.653,0,0,1,1.088,3.175ZM165.8,265.481H148.023V229.473H165.8c12.063,0,20.317,6.8,20.317,17.959C186.118,258.678,177.864,265.481,165.8,265.481Zm24.4-16.145V229.473h12.154v19.41c0,5.533,2.086,7.528,5.442,7.528s5.533-2.086,5.533-7.528v-19.41H225.21v19.773c0,10.793-6.44,17.052-17.505,17.052S190.2,260.129,190.2,249.336Zm43.355,74.556a5.016,5.016,0,0,1-4.444,4.989H209.156a5.033,5.033,0,0,1-4.989-4.989v-19.41a5.033,5.033,0,0,1,4.989-4.989h19.41a5.033,5.033,0,0,1,4.989,4.989ZM250.062,256.5c3.265,0,5.8-1.542,7.891-4.172l7.71,6.8c-3.537,4.626-9.07,7.165-16.145,7.165-11.61,0-20.045-7.8-20.045-18.866s8.435-18.775,20.045-18.775c7.075,0,12.607,2.54,16.145,7.165l-7.71,6.8a9.534,9.534,0,0,0-7.891-4.172c-5.079,0-8.435,3.447-8.435,8.979S244.982,256.5,250.062,256.5Zm49.25-17.6H288.791v26.575H276.637V238.905H266.116v-9.433h33.2Zm15.238,26.575H302.4V229.473H314.55Zm24.761.816c-11.7,0-20.317-7.891-20.317-18.866,0-10.884,8.617-18.775,20.317-18.775s20.317,7.891,20.317,18.775C359.537,258.406,351.011,266.3,339.311,266.3Zm22.4-107.843-26.031,43.808H317.906l-26.031-41.9v52.7H255.141V93.331h33.2l39,63.853,38-63.853h33.2l.363,119.725H362.168Zm37.731,107.027h-9.977l-13.7-16.326v16.326H363.982V229.473h9.977l13.7,16.326V229.473h11.791Z" transform="translate(1216.669 3990)" fill="#fff"/><g transform="translate(1603.417 4309.538)"><path d="M451.615,378.694c-.091-.181-.091-.363-.181-.544v-2.268c0-2-.544-3.447-1.723-4.354a6.317,6.317,0,0,0-2.721-1.088,6.522,6.522,0,0,0,3.356-1.27,4.19,4.19,0,0,0,1.361-3.447,4.943,4.943,0,0,0-2.54-4.626,9.02,9.02,0,0,0-3.809-1h-9.342v19.138H441v-6.8h1.088l1.088.091c.725.091,1.36.181,1.723.272a2.04,2.04,0,0,1,1.361,1.361,9.06,9.06,0,0,1,.363,2.358c.091,1.179.181,2,.272,2.63h4.807Zm-5.8-10.431a4.628,4.628,0,0,1-2.721.726h-1.9v-5.533h1.179a8.054,8.054,0,0,1,2.9.363A2.229,2.229,0,0,1,446.808,366,2.694,2.694,0,0,1,445.81,368.263Zm5.8,10.431c-.091-.181-.091-.363-.181-.544v-2.268c0-2-.544-3.447-1.723-4.354a6.317,6.317,0,0,0-2.721-1.088,6.522,6.522,0,0,0,3.356-1.27,4.19,4.19,0,0,0,1.361-3.447,4.943,4.943,0,0,0-2.54-4.626,9.02,9.02,0,0,0-3.809-1h-9.342v19.138H441v-6.8h1.088l1.088.091c.725.091,1.36.181,1.723.272a2.04,2.04,0,0,1,1.361,1.361,9.06,9.06,0,0,1,.363,2.358c.091,1.179.181,2,.272,2.63h4.807Zm-5.8-10.431a4.628,4.628,0,0,1-2.721.726h-1.9v-5.533h1.179a8.054,8.054,0,0,1,2.9.363A2.229,2.229,0,0,1,446.808,366,2.694,2.694,0,0,1,445.81,368.263Zm5.8,10.431c-.091-.181-.091-.363-.181-.544v-2.268c0-2-.544-3.447-1.723-4.354a6.317,6.317,0,0,0-2.721-1.088,6.522,6.522,0,0,0,3.356-1.27,4.19,4.19,0,0,0,1.361-3.447,4.943,4.943,0,0,0-2.54-4.626,9.02,9.02,0,0,0-3.809-1h-9.342v19.138H441v-6.8h1.088l1.088.091c.725.091,1.36.181,1.723.272a2.04,2.04,0,0,1,1.361,1.361,9.06,9.06,0,0,1,.363,2.358c.091,1.179.181,2,.272,2.63h4.807Zm-5.8-10.431a4.628,4.628,0,0,1-2.721.726h-1.9v-5.533h1.179a8.054,8.054,0,0,1,2.9.363A2.229,2.229,0,0,1,446.808,366,2.694,2.694,0,0,1,445.81,368.263Zm5.8,10.431c-.091-.181-.091-.363-.181-.544v-2.268c0-2-.544-3.447-1.723-4.354a6.317,6.317,0,0,0-2.721-1.088,6.522,6.522,0,0,0,3.356-1.27,4.19,4.19,0,0,0,1.361-3.447,4.943,4.943,0,0,0-2.54-4.626,9.02,9.02,0,0,0-3.809-1h-9.342v19.138H441v-6.8h1.088l1.088.091c.725.091,1.36.181,1.723.272a2.04,2.04,0,0,1,1.361,1.361,9.06,9.06,0,0,1,.363,2.358c.091,1.179.181,2,.272,2.63h4.807Zm-5.8-10.431a4.628,4.628,0,0,1-2.721.726h-1.9v-5.533h1.179a8.054,8.054,0,0,1,2.9.363A2.229,2.229,0,0,1,446.808,366,2.694,2.694,0,0,1,445.81,368.263Zm5.8,10.431c-.091-.181-.091-.363-.181-.544v-2.268c0-2-.544-3.447-1.723-4.354a6.317,6.317,0,0,0-2.721-1.088,6.522,6.522,0,0,0,3.356-1.27,4.19,4.19,0,0,0,1.361-3.447,4.943,4.943,0,0,0-2.54-4.626,9.02,9.02,0,0,0-3.809-1h-9.342v19.138H441v-6.8h1.088l1.088.091c.725.091,1.36.181,1.723.272a2.04,2.04,0,0,1,1.361,1.361,9.06,9.06,0,0,1,.363,2.358c.091,1.179.181,2,.272,2.63h4.807Zm-5.8-10.431a4.628,4.628,0,0,1-2.721.726h-1.9v-5.533h1.179a8.054,8.054,0,0,1,2.9.363A2.229,2.229,0,0,1,446.808,366,2.694,2.694,0,0,1,445.81,368.263Zm5.8,10.431c-.091-.181-.091-.363-.181-.544v-2.268c0-2-.544-3.447-1.723-4.354a6.317,6.317,0,0,0-2.721-1.088,6.522,6.522,0,0,0,3.356-1.27,4.19,4.19,0,0,0,1.361-3.447,4.943,4.943,0,0,0-2.54-4.626,9.02,9.02,0,0,0-3.809-1h-9.342v19.138H441v-6.8h1.088l1.088.091c.725.091,1.36.181,1.723.272a2.04,2.04,0,0,1,1.361,1.361,9.06,9.06,0,0,1,.363,2.358c.091,1.179.181,2,.272,2.63h4.807Zm-5.8-10.431a4.628,4.628,0,0,1-2.721.726h-1.9v-5.533h1.179a8.054,8.054,0,0,1,2.9.363A2.229,2.229,0,0,1,446.808,366,2.694,2.694,0,0,1,445.81,368.263Zm5.8,10.431c-.091-.181-.091-.363-.181-.544v-2.268c0-2-.544-3.447-1.723-4.354a6.317,6.317,0,0,0-2.721-1.088,6.522,6.522,0,0,0,3.356-1.27,4.19,4.19,0,0,0,1.361-3.447,4.943,4.943,0,0,0-2.54-4.626,9.02,9.02,0,0,0-3.809-1h-9.342v19.138H441v-6.8h1.088l1.088.091c.725.091,1.36.181,1.723.272a2.04,2.04,0,0,1,1.361,1.361,9.06,9.06,0,0,1,.363,2.358c.091,1.179.181,2,.272,2.63h4.807Zm-5.8-10.431a4.628,4.628,0,0,1-2.721.726h-1.9v-5.533h1.179a8.054,8.054,0,0,1,2.9.363A2.229,2.229,0,0,1,446.808,366,2.694,2.694,0,0,1,445.81,368.263Zm5.8,10.431c-.091-.181-.091-.363-.181-.544v-2.268c0-2-.544-3.447-1.723-4.354a6.317,6.317,0,0,0-2.721-1.088,6.522,6.522,0,0,0,3.356-1.27,4.19,4.19,0,0,0,1.361-3.447,4.943,4.943,0,0,0-2.54-4.626,9.02,9.02,0,0,0-3.809-1h-9.342v19.138H441v-6.8h1.088l1.088.091c.725.091,1.36.181,1.723.272a2.04,2.04,0,0,1,1.361,1.361,9.06,9.06,0,0,1,.363,2.358c.091,1.179.181,2,.272,2.63h4.807Zm-5.8-10.431a4.628,4.628,0,0,1-2.721.726h-1.9v-5.533h1.179a8.054,8.054,0,0,1,2.9.363A2.229,2.229,0,0,1,446.808,366,2.694,2.694,0,0,1,445.81,368.263Zm5.8,10.431c-.091-.181-.091-.363-.181-.544v-2.268c0-2-.544-3.447-1.723-4.354a6.317,6.317,0,0,0-2.721-1.088,6.522,6.522,0,0,0,3.356-1.27,4.19,4.19,0,0,0,1.361-3.447,4.943,4.943,0,0,0-2.54-4.626,9.02,9.02,0,0,0-3.809-1h-9.342v19.138H441v-6.8h1.088l1.088.091c.725.091,1.36.181,1.723.272a2.04,2.04,0,0,1,1.361,1.361,9.06,9.06,0,0,1,.363,2.358c.091,1.179.181,2,.272,2.63h4.807Zm-5.8-10.431a4.628,4.628,0,0,1-2.721.726h-1.9v-5.533h1.179a8.054,8.054,0,0,1,2.9.363A2.229,2.229,0,0,1,446.808,366,2.694,2.694,0,0,1,445.81,368.263Zm5.8,10.431c-.091-.181-.091-.363-.181-.544v-2.268c0-2-.544-3.447-1.723-4.354a6.317,6.317,0,0,0-2.721-1.088,6.522,6.522,0,0,0,3.356-1.27,4.19,4.19,0,0,0,1.361-3.447,4.943,4.943,0,0,0-2.54-4.626,9.02,9.02,0,0,0-3.809-1h-9.342v19.138H441v-6.8h1.088l1.088.091c.725.091,1.36.181,1.723.272a2.04,2.04,0,0,1,1.361,1.361,9.06,9.06,0,0,1,.363,2.358c.091,1.179.181,2,.272,2.63h4.807Zm-5.8-10.431a4.628,4.628,0,0,1-2.721.726h-1.9v-5.533h1.179a8.054,8.054,0,0,1,2.9.363A2.229,2.229,0,0,1,446.808,366,2.694,2.694,0,0,1,445.81,368.263Zm5.8,10.431c-.091-.181-.091-.363-.181-.544v-2.268c0-2-.544-3.447-1.723-4.354a6.317,6.317,0,0,0-2.721-1.088,6.522,6.522,0,0,0,3.356-1.27,4.19,4.19,0,0,0,1.361-3.447,4.943,4.943,0,0,0-2.54-4.626,9.02,9.02,0,0,0-3.809-1h-9.342v19.138H441v-6.8h1.088l1.088.091c.725.091,1.36.181,1.723.272a2.04,2.04,0,0,1,1.361,1.361,9.06,9.06,0,0,1,.363,2.358c.091,1.179.181,2,.272,2.63h4.807Zm-5.8-10.431a4.628,4.628,0,0,1-2.721.726h-1.9v-5.533h1.179a8.054,8.054,0,0,1,2.9.363A2.229,2.229,0,0,1,446.808,366,2.694,2.694,0,0,1,445.81,368.263Zm5.8,10.431c-.091-.181-.091-.363-.181-.544v-2.268c0-2-.544-3.447-1.723-4.354a6.317,6.317,0,0,0-2.721-1.088,6.522,6.522,0,0,0,3.356-1.27,4.19,4.19,0,0,0,1.361-3.447,4.943,4.943,0,0,0-2.54-4.626,9.02,9.02,0,0,0-3.809-1h-9.342v19.138H441v-6.8h1.088l1.088.091c.725.091,1.36.181,1.723.272a2.04,2.04,0,0,1,1.361,1.361,9.06,9.06,0,0,1,.363,2.358c.091,1.179.181,2,.272,2.63h4.807Zm-5.8-10.431a4.628,4.628,0,0,1-2.721.726h-1.9v-5.533h1.179a8.054,8.054,0,0,1,2.9.363A2.229,2.229,0,0,1,446.808,366,2.694,2.694,0,0,1,445.81,368.263Zm5.8,10.431c-.091-.181-.091-.363-.181-.544v-2.268c0-2-.544-3.447-1.723-4.354a6.317,6.317,0,0,0-2.721-1.088,6.522,6.522,0,0,0,3.356-1.27,4.19,4.19,0,0,0,1.361-3.447,4.943,4.943,0,0,0-2.54-4.626,9.02,9.02,0,0,0-3.809-1h-9.342v19.138H441v-6.8h1.088l1.088.091c.725.091,1.36.181,1.723.272a2.04,2.04,0,0,1,1.361,1.361,9.06,9.06,0,0,1,.363,2.358c.091,1.179.181,2,.272,2.63h4.807Zm-5.8-10.431a4.628,4.628,0,0,1-2.721.726h-1.9v-5.533h1.179a8.054,8.054,0,0,1,2.9.363A2.229,2.229,0,0,1,446.808,366,2.694,2.694,0,0,1,445.81,368.263Zm5.8,10.431c-.091-.181-.091-.363-.181-.544v-2.268c0-2-.544-3.447-1.723-4.354a6.317,6.317,0,0,0-2.721-1.088,6.522,6.522,0,0,0,3.356-1.27,4.19,4.19,0,0,0,1.361-3.447,4.943,4.943,0,0,0-2.54-4.626,9.02,9.02,0,0,0-3.809-1h-9.342v19.138H441v-6.8h1.088l1.088.091c.725.091,1.36.181,1.723.272a2.04,2.04,0,0,1,1.361,1.361,9.06,9.06,0,0,1,.363,2.358c.091,1.179.181,2,.272,2.63h4.807Zm-5.8-10.431a4.628,4.628,0,0,1-2.721.726h-1.9v-5.533h1.179a8.054,8.054,0,0,1,2.9.363A2.229,2.229,0,0,1,446.808,366,2.694,2.694,0,0,1,445.81,368.263Zm5.8,10.431c-.091-.181-.091-.363-.181-.544v-2.268c0-2-.544-3.447-1.723-4.354a6.317,6.317,0,0,0-2.721-1.088,6.522,6.522,0,0,0,3.356-1.27,4.19,4.19,0,0,0,1.361-3.447,4.943,4.943,0,0,0-2.54-4.626,9.02,9.02,0,0,0-3.809-1h-9.342v19.138H441v-6.8h1.088l1.088.091c.725.091,1.36.181,1.723.272a2.04,2.04,0,0,1,1.361,1.361,9.06,9.06,0,0,1,.363,2.358c.091,1.179.181,2,.272,2.63h4.807Zm-5.8-10.431a4.628,4.628,0,0,1-2.721.726h-1.9v-5.533h1.179a8.054,8.054,0,0,1,2.9.363A2.229,2.229,0,0,1,446.808,366,2.694,2.694,0,0,1,445.81,368.263Zm5.8,10.431c-.091-.181-.091-.363-.181-.544v-2.268c0-2-.544-3.447-1.723-4.354a6.317,6.317,0,0,0-2.721-1.088,6.522,6.522,0,0,0,3.356-1.27,4.19,4.19,0,0,0,1.361-3.447,4.943,4.943,0,0,0-2.54-4.626,9.02,9.02,0,0,0-3.809-1h-9.342v19.138H441v-6.8h1.088l1.088.091c.725.091,1.36.181,1.723.272a2.04,2.04,0,0,1,1.361,1.361,9.06,9.06,0,0,1,.363,2.358c.091,1.179.181,2,.272,2.63h4.807Zm-5.8-10.431a4.628,4.628,0,0,1-2.721.726h-1.9v-5.533h1.179a8.054,8.054,0,0,1,2.9.363A2.229,2.229,0,0,1,446.808,366,2.694,2.694,0,0,1,445.81,368.263Zm5.8,10.431c-.091-.181-.091-.363-.181-.544v-2.268c0-2-.544-3.447-1.723-4.354a6.317,6.317,0,0,0-2.721-1.088,6.522,6.522,0,0,0,3.356-1.27,4.19,4.19,0,0,0,1.361-3.447,4.943,4.943,0,0,0-2.54-4.626,9.02,9.02,0,0,0-3.809-1h-9.342v19.138H441v-6.8h1.088l1.088.091c.725.091,1.36.181,1.723.272a2.04,2.04,0,0,1,1.361,1.361,9.06,9.06,0,0,1,.363,2.358c.091,1.179.181,2,.272,2.63h4.807Zm-5.8-10.431a4.628,4.628,0,0,1-2.721.726h-1.9v-5.533h1.179a8.054,8.054,0,0,1,2.9.363A2.229,2.229,0,0,1,446.808,366,2.694,2.694,0,0,1,445.81,368.263Zm5.8,10.431c-.091-.181-.091-.363-.181-.544v-2.268c0-2-.544-3.447-1.723-4.354a6.317,6.317,0,0,0-2.721-1.088,6.522,6.522,0,0,0,3.356-1.27,4.19,4.19,0,0,0,1.361-3.447,4.943,4.943,0,0,0-2.54-4.626,9.02,9.02,0,0,0-3.809-1h-9.342v19.138H441v-6.8h1.088l1.088.091c.725.091,1.36.181,1.723.272a2.04,2.04,0,0,1,1.361,1.361,9.06,9.06,0,0,1,.363,2.358c.091,1.179.181,2,.272,2.63h4.807Zm-5.8-10.431a4.628,4.628,0,0,1-2.721.726h-1.9v-5.533h1.179a8.054,8.054,0,0,1,2.9.363A2.229,2.229,0,0,1,446.808,366,2.694,2.694,0,0,1,445.81,368.263Zm5.8,10.431c-.091-.181-.091-.363-.181-.544v-2.268c0-2-.544-3.447-1.723-4.354a6.317,6.317,0,0,0-2.721-1.088,6.522,6.522,0,0,0,3.356-1.27,4.19,4.19,0,0,0,1.361-3.447,4.943,4.943,0,0,0-2.54-4.626,9.02,9.02,0,0,0-3.809-1h-9.342v19.138H441v-6.8h1.088l1.088.091c.725.091,1.36.181,1.723.272a2.04,2.04,0,0,1,1.361,1.361,9.06,9.06,0,0,1,.363,2.358c.091,1.179.181,2,.272,2.63h4.807Zm-5.8-10.431a4.628,4.628,0,0,1-2.721.726h-1.9v-5.533h1.179a8.054,8.054,0,0,1,2.9.363A2.229,2.229,0,0,1,446.808,366,2.694,2.694,0,0,1,445.81,368.263Zm5.8,10.431c-.091-.181-.091-.363-.181-.544v-2.268c0-2-.544-3.447-1.723-4.354a6.317,6.317,0,0,0-2.721-1.088,6.522,6.522,0,0,0,3.356-1.27,4.19,4.19,0,0,0,1.361-3.447,4.943,4.943,0,0,0-2.54-4.626,9.02,9.02,0,0,0-3.809-1h-9.342v19.138H441v-6.8h1.088l1.088.091c.725.091,1.36.181,1.723.272a2.04,2.04,0,0,1,1.361,1.361,9.06,9.06,0,0,1,.363,2.358c.091,1.179.181,2,.272,2.63h4.807Zm-5.8-10.431a4.628,4.628,0,0,1-2.721.726h-1.9v-5.533h1.179a8.054,8.054,0,0,1,2.9.363A2.229,2.229,0,0,1,446.808,366,2.694,2.694,0,0,1,445.81,368.263Zm5.8,10.431c-.091-.181-.091-.363-.181-.544v-2.268c0-2-.544-3.447-1.723-4.354a6.317,6.317,0,0,0-2.721-1.088,6.522,6.522,0,0,0,3.356-1.27,4.19,4.19,0,0,0,1.361-3.447,4.943,4.943,0,0,0-2.54-4.626,9.02,9.02,0,0,0-3.809-1h-9.342v19.138H441v-6.8h1.088l1.088.091c.725.091,1.36.181,1.723.272a2.04,2.04,0,0,1,1.361,1.361,9.06,9.06,0,0,1,.363,2.358c.091,1.179.181,2,.272,2.63h4.807Zm-5.8-10.431a4.628,4.628,0,0,1-2.721.726h-1.9v-5.533h1.179a8.054,8.054,0,0,1,2.9.363A2.229,2.229,0,0,1,446.808,366,2.694,2.694,0,0,1,445.81,368.263Zm5.8,10.431c-.091-.181-.091-.363-.181-.544v-2.268c0-2-.544-3.447-1.723-4.354a6.317,6.317,0,0,0-2.721-1.088,6.522,6.522,0,0,0,3.356-1.27,4.19,4.19,0,0,0,1.361-3.447,4.943,4.943,0,0,0-2.54-4.626,9.02,9.02,0,0,0-3.809-1h-9.342v19.138H441v-6.8h1.088l1.088.091c.725.091,1.36.181,1.723.272a2.04,2.04,0,0,1,1.361,1.361,9.06,9.06,0,0,1,.363,2.358c.091,1.179.181,2,.272,2.63h4.807Zm-5.8-10.431a4.628,4.628,0,0,1-2.721.726h-1.9v-5.533h1.179a8.054,8.054,0,0,1,2.9.363A2.229,2.229,0,0,1,446.808,366,2.694,2.694,0,0,1,445.81,368.263Zm5.8,10.431c-.091-.181-.091-.363-.181-.544v-2.268c0-2-.544-3.447-1.723-4.354a6.317,6.317,0,0,0-2.721-1.088,6.522,6.522,0,0,0,3.356-1.27,4.19,4.19,0,0,0,1.361-3.447,4.943,4.943,0,0,0-2.54-4.626,9.02,9.02,0,0,0-3.809-1h-9.342v19.138H441v-6.8h1.088l1.088.091c.725.091,1.36.181,1.723.272a2.04,2.04,0,0,1,1.361,1.361,9.06,9.06,0,0,1,.363,2.358c.091,1.179.181,2,.272,2.63h4.807Zm-5.8-10.431a4.628,4.628,0,0,1-2.721.726h-1.9v-5.533h1.179a8.054,8.054,0,0,1,2.9.363A2.229,2.229,0,0,1,446.808,366,2.694,2.694,0,0,1,445.81,368.263Zm5.8,10.431c-.091-.181-.091-.363-.181-.544v-2.268c0-2-.544-3.447-1.723-4.354a6.317,6.317,0,0,0-2.721-1.088,6.522,6.522,0,0,0,3.356-1.27,4.19,4.19,0,0,0,1.361-3.447,4.943,4.943,0,0,0-2.54-4.626,9.02,9.02,0,0,0-3.809-1h-9.342v19.138H441v-6.8h1.088l1.088.091c.725.091,1.36.181,1.723.272a2.04,2.04,0,0,1,1.361,1.361,9.06,9.06,0,0,1,.363,2.358c.091,1.179.181,2,.272,2.63h4.807Zm-5.8-10.431a4.628,4.628,0,0,1-2.721.726h-1.9v-5.533h1.179a8.054,8.054,0,0,1,2.9.363A2.229,2.229,0,0,1,446.808,366,2.694,2.694,0,0,1,445.81,368.263Zm5.8,10.431c-.091-.181-.091-.363-.181-.544v-2.268c0-2-.544-3.447-1.723-4.354a6.317,6.317,0,0,0-2.721-1.088,6.522,6.522,0,0,0,3.356-1.27,4.19,4.19,0,0,0,1.361-3.447,4.943,4.943,0,0,0-2.54-4.626,9.02,9.02,0,0,0-3.809-1h-9.342v19.138H441v-6.8h1.088l1.088.091c.725.091,1.36.181,1.723.272a2.04,2.04,0,0,1,1.361,1.361,9.06,9.06,0,0,1,.363,2.358c.091,1.179.181,2,.272,2.63h4.807Zm-5.8-10.431a4.628,4.628,0,0,1-2.721.726h-1.9v-5.533h1.179a8.054,8.054,0,0,1,2.9.363A2.229,2.229,0,0,1,446.808,366,2.694,2.694,0,0,1,445.81,368.263Zm5.8,10.431c-.091-.181-.091-.363-.181-.544v-2.268c0-2-.544-3.447-1.723-4.354a6.317,6.317,0,0,0-2.721-1.088,6.522,6.522,0,0,0,3.356-1.27,4.19,4.19,0,0,0,1.361-3.447,4.943,4.943,0,0,0-2.54-4.626,9.02,9.02,0,0,0-3.809-1h-9.342v19.138H441v-6.8h1.088l1.088.091c.725.091,1.36.181,1.723.272a2.04,2.04,0,0,1,1.361,1.361,9.06,9.06,0,0,1,.363,2.358c.091,1.179.181,2,.272,2.63h4.807Zm-5.8-10.431a4.628,4.628,0,0,1-2.721.726h-1.9v-5.533h1.179a8.054,8.054,0,0,1,2.9.363A2.229,2.229,0,0,1,446.808,366,2.694,2.694,0,0,1,445.81,368.263Zm5.8,10.431c-.091-.181-.091-.363-.181-.544v-2.268c0-2-.544-3.447-1.723-4.354a6.317,6.317,0,0,0-2.721-1.088,6.522,6.522,0,0,0,3.356-1.27,4.19,4.19,0,0,0,1.361-3.447,4.943,4.943,0,0,0-2.54-4.626,9.02,9.02,0,0,0-3.809-1h-9.342v19.138H441v-6.8h1.088l1.088.091c.725.091,1.36.181,1.723.272a2.04,2.04,0,0,1,1.361,1.361,9.06,9.06,0,0,1,.363,2.358c.091,1.179.181,2,.272,2.63h4.807Zm-5.8-10.431a4.628,4.628,0,0,1-2.721.726h-1.9v-5.533h1.179a8.054,8.054,0,0,1,2.9.363A2.229,2.229,0,0,1,446.808,366,2.694,2.694,0,0,1,445.81,368.263Zm5.8,10.431c-.091-.181-.091-.363-.181-.544v-2.268c0-2-.544-3.447-1.723-4.354a6.317,6.317,0,0,0-2.721-1.088,6.522,6.522,0,0,0,3.356-1.27,4.19,4.19,0,0,0,1.361-3.447,4.943,4.943,0,0,0-2.54-4.626,9.02,9.02,0,0,0-3.809-1h-9.342v19.138H441v-6.8h1.088l1.088.091c.725.091,1.36.181,1.723.272a2.04,2.04,0,0,1,1.361,1.361,9.06,9.06,0,0,1,.363,2.358c.091,1.179.181,2,.272,2.63h4.807Zm-5.8-10.431a4.628,4.628,0,0,1-2.721.726h-1.9v-5.533h1.179a8.054,8.054,0,0,1,2.9.363A2.229,2.229,0,0,1,446.808,366,2.694,2.694,0,0,1,445.81,368.263Zm5.8,10.431c-.091-.181-.091-.363-.181-.544v-2.268c0-2-.544-3.447-1.723-4.354a6.317,6.317,0,0,0-2.721-1.088,6.522,6.522,0,0,0,3.356-1.27,4.19,4.19,0,0,0,1.361-3.447,4.943,4.943,0,0,0-2.54-4.626,9.02,9.02,0,0,0-3.809-1h-9.342v19.138H441v-6.8h1.088l1.088.091c.725.091,1.36.181,1.723.272a2.04,2.04,0,0,1,1.361,1.361,9.06,9.06,0,0,1,.363,2.358c.091,1.179.181,2,.272,2.63h4.807Zm-5.8-10.431a4.628,4.628,0,0,1-2.721.726h-1.9v-5.533h1.179a8.054,8.054,0,0,1,2.9.363A2.229,2.229,0,0,1,446.808,366,2.694,2.694,0,0,1,445.81,368.263Zm5.8,10.431c-.091-.181-.091-.363-.181-.544v-2.268c0-2-.544-3.447-1.723-4.354a6.317,6.317,0,0,0-2.721-1.088,6.522,6.522,0,0,0,3.356-1.27,4.19,4.19,0,0,0,1.361-3.447,4.943,4.943,0,0,0-2.54-4.626,9.02,9.02,0,0,0-3.809-1h-9.342v19.138H441v-6.8h1.088l1.088.091c.725.091,1.36.181,1.723.272a2.04,2.04,0,0,1,1.361,1.361,9.06,9.06,0,0,1,.363,2.358c.091,1.179.181,2,.272,2.63h4.807Zm-5.8-10.431a4.628,4.628,0,0,1-2.721.726h-1.9v-5.533h1.179a8.054,8.054,0,0,1,2.9.363A2.229,2.229,0,0,1,446.808,366,2.694,2.694,0,0,1,445.81,368.263Zm5.8,10.431c-.091-.181-.091-.363-.181-.544v-2.268c0-2-.544-3.447-1.723-4.354a6.317,6.317,0,0,0-2.721-1.088,6.522,6.522,0,0,0,3.356-1.27,4.19,4.19,0,0,0,1.361-3.447,4.943,4.943,0,0,0-2.54-4.626,9.02,9.02,0,0,0-3.809-1h-9.342v19.138H441v-6.8h1.088l1.088.091c.725.091,1.36.181,1.723.272a2.04,2.04,0,0,1,1.361,1.361,9.06,9.06,0,0,1,.363,2.358c.091,1.179.181,2,.272,2.63h4.807Zm-5.8-10.431a4.628,4.628,0,0,1-2.721.726h-1.9v-5.533h1.179a8.054,8.054,0,0,1,2.9.363A2.229,2.229,0,0,1,446.808,366,2.694,2.694,0,0,1,445.81,368.263Zm5.8,10.431c-.091-.181-.091-.363-.181-.544v-2.268c0-2-.544-3.447-1.723-4.354a6.317,6.317,0,0,0-2.721-1.088,6.522,6.522,0,0,0,3.356-1.27,4.19,4.19,0,0,0,1.361-3.447,4.943,4.943,0,0,0-2.54-4.626,9.02,9.02,0,0,0-3.809-1h-9.342v19.138H441v-6.8h1.088l1.088.091c.725.091,1.36.181,1.723.272a2.04,2.04,0,0,1,1.361,1.361,9.06,9.06,0,0,1,.363,2.358c.091,1.179.181,2,.272,2.63h4.807Zm-5.8-10.431a4.628,4.628,0,0,1-2.721.726h-1.9v-5.533h1.179a8.054,8.054,0,0,1,2.9.363A2.229,2.229,0,0,1,446.808,366,2.694,2.694,0,0,1,445.81,368.263Zm5.8,10.431c-.091-.181-.091-.363-.181-.544v-2.268c0-2-.544-3.447-1.723-4.354a6.317,6.317,0,0,0-2.721-1.088,6.522,6.522,0,0,0,3.356-1.27,4.19,4.19,0,0,0,1.361-3.447,4.943,4.943,0,0,0-2.54-4.626,9.02,9.02,0,0,0-3.809-1h-9.342v19.138H441v-6.8h1.088l1.088.091c.725.091,1.36.181,1.723.272a2.04,2.04,0,0,1,1.361,1.361,9.06,9.06,0,0,1,.363,2.358c.091,1.179.181,2,.272,2.63h4.807Zm-5.8-10.431a4.628,4.628,0,0,1-2.721.726h-1.9v-5.533h1.179a8.054,8.054,0,0,1,2.9.363A2.229,2.229,0,0,1,446.808,366,2.694,2.694,0,0,1,445.81,368.263Zm5.8,10.431c-.091-.181-.091-.363-.181-.544v-2.268c0-2-.544-3.447-1.723-4.354a6.317,6.317,0,0,0-2.721-1.088,6.522,6.522,0,0,0,3.356-1.27,4.19,4.19,0,0,0,1.361-3.447,4.943,4.943,0,0,0-2.54-4.626,9.02,9.02,0,0,0-3.809-1h-9.342v19.138H441v-6.8h1.088l1.088.091c.725.091,1.36.181,1.723.272a2.04,2.04,0,0,1,1.361,1.361,9.06,9.06,0,0,1,.363,2.358c.091,1.179.181,2,.272,2.63h4.807Zm-5.8-10.431a4.628,4.628,0,0,1-2.721.726h-1.9v-5.533h1.179a8.054,8.054,0,0,1,2.9.363A2.229,2.229,0,0,1,446.808,366,2.694,2.694,0,0,1,445.81,368.263Zm5.8,10.431c-.091-.181-.091-.363-.181-.544v-2.268c0-2-.544-3.447-1.723-4.354a6.317,6.317,0,0,0-2.721-1.088,6.522,6.522,0,0,0,3.356-1.27,4.19,4.19,0,0,0,1.361-3.447,4.943,4.943,0,0,0-2.54-4.626,9.02,9.02,0,0,0-3.809-1h-9.342v19.138H441v-6.8h1.088l1.088.091c.725.091,1.36.181,1.723.272a2.04,2.04,0,0,1,1.361,1.361,9.06,9.06,0,0,1,.363,2.358c.091,1.179.181,2,.272,2.63h4.807Zm-5.8-10.431a4.628,4.628,0,0,1-2.721.726h-1.9v-5.533h1.179a8.054,8.054,0,0,1,2.9.363A2.229,2.229,0,0,1,446.808,366,2.694,2.694,0,0,1,445.81,368.263Zm5.8,10.431c-.091-.181-.091-.363-.181-.544v-2.268c0-2-.544-3.447-1.723-4.354a6.317,6.317,0,0,0-2.721-1.088,6.522,6.522,0,0,0,3.356-1.27,4.19,4.19,0,0,0,1.361-3.447,4.943,4.943,0,0,0-2.54-4.626,9.02,9.02,0,0,0-3.809-1h-9.342v19.138H441v-6.8h1.088l1.088.091c.725.091,1.36.181,1.723.272a2.04,2.04,0,0,1,1.361,1.361,9.06,9.06,0,0,1,.363,2.358c.091,1.179.181,2,.272,2.63h4.807Zm-5.8-10.431a4.628,4.628,0,0,1-2.721.726h-1.9v-5.533h1.179a8.054,8.054,0,0,1,2.9.363A2.229,2.229,0,0,1,446.808,366,2.694,2.694,0,0,1,445.81,368.263Zm5.8,10.431c-.091-.181-.091-.363-.181-.544v-2.268c0-2-.544-3.447-1.723-4.354a6.317,6.317,0,0,0-2.721-1.088,6.522,6.522,0,0,0,3.356-1.27,4.19,4.19,0,0,0,1.361-3.447,4.943,4.943,0,0,0-2.54-4.626,9.02,9.02,0,0,0-3.809-1h-9.342v19.138H441v-6.8h1.088l1.088.091c.725.091,1.36.181,1.723.272a2.04,2.04,0,0,1,1.361,1.361,9.06,9.06,0,0,1,.363,2.358c.091,1.179.181,2,.272,2.63h4.807Zm-5.8-10.431a4.628,4.628,0,0,1-2.721.726h-1.9v-5.533h1.179a8.054,8.054,0,0,1,2.9.363A2.229,2.229,0,0,1,446.808,366,2.694,2.694,0,0,1,445.81,368.263Zm5.8,10.431c-.091-.181-.091-.363-.181-.544v-2.268c0-2-.544-3.447-1.723-4.354a6.317,6.317,0,0,0-2.721-1.088,6.522,6.522,0,0,0,3.356-1.27,4.19,4.19,0,0,0,1.361-3.447,4.943,4.943,0,0,0-2.54-4.626,9.02,9.02,0,0,0-3.809-1h-9.342v19.138H441v-6.8h1.088l1.088.091c.725.091,1.36.181,1.723.272a2.04,2.04,0,0,1,1.361,1.361,9.06,9.06,0,0,1,.363,2.358c.091,1.179.181,2,.272,2.63h4.807Zm-5.8-10.431a4.628,4.628,0,0,1-2.721.726h-1.9v-5.533h1.179a8.054,8.054,0,0,1,2.9.363A2.229,2.229,0,0,1,446.808,366,2.694,2.694,0,0,1,445.81,368.263Zm5.8,10.431c-.091-.181-.091-.363-.181-.544v-2.268c0-2-.544-3.447-1.723-4.354a6.317,6.317,0,0,0-2.721-1.088,6.522,6.522,0,0,0,3.356-1.27,4.19,4.19,0,0,0,1.361-3.447,4.943,4.943,0,0,0-2.54-4.626,9.02,9.02,0,0,0-3.809-1h-9.342v19.138H441v-6.8h1.088l1.088.091c.725.091,1.36.181,1.723.272a2.04,2.04,0,0,1,1.361,1.361,9.06,9.06,0,0,1,.363,2.358c.091,1.179.181,2,.272,2.63h4.807Zm-5.8-10.431a4.628,4.628,0,0,1-2.721.726h-1.9v-5.533h1.179a8.054,8.054,0,0,1,2.9.363A2.229,2.229,0,0,1,446.808,366,2.694,2.694,0,0,1,445.81,368.263Zm5.8,10.431c-.091-.181-.091-.363-.181-.544v-2.268c0-2-.544-3.447-1.723-4.354a6.317,6.317,0,0,0-2.721-1.088,6.522,6.522,0,0,0,3.356-1.27,4.19,4.19,0,0,0,1.361-3.447,4.943,4.943,0,0,0-2.54-4.626,9.02,9.02,0,0,0-3.809-1h-9.342v19.138H441v-6.8h1.088l1.088.091c.725.091,1.36.181,1.723.272a2.04,2.04,0,0,1,1.361,1.361,9.06,9.06,0,0,1,.363,2.358c.091,1.179.181,2,.272,2.63h4.807Zm-5.8-10.431a4.628,4.628,0,0,1-2.721.726h-1.9v-5.533h1.179a8.054,8.054,0,0,1,2.9.363A2.229,2.229,0,0,1,446.808,366,2.694,2.694,0,0,1,445.81,368.263Zm5.8,10.431c-.091-.181-.091-.363-.181-.544v-2.268c0-2-.544-3.447-1.723-4.354a6.317,6.317,0,0,0-2.721-1.088,6.522,6.522,0,0,0,3.356-1.27,4.19,4.19,0,0,0,1.361-3.447,4.943,4.943,0,0,0-2.54-4.626,9.02,9.02,0,0,0-3.809-1h-9.342v19.138H441v-6.8h1.088l1.088.091c.725.091,1.36.181,1.723.272a2.04,2.04,0,0,1,1.361,1.361,9.06,9.06,0,0,1,.363,2.358c.091,1.179.181,2,.272,2.63h4.807Zm-5.8-10.431a4.628,4.628,0,0,1-2.721.726h-1.9v-5.533h1.179a8.054,8.054,0,0,1,2.9.363A2.229,2.229,0,0,1,446.808,366,2.694,2.694,0,0,1,445.81,368.263Zm5.8,10.431c-.091-.181-.091-.363-.181-.544v-2.268c0-2-.544-3.447-1.723-4.354a6.317,6.317,0,0,0-2.721-1.088,6.522,6.522,0,0,0,3.356-1.27,4.19,4.19,0,0,0,1.361-3.447,4.943,4.943,0,0,0-2.54-4.626,9.02,9.02,0,0,0-3.809-1h-9.342v19.138H441v-6.8h1.088l1.088.091c.725.091,1.36.181,1.723.272a2.04,2.04,0,0,1,1.361,1.361,9.06,9.06,0,0,1,.363,2.358c.091,1.179.181,2,.272,2.63h4.807Zm-5.8-10.431a4.628,4.628,0,0,1-2.721.726h-1.9v-5.533h1.179a8.054,8.054,0,0,1,2.9.363A2.229,2.229,0,0,1,446.808,366,2.694,2.694,0,0,1,445.81,368.263Zm5.8,10.431c-.091-.181-.091-.363-.181-.544v-2.268c0-2-.544-3.447-1.723-4.354a6.317,6.317,0,0,0-2.721-1.088,6.522,6.522,0,0,0,3.356-1.27,4.19,4.19,0,0,0,1.361-3.447,4.943,4.943,0,0,0-2.54-4.626,9.02,9.02,0,0,0-3.809-1h-9.342v19.138H441v-6.8h1.088l1.088.091c.725.091,1.36.181,1.723.272a2.04,2.04,0,0,1,1.361,1.361,9.06,9.06,0,0,1,.363,2.358c.091,1.179.181,2,.272,2.63h4.807Zm-5.8-10.431a4.628,4.628,0,0,1-2.721.726h-1.9v-5.533h1.179a8.054,8.054,0,0,1,2.9.363A2.229,2.229,0,0,1,446.808,366,2.694,2.694,0,0,1,445.81,368.263Zm5.8,10.431c-.091-.181-.091-.363-.181-.544v-2.268c0-2-.544-3.447-1.723-4.354a6.317,6.317,0,0,0-2.721-1.088,6.522,6.522,0,0,0,3.356-1.27,4.19,4.19,0,0,0,1.361-3.447,4.943,4.943,0,0,0-2.54-4.626,9.02,9.02,0,0,0-3.809-1h-9.342v19.138H441v-6.8h1.088l1.088.091c.725.091,1.36.181,1.723.272a2.04,2.04,0,0,1,1.361,1.361,9.06,9.06,0,0,1,.363,2.358c.091,1.179.181,2,.272,2.63h4.807Zm-5.8-10.431a4.628,4.628,0,0,1-2.721.726h-1.9v-5.533h1.179a8.054,8.054,0,0,1,2.9.363A2.229,2.229,0,0,1,446.808,366,2.694,2.694,0,0,1,445.81,368.263Zm5.8,10.431c-.091-.181-.091-.363-.181-.544v-2.268c0-2-.544-3.447-1.723-4.354a6.317,6.317,0,0,0-2.721-1.088,6.522,6.522,0,0,0,3.356-1.27,4.19,4.19,0,0,0,1.361-3.447,4.943,4.943,0,0,0-2.54-4.626,9.02,9.02,0,0,0-3.809-1h-9.342v19.138H441v-6.8h1.088l1.088.091c.725.091,1.36.181,1.723.272a2.04,2.04,0,0,1,1.361,1.361,9.06,9.06,0,0,1,.363,2.358c.091,1.179.181,2,.272,2.63h4.807Zm-5.8-10.431a4.628,4.628,0,0,1-2.721.726h-1.9v-5.533h1.179a8.054,8.054,0,0,1,2.9.363A2.229,2.229,0,0,1,446.808,366,2.694,2.694,0,0,1,445.81,368.263Zm5.8,10.431c-.091-.181-.091-.363-.181-.544v-2.268c0-2-.544-3.447-1.723-4.354a6.317,6.317,0,0,0-2.721-1.088,6.522,6.522,0,0,0,3.356-1.27,4.19,4.19,0,0,0,1.361-3.447,4.943,4.943,0,0,0-2.54-4.626,9.02,9.02,0,0,0-3.809-1h-9.342v19.138H441v-6.8h1.088l1.088.091c.725.091,1.36.181,1.723.272a2.04,2.04,0,0,1,1.361,1.361,9.06,9.06,0,0,1,.363,2.358c.091,1.179.181,2,.272,2.63h4.807Zm-5.8-10.431a4.628,4.628,0,0,1-2.721.726h-1.9v-5.533h1.179a8.054,8.054,0,0,1,2.9.363A2.229,2.229,0,0,1,446.808,366,2.694,2.694,0,0,1,445.81,368.263Zm5.8,10.431c-.091-.181-.091-.363-.181-.544v-2.268c0-2-.544-3.447-1.723-4.354a6.317,6.317,0,0,0-2.721-1.088,6.522,6.522,0,0,0,3.356-1.27,4.19,4.19,0,0,0,1.361-3.447,4.943,4.943,0,0,0-2.54-4.626,9.02,9.02,0,0,0-3.809-1h-9.342v19.138H441v-6.8h1.088l1.088.091c.725.091,1.36.181,1.723.272a2.04,2.04,0,0,1,1.361,1.361,9.06,9.06,0,0,1,.363,2.358c.091,1.179.181,2,.272,2.63h4.807Zm-5.8-10.431a4.628,4.628,0,0,1-2.721.726h-1.9v-5.533h1.179a8.054,8.054,0,0,1,2.9.363A2.229,2.229,0,0,1,446.808,366,2.694,2.694,0,0,1,445.81,368.263Zm5.8,10.431c-.091-.181-.091-.363-.181-.544v-2.268c0-2-.544-3.447-1.723-4.354a6.317,6.317,0,0,0-2.721-1.088,6.522,6.522,0,0,0,3.356-1.27,4.19,4.19,0,0,0,1.361-3.447,4.943,4.943,0,0,0-2.54-4.626,9.02,9.02,0,0,0-3.809-1h-9.342v19.138H441v-6.8h1.088l1.088.091c.725.091,1.36.181,1.723.272a2.04,2.04,0,0,1,1.361,1.361,9.06,9.06,0,0,1,.363,2.358c.091,1.179.181,2,.272,2.63h4.807Zm-5.8-10.431a4.628,4.628,0,0,1-2.721.726h-1.9v-5.533h1.179a8.054,8.054,0,0,1,2.9.363A2.229,2.229,0,0,1,446.808,366,2.694,2.694,0,0,1,445.81,368.263Zm5.8,10.431c-.091-.181-.091-.363-.181-.544v-2.268c0-2-.544-3.447-1.723-4.354a6.317,6.317,0,0,0-2.721-1.088,6.522,6.522,0,0,0,3.356-1.27,4.19,4.19,0,0,0,1.361-3.447,4.943,4.943,0,0,0-2.54-4.626,9.02,9.02,0,0,0-3.809-1h-9.342v19.138H441v-6.8h1.088l1.088.091c.725.091,1.36.181,1.723.272a2.04,2.04,0,0,1,1.361,1.361,9.06,9.06,0,0,1,.363,2.358c.091,1.179.181,2,.272,2.63h4.807Zm-5.8-10.431a4.628,4.628,0,0,1-2.721.726h-1.9v-5.533h1.179a8.054,8.054,0,0,1,2.9.363A2.229,2.229,0,0,1,446.808,366,2.694,2.694,0,0,1,445.81,368.263Zm5.8,10.431c-.091-.181-.091-.363-.181-.544v-2.268c0-2-.544-3.447-1.723-4.354a6.317,6.317,0,0,0-2.721-1.088,6.522,6.522,0,0,0,3.356-1.27,4.19,4.19,0,0,0,1.361-3.447,4.943,4.943,0,0,0-2.54-4.626,9.02,9.02,0,0,0-3.809-1h-9.342v19.138H441v-6.8h1.088l1.088.091c.725.091,1.36.181,1.723.272a2.04,2.04,0,0,1,1.361,1.361,9.06,9.06,0,0,1,.363,2.358c.091,1.179.181,2,.272,2.63h4.807Zm-5.8-10.431a4.628,4.628,0,0,1-2.721.726h-1.9v-5.533h1.179a8.054,8.054,0,0,1,2.9.363A2.229,2.229,0,0,1,446.808,366,2.694,2.694,0,0,1,445.81,368.263Zm5.8,10.431c-.091-.181-.091-.363-.181-.544v-2.268c0-2-.544-3.447-1.723-4.354a6.317,6.317,0,0,0-2.721-1.088,6.522,6.522,0,0,0,3.356-1.27,4.19,4.19,0,0,0,1.361-3.447,4.943,4.943,0,0,0-2.54-4.626,9.02,9.02,0,0,0-3.809-1h-9.342v19.138H441v-6.8h1.088l1.088.091c.725.091,1.36.181,1.723.272a2.04,2.04,0,0,1,1.361,1.361,9.06,9.06,0,0,1,.363,2.358c.091,1.179.181,2,.272,2.63h4.807Zm-5.8-10.431a4.628,4.628,0,0,1-2.721.726h-1.9v-5.533h1.179a8.054,8.054,0,0,1,2.9.363A2.229,2.229,0,0,1,446.808,366,2.694,2.694,0,0,1,445.81,368.263Zm5.8,10.431c-.091-.181-.091-.363-.181-.544v-2.268c0-2-.544-3.447-1.723-4.354a6.317,6.317,0,0,0-2.721-1.088,6.522,6.522,0,0,0,3.356-1.27,4.19,4.19,0,0,0,1.361-3.447,4.943,4.943,0,0,0-2.54-4.626,9.02,9.02,0,0,0-3.809-1h-9.342v19.138H441v-6.8h1.088l1.088.091c.725.091,1.36.181,1.723.272a2.04,2.04,0,0,1,1.361,1.361,9.06,9.06,0,0,1,.363,2.358c.091,1.179.181,2,.272,2.63h4.807Zm-5.8-10.431a4.628,4.628,0,0,1-2.721.726h-1.9v-5.533h1.179a8.054,8.054,0,0,1,2.9.363A2.229,2.229,0,0,1,446.808,366,2.694,2.694,0,0,1,445.81,368.263Zm5.8,10.431c-.091-.181-.091-.363-.181-.544v-2.268c0-2-.544-3.447-1.723-4.354a6.317,6.317,0,0,0-2.721-1.088,6.522,6.522,0,0,0,3.356-1.27,4.19,4.19,0,0,0,1.361-3.447,4.943,4.943,0,0,0-2.54-4.626,9.02,9.02,0,0,0-3.809-1h-9.342v19.138H441v-6.8h1.088l1.088.091c.725.091,1.36.181,1.723.272a2.04,2.04,0,0,1,1.361,1.361,9.06,9.06,0,0,1,.363,2.358c.091,1.179.181,2,.272,2.63h4.807Zm-5.8-10.431a4.628,4.628,0,0,1-2.721.726h-1.9v-5.533h1.179a8.054,8.054,0,0,1,2.9.363A2.229,2.229,0,0,1,446.808,366,2.694,2.694,0,0,1,445.81,368.263Zm5.8,10.431c-.091-.181-.091-.363-.181-.544v-2.268c0-2-.544-3.447-1.723-4.354a6.317,6.317,0,0,0-2.721-1.088,6.522,6.522,0,0,0,3.356-1.27,4.19,4.19,0,0,0,1.361-3.447,4.943,4.943,0,0,0-2.54-4.626,9.02,9.02,0,0,0-3.809-1h-9.342v19.138H441v-6.8h1.088l1.088.091c.725.091,1.36.181,1.723.272a2.04,2.04,0,0,1,1.361,1.361,9.06,9.06,0,0,1,.363,2.358c.091,1.179.181,2,.272,2.63h4.807Zm-5.8-10.431a4.628,4.628,0,0,1-2.721.726h-1.9v-5.533h1.179a8.054,8.054,0,0,1,2.9.363A2.229,2.229,0,0,1,446.808,366,2.694,2.694,0,0,1,445.81,368.263Zm5.8,10.431c-.091-.181-.091-.363-.181-.544v-2.268c0-2-.544-3.447-1.723-4.354a6.317,6.317,0,0,0-2.721-1.088,6.522,6.522,0,0,0,3.356-1.27,4.19,4.19,0,0,0,1.361-3.447,4.943,4.943,0,0,0-2.54-4.626,9.02,9.02,0,0,0-3.809-1h-9.342v19.138H441v-6.8h1.088l1.088.091c.725.091,1.36.181,1.723.272a2.04,2.04,0,0,1,1.361,1.361,9.06,9.06,0,0,1,.363,2.358c.091,1.179.181,2,.272,2.63h4.807Zm-5.8-10.431a4.628,4.628,0,0,1-2.721.726h-1.9v-5.533h1.179a8.054,8.054,0,0,1,2.9.363A2.229,2.229,0,0,1,446.808,366,2.694,2.694,0,0,1,445.81,368.263Zm5.8,10.431c-.091-.181-.091-.363-.181-.544v-2.268c0-2-.544-3.447-1.723-4.354a6.317,6.317,0,0,0-2.721-1.088,6.522,6.522,0,0,0,3.356-1.27,4.19,4.19,0,0,0,1.361-3.447,4.943,4.943,0,0,0-2.54-4.626,9.02,9.02,0,0,0-3.809-1h-9.342v19.138H441v-6.8h1.088l1.088.091c.725.091,1.36.181,1.723.272a2.04,2.04,0,0,1,1.361,1.361,9.06,9.06,0,0,1,.363,2.358c.091,1.179.181,2,.272,2.63h4.807Zm-5.8-10.431a4.628,4.628,0,0,1-2.721.726h-1.9v-5.533h1.179a8.054,8.054,0,0,1,2.9.363A2.229,2.229,0,0,1,446.808,366,2.694,2.694,0,0,1,445.81,368.263Zm5.8,10.431c-.091-.181-.091-.363-.181-.544v-2.268c0-2-.544-3.447-1.723-4.354a6.317,6.317,0,0,0-2.721-1.088,6.522,6.522,0,0,0,3.356-1.27,4.19,4.19,0,0,0,1.361-3.447,4.943,4.943,0,0,0-2.54-4.626,9.02,9.02,0,0,0-3.809-1h-9.342v19.138H441v-6.8h1.088l1.088.091c.725.091,1.36.181,1.723.272a2.04,2.04,0,0,1,1.361,1.361,9.06,9.06,0,0,1,.363,2.358c.091,1.179.181,2,.272,2.63h4.807Zm-5.8-10.431a4.628,4.628,0,0,1-2.721.726h-1.9v-5.533h1.179a8.054,8.054,0,0,1,2.9.363A2.229,2.229,0,0,1,446.808,366,2.694,2.694,0,0,1,445.81,368.263Zm5.8,10.431c-.091-.181-.091-.363-.181-.544v-2.268c0-2-.544-3.447-1.723-4.354a6.317,6.317,0,0,0-2.721-1.088,6.522,6.522,0,0,0,3.356-1.27,4.19,4.19,0,0,0,1.361-3.447,4.943,4.943,0,0,0-2.54-4.626,9.02,9.02,0,0,0-3.809-1h-9.342v19.138H441v-6.8h1.088l1.088.091c.725.091,1.36.181,1.723.272a2.04,2.04,0,0,1,1.361,1.361,9.06,9.06,0,0,1,.363,2.358c.091,1.179.181,2,.272,2.63h4.807Zm-5.8-10.431a4.628,4.628,0,0,1-2.721.726h-1.9v-5.533h1.179a8.054,8.054,0,0,1,2.9.363A2.229,2.229,0,0,1,446.808,366,2.694,2.694,0,0,1,445.81,368.263Zm5.8,10.431c-.091-.181-.091-.363-.181-.544v-2.268c0-2-.544-3.447-1.723-4.354a6.317,6.317,0,0,0-2.721-1.088,6.522,6.522,0,0,0,3.356-1.27,4.19,4.19,0,0,0,1.361-3.447,4.943,4.943,0,0,0-2.54-4.626,9.02,9.02,0,0,0-3.809-1h-9.342v19.138H441v-6.8h1.088l1.088.091c.725.091,1.36.181,1.723.272a2.04,2.04,0,0,1,1.361,1.361,9.06,9.06,0,0,1,.363,2.358c.091,1.179.181,2,.272,2.63h4.807Zm-5.8-10.431a4.628,4.628,0,0,1-2.721.726h-1.9v-5.533h1.179a8.054,8.054,0,0,1,2.9.363A2.229,2.229,0,0,1,446.808,366,2.694,2.694,0,0,1,445.81,368.263Zm5.8,10.431c-.091-.181-.091-.363-.181-.544v-2.268c0-2-.544-3.447-1.723-4.354a6.317,6.317,0,0,0-2.721-1.088,6.522,6.522,0,0,0,3.356-1.27,4.19,4.19,0,0,0,1.361-3.447,4.943,4.943,0,0,0-2.54-4.626,9.02,9.02,0,0,0-3.809-1h-9.342v19.138H441v-6.8h1.088l1.088.091c.725.091,1.36.181,1.723.272a2.04,2.04,0,0,1,1.361,1.361,9.06,9.06,0,0,1,.363,2.358c.091,1.179.181,2,.272,2.63h4.807Zm-5.8-10.431a4.628,4.628,0,0,1-2.721.726h-1.9v-5.533h1.179a8.054,8.054,0,0,1,2.9.363A2.229,2.229,0,0,1,446.808,366,2.694,2.694,0,0,1,445.81,368.263Zm5.8,10.431c-.091-.181-.091-.363-.181-.544v-2.268c0-2-.544-3.447-1.723-4.354a6.317,6.317,0,0,0-2.721-1.088,6.522,6.522,0,0,0,3.356-1.27,4.19,4.19,0,0,0,1.361-3.447,4.943,4.943,0,0,0-2.54-4.626,9.02,9.02,0,0,0-3.809-1h-9.342v19.138H441v-6.8h1.088l1.088.091c.725.091,1.36.181,1.723.272a2.04,2.04,0,0,1,1.361,1.361,9.06,9.06,0,0,1,.363,2.358c.091,1.179.181,2,.272,2.63h4.807Zm-5.8-10.431a4.628,4.628,0,0,1-2.721.726h-1.9v-5.533h1.179a8.054,8.054,0,0,1,2.9.363A2.229,2.229,0,0,1,446.808,366,2.694,2.694,0,0,1,445.81,368.263Zm5.8,10.431c-.091-.181-.091-.363-.181-.544v-2.268c0-2-.544-3.447-1.723-4.354a6.317,6.317,0,0,0-2.721-1.088,6.522,6.522,0,0,0,3.356-1.27,4.19,4.19,0,0,0,1.361-3.447,4.943,4.943,0,0,0-2.54-4.626,9.02,9.02,0,0,0-3.809-1h-9.342v19.138H441v-6.8h1.088l1.088.091c.725.091,1.36.181,1.723.272a2.04,2.04,0,0,1,1.361,1.361,9.06,9.06,0,0,1,.363,2.358c.091,1.179.181,2,.272,2.63h4.807Zm-5.8-10.431a4.628,4.628,0,0,1-2.721.726h-1.9v-5.533h1.179a8.054,8.054,0,0,1,2.9.363A2.229,2.229,0,0,1,446.808,366,2.694,2.694,0,0,1,445.81,368.263Zm5.8,10.431c-.091-.181-.091-.363-.181-.544v-2.268c0-2-.544-3.447-1.723-4.354a6.317,6.317,0,0,0-2.721-1.088,6.522,6.522,0,0,0,3.356-1.27,4.19,4.19,0,0,0,1.361-3.447,4.943,4.943,0,0,0-2.54-4.626,9.02,9.02,0,0,0-3.809-1h-9.342v19.138H441v-6.8h1.088l1.088.091c.725.091,1.36.181,1.723.272a2.04,2.04,0,0,1,1.361,1.361,9.06,9.06,0,0,1,.363,2.358c.091,1.179.181,2,.272,2.63h4.807Zm-5.8-10.431a4.628,4.628,0,0,1-2.721.726h-1.9v-5.533h1.179a8.054,8.054,0,0,1,2.9.363A2.229,2.229,0,0,1,446.808,366,2.694,2.694,0,0,1,445.81,368.263Zm5.8,10.431c-.091-.181-.091-.363-.181-.544v-2.268c0-2-.544-3.447-1.723-4.354a6.317,6.317,0,0,0-2.721-1.088,6.522,6.522,0,0,0,3.356-1.27,4.19,4.19,0,0,0,1.361-3.447,4.943,4.943,0,0,0-2.54-4.626,9.02,9.02,0,0,0-3.809-1h-9.342v19.138H441v-6.8h1.088l1.088.091c.725.091,1.36.181,1.723.272a2.04,2.04,0,0,1,1.361,1.361,9.06,9.06,0,0,1,.363,2.358c.091,1.179.181,2,.272,2.63h4.807Zm-5.8-10.431a4.628,4.628,0,0,1-2.721.726h-1.9v-5.533h1.179a8.054,8.054,0,0,1,2.9.363A2.229,2.229,0,0,1,446.808,366,2.694,2.694,0,0,1,445.81,368.263Zm5.8,10.431c-.091-.181-.091-.363-.181-.544v-2.268c0-2-.544-3.447-1.723-4.354a6.317,6.317,0,0,0-2.721-1.088,6.522,6.522,0,0,0,3.356-1.27,4.19,4.19,0,0,0,1.361-3.447,4.943,4.943,0,0,0-2.54-4.626,9.02,9.02,0,0,0-3.809-1h-9.342v19.138H441v-6.8h1.088l1.088.091c.725.091,1.36.181,1.723.272a2.04,2.04,0,0,1,1.361,1.361,9.06,9.06,0,0,1,.363,2.358c.091,1.179.181,2,.272,2.63h4.807Zm-5.8-10.431a4.628,4.628,0,0,1-2.721.726h-1.9v-5.533h1.179a8.054,8.054,0,0,1,2.9.363A2.229,2.229,0,0,1,446.808,366,2.694,2.694,0,0,1,445.81,368.263Zm5.8,10.431c-.091-.181-.091-.363-.181-.544v-2.268c0-2-.544-3.447-1.723-4.354a6.317,6.317,0,0,0-2.721-1.088,6.522,6.522,0,0,0,3.356-1.27,4.19,4.19,0,0,0,1.361-3.447,4.943,4.943,0,0,0-2.54-4.626,9.02,9.02,0,0,0-3.809-1h-9.342v19.138H441v-6.8h1.088l1.088.091c.725.091,1.36.181,1.723.272a2.04,2.04,0,0,1,1.361,1.361,9.06,9.06,0,0,1,.363,2.358c.091,1.179.181,2,.272,2.63h4.807Zm-5.8-10.431a4.628,4.628,0,0,1-2.721.726h-1.9v-5.533h1.179a8.054,8.054,0,0,1,2.9.363A2.229,2.229,0,0,1,446.808,366,2.694,2.694,0,0,1,445.81,368.263Zm5.8,10.431c-.091-.181-.091-.363-.181-.544v-2.268c0-2-.544-3.447-1.723-4.354a6.317,6.317,0,0,0-2.721-1.088,6.522,6.522,0,0,0,3.356-1.27,4.19,4.19,0,0,0,1.361-3.447,4.943,4.943,0,0,0-2.54-4.626,9.02,9.02,0,0,0-3.809-1h-9.342v19.138H441v-6.8h1.088l1.088.091c.725.091,1.36.181,1.723.272a2.04,2.04,0,0,1,1.361,1.361,9.06,9.06,0,0,1,.363,2.358c.091,1.179.181,2,.272,2.63h4.807Zm-5.8-10.431a4.628,4.628,0,0,1-2.721.726h-1.9v-5.533h1.179a8.054,8.054,0,0,1,2.9.363A2.229,2.229,0,0,1,446.808,366,2.694,2.694,0,0,1,445.81,368.263Zm5.8,10.431c-.091-.181-.091-.363-.181-.544v-2.268c0-2-.544-3.447-1.723-4.354a6.317,6.317,0,0,0-2.721-1.088,6.522,6.522,0,0,0,3.356-1.27,4.19,4.19,0,0,0,1.361-3.447,4.943,4.943,0,0,0-2.54-4.626,9.02,9.02,0,0,0-3.809-1h-9.342v19.138H441v-6.8h1.088l1.088.091c.725.091,1.36.181,1.723.272a2.04,2.04,0,0,1,1.361,1.361,9.06,9.06,0,0,1,.363,2.358c.091,1.179.181,2,.272,2.63h4.807Zm-5.8-10.431a4.628,4.628,0,0,1-2.721.726h-1.9v-5.533h1.179a8.054,8.054,0,0,1,2.9.363A2.229,2.229,0,0,1,446.808,366,2.694,2.694,0,0,1,445.81,368.263Zm5.8,10.431c-.091-.181-.091-.363-.181-.544v-2.268c0-2-.544-3.447-1.723-4.354a6.317,6.317,0,0,0-2.721-1.088,6.522,6.522,0,0,0,3.356-1.27,4.19,4.19,0,0,0,1.361-3.447,4.943,4.943,0,0,0-2.54-4.626,9.02,9.02,0,0,0-3.809-1h-9.342v19.138H441v-6.8h1.088l1.088.091c.725.091,1.36.181,1.723.272a2.04,2.04,0,0,1,1.361,1.361,9.06,9.06,0,0,1,.363,2.358c.091,1.179.181,2,.272,2.63h4.807Zm-5.8-10.431a4.628,4.628,0,0,1-2.721.726h-1.9v-5.533h1.179a8.054,8.054,0,0,1,2.9.363A2.229,2.229,0,0,1,446.808,366,2.694,2.694,0,0,1,445.81,368.263Zm5.8,10.431c-.091-.181-.091-.363-.181-.544v-2.268c0-2-.544-3.447-1.723-4.354a6.317,6.317,0,0,0-2.721-1.088,6.522,6.522,0,0,0,3.356-1.27,4.19,4.19,0,0,0,1.361-3.447,4.943,4.943,0,0,0-2.54-4.626,9.02,9.02,0,0,0-3.809-1h-9.342v19.138H441v-6.8h1.088l1.088.091c.725.091,1.36.181,1.723.272a2.04,2.04,0,0,1,1.361,1.361,9.06,9.06,0,0,1,.363,2.358c.091,1.179.181,2,.272,2.63h4.807Zm-5.8-10.431a4.628,4.628,0,0,1-2.721.726h-1.9v-5.533h1.179a8.054,8.054,0,0,1,2.9.363A2.229,2.229,0,0,1,446.808,366,2.694,2.694,0,0,1,445.81,368.263Zm5.8,10.431c-.091-.181-.091-.363-.181-.544v-2.268c0-2-.544-3.447-1.723-4.354a6.317,6.317,0,0,0-2.721-1.088,6.522,6.522,0,0,0,3.356-1.27,4.19,4.19,0,0,0,1.361-3.447,4.943,4.943,0,0,0-2.54-4.626,9.02,9.02,0,0,0-3.809-1h-9.342v19.138H441v-6.8h1.088l1.088.091c.725.091,1.36.181,1.723.272a2.04,2.04,0,0,1,1.361,1.361,9.06,9.06,0,0,1,.363,2.358c.091,1.179.181,2,.272,2.63h4.807Zm-5.8-10.431a4.628,4.628,0,0,1-2.721.726h-1.9v-5.533h1.179a8.054,8.054,0,0,1,2.9.363A2.229,2.229,0,0,1,446.808,366,2.694,2.694,0,0,1,445.81,368.263Zm5.8,10.431c-.091-.181-.091-.363-.181-.544v-2.268c0-2-.544-3.447-1.723-4.354a6.317,6.317,0,0,0-2.721-1.088,6.522,6.522,0,0,0,3.356-1.27,4.19,4.19,0,0,0,1.361-3.447,4.943,4.943,0,0,0-2.54-4.626,9.02,9.02,0,0,0-3.809-1h-9.342v19.138H441v-6.8h1.088l1.088.091c.725.091,1.36.181,1.723.272a2.04,2.04,0,0,1,1.361,1.361,9.06,9.06,0,0,1,.363,2.358c.091,1.179.181,2,.272,2.63h4.807Zm-5.8-10.431a4.628,4.628,0,0,1-2.721.726h-1.9v-5.533h1.179a8.054,8.054,0,0,1,2.9.363A2.229,2.229,0,0,1,446.808,366,2.694,2.694,0,0,1,445.81,368.263Zm5.8,10.431c-.091-.181-.091-.363-.181-.544v-2.268c0-2-.544-3.447-1.723-4.354a6.317,6.317,0,0,0-2.721-1.088,6.522,6.522,0,0,0,3.356-1.27,4.19,4.19,0,0,0,1.361-3.447,4.943,4.943,0,0,0-2.54-4.626,9.02,9.02,0,0,0-3.809-1h-9.342v19.138H441v-6.8h1.088l1.088.091c.725.091,1.36.181,1.723.272a2.04,2.04,0,0,1,1.361,1.361,9.06,9.06,0,0,1,.363,2.358c.091,1.179.181,2,.272,2.63h4.807Zm-5.8-10.431a4.628,4.628,0,0,1-2.721.726h-1.9v-5.533h1.179a8.054,8.054,0,0,1,2.9.363A2.229,2.229,0,0,1,446.808,366,2.694,2.694,0,0,1,445.81,368.263Zm5.8,10.431c-.091-.181-.091-.363-.181-.544v-2.268c0-2-.544-3.447-1.723-4.354a6.317,6.317,0,0,0-2.721-1.088,6.522,6.522,0,0,0,3.356-1.27,4.19,4.19,0,0,0,1.361-3.447,4.943,4.943,0,0,0-2.54-4.626,9.02,9.02,0,0,0-3.809-1h-9.342v19.138H441v-6.8h1.088l1.088.091c.725.091,1.36.181,1.723.272a2.04,2.04,0,0,1,1.361,1.361,9.06,9.06,0,0,1,.363,2.358c.091,1.179.181,2,.272,2.63h4.807Zm-5.8-10.431a4.628,4.628,0,0,1-2.721.726h-1.9v-5.533h1.179a8.054,8.054,0,0,1,2.9.363A2.229,2.229,0,0,1,446.808,366,2.694,2.694,0,0,1,445.81,368.263Zm5.8,10.431c-.091-.181-.091-.363-.181-.544v-2.268c0-2-.544-3.447-1.723-4.354a6.317,6.317,0,0,0-2.721-1.088,6.522,6.522,0,0,0,3.356-1.27,4.19,4.19,0,0,0,1.361-3.447,4.943,4.943,0,0,0-2.54-4.626,9.02,9.02,0,0,0-3.809-1h-9.342v19.138H441v-6.8h1.088l1.088.091c.725.091,1.36.181,1.723.272a2.04,2.04,0,0,1,1.361,1.361,9.06,9.06,0,0,1,.363,2.358c.091,1.179.181,2,.272,2.63h4.807Zm-5.8-10.431a4.628,4.628,0,0,1-2.721.726h-1.9v-5.533h1.179a8.054,8.054,0,0,1,2.9.363A2.229,2.229,0,0,1,446.808,366,2.694,2.694,0,0,1,445.81,368.263Zm5.8,10.431c-.091-.181-.091-.363-.181-.544v-2.268c0-2-.544-3.447-1.723-4.354a6.317,6.317,0,0,0-2.721-1.088,6.522,6.522,0,0,0,3.356-1.27,4.19,4.19,0,0,0,1.361-3.447,4.943,4.943,0,0,0-2.54-4.626,9.02,9.02,0,0,0-3.809-1h-9.342v19.138H441v-6.8h1.088l1.088.091c.725.091,1.36.181,1.723.272a2.04,2.04,0,0,1,1.361,1.361,9.06,9.06,0,0,1,.363,2.358c.091,1.179.181,2,.272,2.63h4.807Zm-5.8-10.431a4.628,4.628,0,0,1-2.721.726h-1.9v-5.533h1.179a8.054,8.054,0,0,1,2.9.363A2.229,2.229,0,0,1,446.808,366,2.694,2.694,0,0,1,445.81,368.263Zm5.8,10.431c-.091-.181-.091-.363-.181-.544v-2.268c0-2-.544-3.447-1.723-4.354a6.317,6.317,0,0,0-2.721-1.088,6.522,6.522,0,0,0,3.356-1.27,4.19,4.19,0,0,0,1.361-3.447,4.943,4.943,0,0,0-2.54-4.626,9.02,9.02,0,0,0-3.809-1h-9.342v19.138H441v-6.8h1.088l1.088.091c.725.091,1.36.181,1.723.272a2.04,2.04,0,0,1,1.361,1.361,9.06,9.06,0,0,1,.363,2.358c.091,1.179.181,2,.272,2.63h4.807Zm-5.8-10.431a4.628,4.628,0,0,1-2.721.726h-1.9v-5.533h1.179a8.054,8.054,0,0,1,2.9.363A2.229,2.229,0,0,1,446.808,366,2.694,2.694,0,0,1,445.81,368.263Zm5.8,10.431c-.091-.181-.091-.363-.181-.544v-2.268c0-2-.544-3.447-1.723-4.354a6.317,6.317,0,0,0-2.721-1.088,6.522,6.522,0,0,0,3.356-1.27,4.19,4.19,0,0,0,1.361-3.447,4.943,4.943,0,0,0-2.54-4.626,9.02,9.02,0,0,0-3.809-1h-9.342v19.138H441v-6.8h1.088l1.088.091c.725.091,1.36.181,1.723.272a2.04,2.04,0,0,1,1.361,1.361,9.06,9.06,0,0,1,.363,2.358c.091,1.179.181,2,.272,2.63h4.807Zm-5.8-10.431a4.628,4.628,0,0,1-2.721.726h-1.9v-5.533h1.179a8.054,8.054,0,0,1,2.9.363A2.229,2.229,0,0,1,446.808,366,2.694,2.694,0,0,1,445.81,368.263Zm10.068-10.884a17.311,17.311,0,0,0-24.126-.363,16.332,16.332,0,0,0-5.351,12.607,17.324,17.324,0,1,0,34.648,0A17.152,17.152,0,0,0,455.878,357.379Zm-2.177,22.4a13.7,13.7,0,0,1-10.068,4.172,13.556,13.556,0,0,1-10.068-4.172,13.96,13.96,0,0,1-4.172-10.249,14.177,14.177,0,0,1,24.4-9.977,14.006,14.006,0,0,1,4.172,9.977A14.566,14.566,0,0,1,453.7,379.782Zm-2.177-1.723v-2.268c0-2-.544-3.447-1.723-4.354a6.317,6.317,0,0,0-2.721-1.088,6.522,6.522,0,0,0,3.356-1.27,4.191,4.191,0,0,0,1.36-3.447,4.943,4.943,0,0,0-2.54-4.626,9.018,9.018,0,0,0-3.809-1h-9.342v19.138h4.989v-6.8h1.088l1.088.091c.726.091,1.36.181,1.723.272a2.04,2.04,0,0,1,1.361,1.361,9.068,9.068,0,0,1,.363,2.358c.091,1.179.181,2,.272,2.63H451.8l-.181-.544A1.845,1.845,0,0,1,451.524,378.059Zm-5.714-9.8a4.628,4.628,0,0,1-2.721.726h-1.9v-5.533h1.179a8.054,8.054,0,0,1,2.9.363A2.229,2.229,0,0,1,446.808,366,2.694,2.694,0,0,1,445.81,368.263Zm5.8,10.431c-.091-.181-.091-.363-.181-.544v-2.268c0-2-.544-3.447-1.723-4.354a6.317,6.317,0,0,0-2.721-1.088,6.522,6.522,0,0,0,3.356-1.27,4.19,4.19,0,0,0,1.361-3.447,4.943,4.943,0,0,0-2.54-4.626,9.02,9.02,0,0,0-3.809-1h-9.342v19.138H441v-6.8h1.088l1.088.091c.725.091,1.36.181,1.723.272a2.04,2.04,0,0,1,1.361,1.361,9.06,9.06,0,0,1,.363,2.358c.091,1.179.181,2,.272,2.63h4.807Zm-5.8-10.431a4.628,4.628,0,0,1-2.721.726h-1.9v-5.533h1.179a8.054,8.054,0,0,1,2.9.363A2.229,2.229,0,0,1,446.808,366,2.694,2.694,0,0,1,445.81,368.263Zm5.8,10.431c-.091-.181-.091-.363-.181-.544v-2.268c0-2-.544-3.447-1.723-4.354a6.317,6.317,0,0,0-2.721-1.088,6.522,6.522,0,0,0,3.356-1.27,4.19,4.19,0,0,0,1.361-3.447,4.943,4.943,0,0,0-2.54-4.626,9.02,9.02,0,0,0-3.809-1h-9.342v19.138H441v-6.8h1.088l1.088.091c.725.091,1.36.181,1.723.272a2.04,2.04,0,0,1,1.361,1.361,9.06,9.06,0,0,1,.363,2.358c.091,1.179.181,2,.272,2.63h4.807Zm-5.8-10.431a4.628,4.628,0,0,1-2.721.726h-1.9v-5.533h1.179a8.054,8.054,0,0,1,2.9.363A2.229,2.229,0,0,1,446.808,366,2.694,2.694,0,0,1,445.81,368.263Zm5.8,10.431c-.091-.181-.091-.363-.181-.544v-2.268c0-2-.544-3.447-1.723-4.354a6.317,6.317,0,0,0-2.721-1.088,6.522,6.522,0,0,0,3.356-1.27,4.19,4.19,0,0,0,1.361-3.447,4.943,4.943,0,0,0-2.54-4.626,9.02,9.02,0,0,0-3.809-1h-9.342v19.138H441v-6.8h1.088l1.088.091c.725.091,1.36.181,1.723.272a2.04,2.04,0,0,1,1.361,1.361,9.06,9.06,0,0,1,.363,2.358c.091,1.179.181,2,.272,2.63h4.807Zm-5.8-10.431a4.628,4.628,0,0,1-2.721.726h-1.9v-5.533h1.179a8.054,8.054,0,0,1,2.9.363A2.229,2.229,0,0,1,446.808,366,2.694,2.694,0,0,1,445.81,368.263Zm5.8,10.431c-.091-.181-.091-.363-.181-.544v-2.268c0-2-.544-3.447-1.723-4.354a6.317,6.317,0,0,0-2.721-1.088,6.522,6.522,0,0,0,3.356-1.27,4.19,4.19,0,0,0,1.361-3.447,4.943,4.943,0,0,0-2.54-4.626,9.02,9.02,0,0,0-3.809-1h-9.342v19.138H441v-6.8h1.088l1.088.091c.725.091,1.36.181,1.723.272a2.04,2.04,0,0,1,1.361,1.361,9.06,9.06,0,0,1,.363,2.358c.091,1.179.181,2,.272,2.63h4.807Zm-5.8-10.431a4.628,4.628,0,0,1-2.721.726h-1.9v-5.533h1.179a8.054,8.054,0,0,1,2.9.363A2.229,2.229,0,0,1,446.808,366,2.694,2.694,0,0,1,445.81,368.263Zm5.8,10.431c-.091-.181-.091-.363-.181-.544v-2.268c0-2-.544-3.447-1.723-4.354a6.317,6.317,0,0,0-2.721-1.088,6.522,6.522,0,0,0,3.356-1.27,4.19,4.19,0,0,0,1.361-3.447,4.943,4.943,0,0,0-2.54-4.626,9.02,9.02,0,0,0-3.809-1h-9.342v19.138H441v-6.8h1.088l1.088.091c.725.091,1.36.181,1.723.272a2.04,2.04,0,0,1,1.361,1.361,9.06,9.06,0,0,1,.363,2.358c.091,1.179.181,2,.272,2.63h4.807Zm-5.8-10.431a4.628,4.628,0,0,1-2.721.726h-1.9v-5.533h1.179a8.054,8.054,0,0,1,2.9.363A2.229,2.229,0,0,1,446.808,366,2.694,2.694,0,0,1,445.81,368.263Zm5.8,10.431c-.091-.181-.091-.363-.181-.544v-2.268c0-2-.544-3.447-1.723-4.354a6.317,6.317,0,0,0-2.721-1.088,6.522,6.522,0,0,0,3.356-1.27,4.19,4.19,0,0,0,1.361-3.447,4.943,4.943,0,0,0-2.54-4.626,9.02,9.02,0,0,0-3.809-1h-9.342v19.138H441v-6.8h1.088l1.088.091c.725.091,1.36.181,1.723.272a2.04,2.04,0,0,1,1.361,1.361,9.06,9.06,0,0,1,.363,2.358c.091,1.179.181,2,.272,2.63h4.807Zm-5.8-10.431a4.628,4.628,0,0,1-2.721.726h-1.9v-5.533h1.179a8.054,8.054,0,0,1,2.9.363A2.229,2.229,0,0,1,446.808,366,2.694,2.694,0,0,1,445.81,368.263Zm5.8,10.431c-.091-.181-.091-.363-.181-.544v-2.268c0-2-.544-3.447-1.723-4.354a6.317,6.317,0,0,0-2.721-1.088,6.522,6.522,0,0,0,3.356-1.27,4.19,4.19,0,0,0,1.361-3.447,4.943,4.943,0,0,0-2.54-4.626,9.02,9.02,0,0,0-3.809-1h-9.342v19.138H441v-6.8h1.088l1.088.091c.725.091,1.36.181,1.723.272a2.04,2.04,0,0,1,1.361,1.361,9.06,9.06,0,0,1,.363,2.358c.091,1.179.181,2,.272,2.63h4.807Zm-5.8-10.431a4.628,4.628,0,0,1-2.721.726h-1.9v-5.533h1.179a8.054,8.054,0,0,1,2.9.363A2.229,2.229,0,0,1,446.808,366,2.694,2.694,0,0,1,445.81,368.263Zm5.8,10.431c-.091-.181-.091-.363-.181-.544v-2.268c0-2-.544-3.447-1.723-4.354a6.317,6.317,0,0,0-2.721-1.088,6.522,6.522,0,0,0,3.356-1.27,4.19,4.19,0,0,0,1.361-3.447,4.943,4.943,0,0,0-2.54-4.626,9.02,9.02,0,0,0-3.809-1h-9.342v19.138H441v-6.8h1.088l1.088.091c.725.091,1.36.181,1.723.272a2.04,2.04,0,0,1,1.361,1.361,9.06,9.06,0,0,1,.363,2.358c.091,1.179.181,2,.272,2.63h4.807Zm-5.8-10.431a4.628,4.628,0,0,1-2.721.726h-1.9v-5.533h1.179a8.054,8.054,0,0,1,2.9.363A2.229,2.229,0,0,1,446.808,366,2.694,2.694,0,0,1,445.81,368.263Zm5.8,10.431c-.091-.181-.091-.363-.181-.544v-2.268c0-2-.544-3.447-1.723-4.354a6.317,6.317,0,0,0-2.721-1.088,6.522,6.522,0,0,0,3.356-1.27,4.19,4.19,0,0,0,1.361-3.447,4.943,4.943,0,0,0-2.54-4.626,9.02,9.02,0,0,0-3.809-1h-9.342v19.138H441v-6.8h1.088l1.088.091c.725.091,1.36.181,1.723.272a2.04,2.04,0,0,1,1.361,1.361,9.06,9.06,0,0,1,.363,2.358c.091,1.179.181,2,.272,2.63h4.807Zm-5.8-10.431a4.628,4.628,0,0,1-2.721.726h-1.9v-5.533h1.179a8.054,8.054,0,0,1,2.9.363A2.229,2.229,0,0,1,446.808,366,2.694,2.694,0,0,1,445.81,368.263Zm5.8,10.431c-.091-.181-.091-.363-.181-.544v-2.268c0-2-.544-3.447-1.723-4.354a6.317,6.317,0,0,0-2.721-1.088,6.522,6.522,0,0,0,3.356-1.27,4.19,4.19,0,0,0,1.361-3.447,4.943,4.943,0,0,0-2.54-4.626,9.02,9.02,0,0,0-3.809-1h-9.342v19.138H441v-6.8h1.088l1.088.091c.725.091,1.36.181,1.723.272a2.04,2.04,0,0,1,1.361,1.361,9.06,9.06,0,0,1,.363,2.358c.091,1.179.181,2,.272,2.63h4.807Zm-5.8-10.431a4.628,4.628,0,0,1-2.721.726h-1.9v-5.533h1.179a8.054,8.054,0,0,1,2.9.363A2.229,2.229,0,0,1,446.808,366,2.694,2.694,0,0,1,445.81,368.263Zm5.8,10.431c-.091-.181-.091-.363-.181-.544v-2.268c0-2-.544-3.447-1.723-4.354a6.317,6.317,0,0,0-2.721-1.088,6.522,6.522,0,0,0,3.356-1.27,4.19,4.19,0,0,0,1.361-3.447,4.943,4.943,0,0,0-2.54-4.626,9.02,9.02,0,0,0-3.809-1h-9.342v19.138H441v-6.8h1.088l1.088.091c.725.091,1.36.181,1.723.272a2.04,2.04,0,0,1,1.361,1.361,9.06,9.06,0,0,1,.363,2.358c.091,1.179.181,2,.272,2.63h4.807Zm-5.8-10.431a4.628,4.628,0,0,1-2.721.726h-1.9v-5.533h1.179a8.054,8.054,0,0,1,2.9.363A2.229,2.229,0,0,1,446.808,366,2.694,2.694,0,0,1,445.81,368.263Zm5.8,10.431c-.091-.181-.091-.363-.181-.544v-2.268c0-2-.544-3.447-1.723-4.354a6.317,6.317,0,0,0-2.721-1.088,6.522,6.522,0,0,0,3.356-1.27,4.19,4.19,0,0,0,1.361-3.447,4.943,4.943,0,0,0-2.54-4.626,9.02,9.02,0,0,0-3.809-1h-9.342v19.138H441v-6.8h1.088l1.088.091c.725.091,1.36.181,1.723.272a2.04,2.04,0,0,1,1.361,1.361,9.06,9.06,0,0,1,.363,2.358c.091,1.179.181,2,.272,2.63h4.807Zm-5.8-10.431a4.628,4.628,0,0,1-2.721.726h-1.9v-5.533h1.179a8.054,8.054,0,0,1,2.9.363A2.229,2.229,0,0,1,446.808,366,2.694,2.694,0,0,1,445.81,368.263Zm5.8,10.431c-.091-.181-.091-.363-.181-.544v-2.268c0-2-.544-3.447-1.723-4.354a6.317,6.317,0,0,0-2.721-1.088,6.522,6.522,0,0,0,3.356-1.27,4.19,4.19,0,0,0,1.361-3.447,4.943,4.943,0,0,0-2.54-4.626,9.02,9.02,0,0,0-3.809-1h-9.342v19.138H441v-6.8h1.088l1.088.091c.725.091,1.36.181,1.723.272a2.04,2.04,0,0,1,1.361,1.361,9.06,9.06,0,0,1,.363,2.358c.091,1.179.181,2,.272,2.63h4.807Zm-5.8-10.431a4.628,4.628,0,0,1-2.721.726h-1.9v-5.533h1.179a8.054,8.054,0,0,1,2.9.363A2.229,2.229,0,0,1,446.808,366,2.694,2.694,0,0,1,445.81,368.263Zm5.8,10.431c-.091-.181-.091-.363-.181-.544v-2.268c0-2-.544-3.447-1.723-4.354a6.317,6.317,0,0,0-2.721-1.088,6.522,6.522,0,0,0,3.356-1.27,4.19,4.19,0,0,0,1.361-3.447,4.943,4.943,0,0,0-2.54-4.626,9.02,9.02,0,0,0-3.809-1h-9.342v19.138H441v-6.8h1.088l1.088.091c.725.091,1.36.181,1.723.272a2.04,2.04,0,0,1,1.361,1.361,9.06,9.06,0,0,1,.363,2.358c.091,1.179.181,2,.272,2.63h4.807Zm-5.8-10.431a4.628,4.628,0,0,1-2.721.726h-1.9v-5.533h1.179a8.054,8.054,0,0,1,2.9.363A2.229,2.229,0,0,1,446.808,366,2.694,2.694,0,0,1,445.81,368.263Zm5.8,10.431c-.091-.181-.091-.363-.181-.544v-2.268c0-2-.544-3.447-1.723-4.354a6.317,6.317,0,0,0-2.721-1.088,6.522,6.522,0,0,0,3.356-1.27,4.19,4.19,0,0,0,1.361-3.447,4.943,4.943,0,0,0-2.54-4.626,9.02,9.02,0,0,0-3.809-1h-9.342v19.138H441v-6.8h1.088l1.088.091c.725.091,1.36.181,1.723.272a2.04,2.04,0,0,1,1.361,1.361,9.06,9.06,0,0,1,.363,2.358c.091,1.179.181,2,.272,2.63h4.807Zm-5.8-10.431a4.628,4.628,0,0,1-2.721.726h-1.9v-5.533h1.179a8.054,8.054,0,0,1,2.9.363A2.229,2.229,0,0,1,446.808,366,2.694,2.694,0,0,1,445.81,368.263Zm5.8,10.431c-.091-.181-.091-.363-.181-.544v-2.268c0-2-.544-3.447-1.723-4.354a6.317,6.317,0,0,0-2.721-1.088,6.522,6.522,0,0,0,3.356-1.27,4.19,4.19,0,0,0,1.361-3.447,4.943,4.943,0,0,0-2.54-4.626,9.02,9.02,0,0,0-3.809-1h-9.342v19.138H441v-6.8h1.088l1.088.091c.725.091,1.36.181,1.723.272a2.04,2.04,0,0,1,1.361,1.361,9.06,9.06,0,0,1,.363,2.358c.091,1.179.181,2,.272,2.63h4.807Zm-5.8-10.431a4.628,4.628,0,0,1-2.721.726h-1.9v-5.533h1.179a8.054,8.054,0,0,1,2.9.363A2.229,2.229,0,0,1,446.808,366,2.694,2.694,0,0,1,445.81,368.263Zm5.8,10.431c-.091-.181-.091-.363-.181-.544v-2.268c0-2-.544-3.447-1.723-4.354a6.317,6.317,0,0,0-2.721-1.088,6.522,6.522,0,0,0,3.356-1.27,4.19,4.19,0,0,0,1.361-3.447,4.943,4.943,0,0,0-2.54-4.626,9.02,9.02,0,0,0-3.809-1h-9.342v19.138H441v-6.8h1.088l1.088.091c.725.091,1.36.181,1.723.272a2.04,2.04,0,0,1,1.361,1.361,9.06,9.06,0,0,1,.363,2.358c.091,1.179.181,2,.272,2.63h4.807Zm-5.8-10.431a4.628,4.628,0,0,1-2.721.726h-1.9v-5.533h1.179a8.054,8.054,0,0,1,2.9.363A2.229,2.229,0,0,1,446.808,366,2.694,2.694,0,0,1,445.81,368.263Zm5.8,10.431c-.091-.181-.091-.363-.181-.544v-2.268c0-2-.544-3.447-1.723-4.354a6.317,6.317,0,0,0-2.721-1.088,6.522,6.522,0,0,0,3.356-1.27,4.19,4.19,0,0,0,1.361-3.447,4.943,4.943,0,0,0-2.54-4.626,9.02,9.02,0,0,0-3.809-1h-9.342v19.138H441v-6.8h1.088l1.088.091c.725.091,1.36.181,1.723.272a2.04,2.04,0,0,1,1.361,1.361,9.06,9.06,0,0,1,.363,2.358c.091,1.179.181,2,.272,2.63h4.807Zm-5.8-10.431a4.628,4.628,0,0,1-2.721.726h-1.9v-5.533h1.179a8.054,8.054,0,0,1,2.9.363A2.229,2.229,0,0,1,446.808,366,2.694,2.694,0,0,1,445.81,368.263Zm5.8,10.431c-.091-.181-.091-.363-.181-.544v-2.268c0-2-.544-3.447-1.723-4.354a6.317,6.317,0,0,0-2.721-1.088,6.522,6.522,0,0,0,3.356-1.27,4.19,4.19,0,0,0,1.361-3.447,4.943,4.943,0,0,0-2.54-4.626,9.02,9.02,0,0,0-3.809-1h-9.342v19.138H441v-6.8h1.088l1.088.091c.725.091,1.36.181,1.723.272a2.04,2.04,0,0,1,1.361,1.361,9.06,9.06,0,0,1,.363,2.358c.091,1.179.181,2,.272,2.63h4.807Zm-5.8-10.431a4.628,4.628,0,0,1-2.721.726h-1.9v-5.533h1.179a8.054,8.054,0,0,1,2.9.363A2.229,2.229,0,0,1,446.808,366,2.694,2.694,0,0,1,445.81,368.263Zm5.8,10.431c-.091-.181-.091-.363-.181-.544v-2.268c0-2-.544-3.447-1.723-4.354a6.317,6.317,0,0,0-2.721-1.088,6.522,6.522,0,0,0,3.356-1.27,4.19,4.19,0,0,0,1.361-3.447,4.943,4.943,0,0,0-2.54-4.626,9.02,9.02,0,0,0-3.809-1h-9.342v19.138H441v-6.8h1.088l1.088.091c.725.091,1.36.181,1.723.272a2.04,2.04,0,0,1,1.361,1.361,9.06,9.06,0,0,1,.363,2.358c.091,1.179.181,2,.272,2.63h4.807Zm-5.8-10.431a4.628,4.628,0,0,1-2.721.726h-1.9v-5.533h1.179a8.054,8.054,0,0,1,2.9.363A2.229,2.229,0,0,1,446.808,366,2.694,2.694,0,0,1,445.81,368.263Zm5.8,10.431c-.091-.181-.091-.363-.181-.544v-2.268c0-2-.544-3.447-1.723-4.354a6.317,6.317,0,0,0-2.721-1.088,6.522,6.522,0,0,0,3.356-1.27,4.19,4.19,0,0,0,1.361-3.447,4.943,4.943,0,0,0-2.54-4.626,9.02,9.02,0,0,0-3.809-1h-9.342v19.138H441v-6.8h1.088l1.088.091c.725.091,1.36.181,1.723.272a2.04,2.04,0,0,1,1.361,1.361,9.06,9.06,0,0,1,.363,2.358c.091,1.179.181,2,.272,2.63h4.807Zm-5.8-10.431a4.628,4.628,0,0,1-2.721.726h-1.9v-5.533h1.179a8.054,8.054,0,0,1,2.9.363A2.229,2.229,0,0,1,446.808,366,2.694,2.694,0,0,1,445.81,368.263Zm5.8,10.431c-.091-.181-.091-.363-.181-.544v-2.268c0-2-.544-3.447-1.723-4.354a6.317,6.317,0,0,0-2.721-1.088,6.522,6.522,0,0,0,3.356-1.27,4.19,4.19,0,0,0,1.361-3.447,4.943,4.943,0,0,0-2.54-4.626,9.02,9.02,0,0,0-3.809-1h-9.342v19.138H441v-6.8h1.088l1.088.091c.725.091,1.36.181,1.723.272a2.04,2.04,0,0,1,1.361,1.361,9.06,9.06,0,0,1,.363,2.358c.091,1.179.181,2,.272,2.63h4.807Zm-5.8-10.431a4.628,4.628,0,0,1-2.721.726h-1.9v-5.533h1.179a8.054,8.054,0,0,1,2.9.363A2.229,2.229,0,0,1,446.808,366,2.694,2.694,0,0,1,445.81,368.263Zm5.8,10.431c-.091-.181-.091-.363-.181-.544v-2.268c0-2-.544-3.447-1.723-4.354a6.317,6.317,0,0,0-2.721-1.088,6.522,6.522,0,0,0,3.356-1.27,4.19,4.19,0,0,0,1.361-3.447,4.943,4.943,0,0,0-2.54-4.626,9.02,9.02,0,0,0-3.809-1h-9.342v19.138H441v-6.8h1.088l1.088.091c.725.091,1.36.181,1.723.272a2.04,2.04,0,0,1,1.361,1.361,9.06,9.06,0,0,1,.363,2.358c.091,1.179.181,2,.272,2.63h4.807Zm-5.8-10.431a4.628,4.628,0,0,1-2.721.726h-1.9v-5.533h1.179a8.054,8.054,0,0,1,2.9.363A2.229,2.229,0,0,1,446.808,366,2.694,2.694,0,0,1,445.81,368.263Zm5.8,10.431c-.091-.181-.091-.363-.181-.544v-2.268c0-2-.544-3.447-1.723-4.354a6.317,6.317,0,0,0-2.721-1.088,6.522,6.522,0,0,0,3.356-1.27,4.19,4.19,0,0,0,1.361-3.447,4.943,4.943,0,0,0-2.54-4.626,9.02,9.02,0,0,0-3.809-1h-9.342v19.138H441v-6.8h1.088l1.088.091c.725.091,1.36.181,1.723.272a2.04,2.04,0,0,1,1.361,1.361,9.06,9.06,0,0,1,.363,2.358c.091,1.179.181,2,.272,2.63h4.807Zm-5.8-10.431a4.628,4.628,0,0,1-2.721.726h-1.9v-5.533h1.179a8.054,8.054,0,0,1,2.9.363A2.229,2.229,0,0,1,446.808,366,2.694,2.694,0,0,1,445.81,368.263Zm5.8,10.431c-.091-.181-.091-.363-.181-.544v-2.268c0-2-.544-3.447-1.723-4.354a6.317,6.317,0,0,0-2.721-1.088,6.522,6.522,0,0,0,3.356-1.27,4.19,4.19,0,0,0,1.361-3.447,4.943,4.943,0,0,0-2.54-4.626,9.02,9.02,0,0,0-3.809-1h-9.342v19.138H441v-6.8h1.088l1.088.091c.725.091,1.36.181,1.723.272a2.04,2.04,0,0,1,1.361,1.361,9.06,9.06,0,0,1,.363,2.358c.091,1.179.181,2,.272,2.63h4.807Zm-5.8-10.431a4.628,4.628,0,0,1-2.721.726h-1.9v-5.533h1.179a8.054,8.054,0,0,1,2.9.363A2.229,2.229,0,0,1,446.808,366,2.694,2.694,0,0,1,445.81,368.263Zm5.8,10.431c-.091-.181-.091-.363-.181-.544v-2.268c0-2-.544-3.447-1.723-4.354a6.317,6.317,0,0,0-2.721-1.088,6.522,6.522,0,0,0,3.356-1.27,4.19,4.19,0,0,0,1.361-3.447,4.943,4.943,0,0,0-2.54-4.626,9.02,9.02,0,0,0-3.809-1h-9.342v19.138H441v-6.8h1.088l1.088.091c.725.091,1.36.181,1.723.272a2.04,2.04,0,0,1,1.361,1.361,9.06,9.06,0,0,1,.363,2.358c.091,1.179.181,2,.272,2.63h4.807Zm-5.8-10.431a4.628,4.628,0,0,1-2.721.726h-1.9v-5.533h1.179a8.054,8.054,0,0,1,2.9.363A2.229,2.229,0,0,1,446.808,366,2.694,2.694,0,0,1,445.81,368.263Zm5.8,10.431c-.091-.181-.091-.363-.181-.544v-2.268c0-2-.544-3.447-1.723-4.354a6.317,6.317,0,0,0-2.721-1.088,6.522,6.522,0,0,0,3.356-1.27,4.19,4.19,0,0,0,1.361-3.447,4.943,4.943,0,0,0-2.54-4.626,9.02,9.02,0,0,0-3.809-1h-9.342v19.138H441v-6.8h1.088l1.088.091c.725.091,1.36.181,1.723.272a2.04,2.04,0,0,1,1.361,1.361,9.06,9.06,0,0,1,.363,2.358c.091,1.179.181,2,.272,2.63h4.807Zm-5.8-10.431a4.628,4.628,0,0,1-2.721.726h-1.9v-5.533h1.179a8.054,8.054,0,0,1,2.9.363A2.229,2.229,0,0,1,446.808,366,2.694,2.694,0,0,1,445.81,368.263Zm5.8,10.431c-.091-.181-.091-.363-.181-.544v-2.268c0-2-.544-3.447-1.723-4.354a6.317,6.317,0,0,0-2.721-1.088,6.522,6.522,0,0,0,3.356-1.27,4.19,4.19,0,0,0,1.361-3.447,4.943,4.943,0,0,0-2.54-4.626,9.02,9.02,0,0,0-3.809-1h-9.342v19.138H441v-6.8h1.088l1.088.091c.725.091,1.36.181,1.723.272a2.04,2.04,0,0,1,1.361,1.361,9.06,9.06,0,0,1,.363,2.358c.091,1.179.181,2,.272,2.63h4.807Zm-5.8-10.431a4.628,4.628,0,0,1-2.721.726h-1.9v-5.533h1.179a8.054,8.054,0,0,1,2.9.363A2.229,2.229,0,0,1,446.808,366,2.694,2.694,0,0,1,445.81,368.263Zm5.8,10.431c-.091-.181-.091-.363-.181-.544v-2.268c0-2-.544-3.447-1.723-4.354a6.317,6.317,0,0,0-2.721-1.088,6.522,6.522,0,0,0,3.356-1.27,4.19,4.19,0,0,0,1.361-3.447,4.943,4.943,0,0,0-2.54-4.626,9.02,9.02,0,0,0-3.809-1h-9.342v19.138H441v-6.8h1.088l1.088.091c.725.091,1.36.181,1.723.272a2.04,2.04,0,0,1,1.361,1.361,9.06,9.06,0,0,1,.363,2.358c.091,1.179.181,2,.272,2.63h4.807Zm-5.8-10.431a4.628,4.628,0,0,1-2.721.726h-1.9v-5.533h1.179a8.054,8.054,0,0,1,2.9.363A2.229,2.229,0,0,1,446.808,366,2.694,2.694,0,0,1,445.81,368.263Zm5.8,10.431c-.091-.181-.091-.363-.181-.544v-2.268c0-2-.544-3.447-1.723-4.354a6.317,6.317,0,0,0-2.721-1.088,6.522,6.522,0,0,0,3.356-1.27,4.19,4.19,0,0,0,1.361-3.447,4.943,4.943,0,0,0-2.54-4.626,9.02,9.02,0,0,0-3.809-1h-9.342v19.138H441v-6.8h1.088l1.088.091c.725.091,1.36.181,1.723.272a2.04,2.04,0,0,1,1.361,1.361,9.06,9.06,0,0,1,.363,2.358c.091,1.179.181,2,.272,2.63h4.807Zm-5.8-10.431a4.628,4.628,0,0,1-2.721.726h-1.9v-5.533h1.179a8.054,8.054,0,0,1,2.9.363A2.229,2.229,0,0,1,446.808,366,2.694,2.694,0,0,1,445.81,368.263Zm5.8,10.431c-.091-.181-.091-.363-.181-.544v-2.268c0-2-.544-3.447-1.723-4.354a6.317,6.317,0,0,0-2.721-1.088,6.522,6.522,0,0,0,3.356-1.27,4.19,4.19,0,0,0,1.361-3.447,4.943,4.943,0,0,0-2.54-4.626,9.02,9.02,0,0,0-3.809-1h-9.342v19.138H441v-6.8h1.088l1.088.091c.725.091,1.36.181,1.723.272a2.04,2.04,0,0,1,1.361,1.361,9.06,9.06,0,0,1,.363,2.358c.091,1.179.181,2,.272,2.63h4.807Zm-5.8-10.431a4.628,4.628,0,0,1-2.721.726h-1.9v-5.533h1.179a8.054,8.054,0,0,1,2.9.363A2.229,2.229,0,0,1,446.808,366,2.694,2.694,0,0,1,445.81,368.263Zm5.8,10.431c-.091-.181-.091-.363-.181-.544v-2.268c0-2-.544-3.447-1.723-4.354a6.317,6.317,0,0,0-2.721-1.088,6.522,6.522,0,0,0,3.356-1.27,4.19,4.19,0,0,0,1.361-3.447,4.943,4.943,0,0,0-2.54-4.626,9.02,9.02,0,0,0-3.809-1h-9.342v19.138H441v-6.8h1.088l1.088.091c.725.091,1.36.181,1.723.272a2.04,2.04,0,0,1,1.361,1.361,9.06,9.06,0,0,1,.363,2.358c.091,1.179.181,2,.272,2.63h4.807Zm-5.8-10.431a4.628,4.628,0,0,1-2.721.726h-1.9v-5.533h1.179a8.054,8.054,0,0,1,2.9.363A2.229,2.229,0,0,1,446.808,366,2.694,2.694,0,0,1,445.81,368.263Zm5.8,10.431c-.091-.181-.091-.363-.181-.544v-2.268c0-2-.544-3.447-1.723-4.354a6.317,6.317,0,0,0-2.721-1.088,6.522,6.522,0,0,0,3.356-1.27,4.19,4.19,0,0,0,1.361-3.447,4.943,4.943,0,0,0-2.54-4.626,9.02,9.02,0,0,0-3.809-1h-9.342v19.138H441v-6.8h1.088l1.088.091c.725.091,1.36.181,1.723.272a2.04,2.04,0,0,1,1.361,1.361,9.06,9.06,0,0,1,.363,2.358c.091,1.179.181,2,.272,2.63h4.807Zm-5.8-10.431a4.628,4.628,0,0,1-2.721.726h-1.9v-5.533h1.179a8.054,8.054,0,0,1,2.9.363A2.229,2.229,0,0,1,446.808,366,2.694,2.694,0,0,1,445.81,368.263Zm5.8,10.431c-.091-.181-.091-.363-.181-.544v-2.268c0-2-.544-3.447-1.723-4.354a6.317,6.317,0,0,0-2.721-1.088,6.522,6.522,0,0,0,3.356-1.27,4.19,4.19,0,0,0,1.361-3.447,4.943,4.943,0,0,0-2.54-4.626,9.02,9.02,0,0,0-3.809-1h-9.342v19.138H441v-6.8h1.088l1.088.091c.725.091,1.36.181,1.723.272a2.04,2.04,0,0,1,1.361,1.361,9.06,9.06,0,0,1,.363,2.358c.091,1.179.181,2,.272,2.63h4.807Zm-5.8-10.431a4.628,4.628,0,0,1-2.721.726h-1.9v-5.533h1.179a8.054,8.054,0,0,1,2.9.363A2.229,2.229,0,0,1,446.808,366,2.694,2.694,0,0,1,445.81,368.263Zm5.8,10.431c-.091-.181-.091-.363-.181-.544v-2.268c0-2-.544-3.447-1.723-4.354a6.317,6.317,0,0,0-2.721-1.088,6.522,6.522,0,0,0,3.356-1.27,4.19,4.19,0,0,0,1.361-3.447,4.943,4.943,0,0,0-2.54-4.626,9.02,9.02,0,0,0-3.809-1h-9.342v19.138H441v-6.8h1.088l1.088.091c.725.091,1.36.181,1.723.272a2.04,2.04,0,0,1,1.361,1.361,9.06,9.06,0,0,1,.363,2.358c.091,1.179.181,2,.272,2.63h4.807Zm-5.8-10.431a4.628,4.628,0,0,1-2.721.726h-1.9v-5.533h1.179a8.054,8.054,0,0,1,2.9.363A2.229,2.229,0,0,1,446.808,366,2.694,2.694,0,0,1,445.81,368.263Zm5.8,10.431c-.091-.181-.091-.363-.181-.544v-2.268c0-2-.544-3.447-1.723-4.354a6.317,6.317,0,0,0-2.721-1.088,6.522,6.522,0,0,0,3.356-1.27,4.19,4.19,0,0,0,1.361-3.447,4.943,4.943,0,0,0-2.54-4.626,9.02,9.02,0,0,0-3.809-1h-9.342v19.138H441v-6.8h1.088l1.088.091c.725.091,1.36.181,1.723.272a2.04,2.04,0,0,1,1.361,1.361,9.06,9.06,0,0,1,.363,2.358c.091,1.179.181,2,.272,2.63h4.807Zm-5.8-10.431a4.628,4.628,0,0,1-2.721.726h-1.9v-5.533h1.179a8.054,8.054,0,0,1,2.9.363A2.229,2.229,0,0,1,446.808,366,2.694,2.694,0,0,1,445.81,368.263Zm5.8,10.431c-.091-.181-.091-.363-.181-.544v-2.268c0-2-.544-3.447-1.723-4.354a6.317,6.317,0,0,0-2.721-1.088,6.522,6.522,0,0,0,3.356-1.27,4.19,4.19,0,0,0,1.361-3.447,4.943,4.943,0,0,0-2.54-4.626,9.02,9.02,0,0,0-3.809-1h-9.342v19.138H441v-6.8h1.088l1.088.091c.725.091,1.36.181,1.723.272a2.04,2.04,0,0,1,1.361,1.361,9.06,9.06,0,0,1,.363,2.358c.091,1.179.181,2,.272,2.63h4.807Zm-5.8-10.431a4.628,4.628,0,0,1-2.721.726h-1.9v-5.533h1.179a8.054,8.054,0,0,1,2.9.363A2.229,2.229,0,0,1,446.808,366,2.694,2.694,0,0,1,445.81,368.263Zm5.8,10.431c-.091-.181-.091-.363-.181-.544v-2.268c0-2-.544-3.447-1.723-4.354a6.317,6.317,0,0,0-2.721-1.088,6.522,6.522,0,0,0,3.356-1.27,4.19,4.19,0,0,0,1.361-3.447,4.943,4.943,0,0,0-2.54-4.626,9.02,9.02,0,0,0-3.809-1h-9.342v19.138H441v-6.8h1.088l1.088.091c.725.091,1.36.181,1.723.272a2.04,2.04,0,0,1,1.361,1.361,9.06,9.06,0,0,1,.363,2.358c.091,1.179.181,2,.272,2.63h4.807Zm-5.8-10.431a4.628,4.628,0,0,1-2.721.726h-1.9v-5.533h1.179a8.054,8.054,0,0,1,2.9.363A2.229,2.229,0,0,1,446.808,366,2.694,2.694,0,0,1,445.81,368.263Zm5.8,10.431c-.091-.181-.091-.363-.181-.544v-2.268c0-2-.544-3.447-1.723-4.354a6.317,6.317,0,0,0-2.721-1.088,6.522,6.522,0,0,0,3.356-1.27,4.19,4.19,0,0,0,1.361-3.447,4.943,4.943,0,0,0-2.54-4.626,9.02,9.02,0,0,0-3.809-1h-9.342v19.138H441v-6.8h1.088l1.088.091c.725.091,1.36.181,1.723.272a2.04,2.04,0,0,1,1.361,1.361,9.06,9.06,0,0,1,.363,2.358c.091,1.179.181,2,.272,2.63h4.807Zm-5.8-10.431a4.628,4.628,0,0,1-2.721.726h-1.9v-5.533h1.179a8.054,8.054,0,0,1,2.9.363A2.229,2.229,0,0,1,446.808,366,2.694,2.694,0,0,1,445.81,368.263Zm5.8,10.431c-.091-.181-.091-.363-.181-.544v-2.268c0-2-.544-3.447-1.723-4.354a6.317,6.317,0,0,0-2.721-1.088,6.522,6.522,0,0,0,3.356-1.27,4.19,4.19,0,0,0,1.361-3.447,4.943,4.943,0,0,0-2.54-4.626,9.02,9.02,0,0,0-3.809-1h-9.342v19.138H441v-6.8h1.088l1.088.091c.725.091,1.36.181,1.723.272a2.04,2.04,0,0,1,1.361,1.361,9.06,9.06,0,0,1,.363,2.358c.091,1.179.181,2,.272,2.63h4.807Zm-5.8-10.431a4.628,4.628,0,0,1-2.721.726h-1.9v-5.533h1.179a8.054,8.054,0,0,1,2.9.363A2.229,2.229,0,0,1,446.808,366,2.694,2.694,0,0,1,445.81,368.263Zm5.8,10.431c-.091-.181-.091-.363-.181-.544v-2.268c0-2-.544-3.447-1.723-4.354a6.317,6.317,0,0,0-2.721-1.088,6.522,6.522,0,0,0,3.356-1.27,4.19,4.19,0,0,0,1.361-3.447,4.943,4.943,0,0,0-2.54-4.626,9.02,9.02,0,0,0-3.809-1h-9.342v19.138H441v-6.8h1.088l1.088.091c.725.091,1.36.181,1.723.272a2.04,2.04,0,0,1,1.361,1.361,9.06,9.06,0,0,1,.363,2.358c.091,1.179.181,2,.272,2.63h4.807Zm-5.8-10.431a4.628,4.628,0,0,1-2.721.726h-1.9v-5.533h1.179a8.054,8.054,0,0,1,2.9.363A2.229,2.229,0,0,1,446.808,366,2.694,2.694,0,0,1,445.81,368.263Zm5.8,10.431c-.091-.181-.091-.363-.181-.544v-2.268c0-2-.544-3.447-1.723-4.354a6.317,6.317,0,0,0-2.721-1.088,6.522,6.522,0,0,0,3.356-1.27,4.19,4.19,0,0,0,1.361-3.447,4.943,4.943,0,0,0-2.54-4.626,9.02,9.02,0,0,0-3.809-1h-9.342v19.138H441v-6.8h1.088l1.088.091c.725.091,1.36.181,1.723.272a2.04,2.04,0,0,1,1.361,1.361,9.06,9.06,0,0,1,.363,2.358c.091,1.179.181,2,.272,2.63h4.807Zm-5.8-10.431a4.628,4.628,0,0,1-2.721.726h-1.9v-5.533h1.179a8.054,8.054,0,0,1,2.9.363A2.229,2.229,0,0,1,446.808,366,2.694,2.694,0,0,1,445.81,368.263Zm5.8,10.431c-.091-.181-.091-.363-.181-.544v-2.268c0-2-.544-3.447-1.723-4.354a6.317,6.317,0,0,0-2.721-1.088,6.522,6.522,0,0,0,3.356-1.27,4.19,4.19,0,0,0,1.361-3.447,4.943,4.943,0,0,0-2.54-4.626,9.02,9.02,0,0,0-3.809-1h-9.342v19.138H441v-6.8h1.088l1.088.091c.725.091,1.36.181,1.723.272a2.04,2.04,0,0,1,1.361,1.361,9.06,9.06,0,0,1,.363,2.358c.091,1.179.181,2,.272,2.63h4.807Zm-5.8-10.431a4.628,4.628,0,0,1-2.721.726h-1.9v-5.533h1.179a8.054,8.054,0,0,1,2.9.363A2.229,2.229,0,0,1,446.808,366,2.694,2.694,0,0,1,445.81,368.263Zm5.8,10.431c-.091-.181-.091-.363-.181-.544v-2.268c0-2-.544-3.447-1.723-4.354a6.317,6.317,0,0,0-2.721-1.088,6.522,6.522,0,0,0,3.356-1.27,4.19,4.19,0,0,0,1.361-3.447,4.943,4.943,0,0,0-2.54-4.626,9.02,9.02,0,0,0-3.809-1h-9.342v19.138H441v-6.8h1.088l1.088.091c.725.091,1.36.181,1.723.272a2.04,2.04,0,0,1,1.361,1.361,9.06,9.06,0,0,1,.363,2.358c.091,1.179.181,2,.272,2.63h4.807Zm-5.8-10.431a4.628,4.628,0,0,1-2.721.726h-1.9v-5.533h1.179a8.054,8.054,0,0,1,2.9.363A2.229,2.229,0,0,1,446.808,366,2.694,2.694,0,0,1,445.81,368.263Zm5.8,10.431c-.091-.181-.091-.363-.181-.544v-2.268c0-2-.544-3.447-1.723-4.354a6.317,6.317,0,0,0-2.721-1.088,6.522,6.522,0,0,0,3.356-1.27,4.19,4.19,0,0,0,1.361-3.447,4.943,4.943,0,0,0-2.54-4.626,9.02,9.02,0,0,0-3.809-1h-9.342v19.138H441v-6.8h1.088l1.088.091c.725.091,1.36.181,1.723.272a2.04,2.04,0,0,1,1.361,1.361,9.06,9.06,0,0,1,.363,2.358c.091,1.179.181,2,.272,2.63h4.807Zm-5.8-10.431a4.628,4.628,0,0,1-2.721.726h-1.9v-5.533h1.179a8.054,8.054,0,0,1,2.9.363A2.229,2.229,0,0,1,446.808,366,2.694,2.694,0,0,1,445.81,368.263Zm5.8,10.431c-.091-.181-.091-.363-.181-.544v-2.268c0-2-.544-3.447-1.723-4.354a6.317,6.317,0,0,0-2.721-1.088,6.522,6.522,0,0,0,3.356-1.27,4.19,4.19,0,0,0,1.361-3.447,4.943,4.943,0,0,0-2.54-4.626,9.02,9.02,0,0,0-3.809-1h-9.342v19.138H441v-6.8h1.088l1.088.091c.725.091,1.36.181,1.723.272a2.04,2.04,0,0,1,1.361,1.361,9.06,9.06,0,0,1,.363,2.358c.091,1.179.181,2,.272,2.63h4.807Zm-5.8-10.431a4.628,4.628,0,0,1-2.721.726h-1.9v-5.533h1.179a8.054,8.054,0,0,1,2.9.363A2.229,2.229,0,0,1,446.808,366,2.694,2.694,0,0,1,445.81,368.263Zm5.8,10.431c-.091-.181-.091-.363-.181-.544v-2.268c0-2-.544-3.447-1.723-4.354a6.317,6.317,0,0,0-2.721-1.088,6.522,6.522,0,0,0,3.356-1.27,4.19,4.19,0,0,0,1.361-3.447,4.943,4.943,0,0,0-2.54-4.626,9.02,9.02,0,0,0-3.809-1h-9.342v19.138H441v-6.8h1.088l1.088.091c.725.091,1.36.181,1.723.272a2.04,2.04,0,0,1,1.361,1.361,9.06,9.06,0,0,1,.363,2.358c.091,1.179.181,2,.272,2.63h4.807Zm-5.8-10.431a4.628,4.628,0,0,1-2.721.726h-1.9v-5.533h1.179a8.054,8.054,0,0,1,2.9.363A2.229,2.229,0,0,1,446.808,366,2.694,2.694,0,0,1,445.81,368.263Zm5.8,10.431c-.091-.181-.091-.363-.181-.544v-2.268c0-2-.544-3.447-1.723-4.354a6.317,6.317,0,0,0-2.721-1.088,6.522,6.522,0,0,0,3.356-1.27,4.19,4.19,0,0,0,1.361-3.447,4.943,4.943,0,0,0-2.54-4.626,9.02,9.02,0,0,0-3.809-1h-9.342v19.138H441v-6.8h1.088l1.088.091c.725.091,1.36.181,1.723.272a2.04,2.04,0,0,1,1.361,1.361,9.06,9.06,0,0,1,.363,2.358c.091,1.179.181,2,.272,2.63h4.807Zm-5.8-10.431a4.628,4.628,0,0,1-2.721.726h-1.9v-5.533h1.179a8.054,8.054,0,0,1,2.9.363A2.229,2.229,0,0,1,446.808,366,2.694,2.694,0,0,1,445.81,368.263Zm5.8,10.431c-.091-.181-.091-.363-.181-.544v-2.268c0-2-.544-3.447-1.723-4.354a6.317,6.317,0,0,0-2.721-1.088,6.522,6.522,0,0,0,3.356-1.27,4.19,4.19,0,0,0,1.361-3.447,4.943,4.943,0,0,0-2.54-4.626,9.02,9.02,0,0,0-3.809-1h-9.342v19.138H441v-6.8h1.088l1.088.091c.725.091,1.36.181,1.723.272a2.04,2.04,0,0,1,1.361,1.361,9.06,9.06,0,0,1,.363,2.358c.091,1.179.181,2,.272,2.63h4.807Zm-5.8-10.431a4.628,4.628,0,0,1-2.721.726h-1.9v-5.533h1.179a8.054,8.054,0,0,1,2.9.363A2.229,2.229,0,0,1,446.808,366,2.694,2.694,0,0,1,445.81,368.263Zm5.8,10.431c-.091-.181-.091-.363-.181-.544v-2.268c0-2-.544-3.447-1.723-4.354a6.317,6.317,0,0,0-2.721-1.088,6.522,6.522,0,0,0,3.356-1.27,4.19,4.19,0,0,0,1.361-3.447,4.943,4.943,0,0,0-2.54-4.626,9.02,9.02,0,0,0-3.809-1h-9.342v19.138H441v-6.8h1.088l1.088.091c.725.091,1.36.181,1.723.272a2.04,2.04,0,0,1,1.361,1.361,9.06,9.06,0,0,1,.363,2.358c.091,1.179.181,2,.272,2.63h4.807Zm-5.8-10.431a4.628,4.628,0,0,1-2.721.726h-1.9v-5.533h1.179a8.054,8.054,0,0,1,2.9.363A2.229,2.229,0,0,1,446.808,366,2.694,2.694,0,0,1,445.81,368.263Zm5.8,10.431c-.091-.181-.091-.363-.181-.544v-2.268c0-2-.544-3.447-1.723-4.354a6.317,6.317,0,0,0-2.721-1.088,6.522,6.522,0,0,0,3.356-1.27,4.19,4.19,0,0,0,1.361-3.447,4.943,4.943,0,0,0-2.54-4.626,9.02,9.02,0,0,0-3.809-1h-9.342v19.138H441v-6.8h1.088l1.088.091c.725.091,1.36.181,1.723.272a2.04,2.04,0,0,1,1.361,1.361,9.06,9.06,0,0,1,.363,2.358c.091,1.179.181,2,.272,2.63h4.807Zm-5.8-10.431a4.628,4.628,0,0,1-2.721.726h-1.9v-5.533h1.179a8.054,8.054,0,0,1,2.9.363A2.229,2.229,0,0,1,446.808,366,2.694,2.694,0,0,1,445.81,368.263Zm5.8,10.431c-.091-.181-.091-.363-.181-.544v-2.268c0-2-.544-3.447-1.723-4.354a6.317,6.317,0,0,0-2.721-1.088,6.522,6.522,0,0,0,3.356-1.27,4.19,4.19,0,0,0,1.361-3.447,4.943,4.943,0,0,0-2.54-4.626,9.02,9.02,0,0,0-3.809-1h-9.342v19.138H441v-6.8h1.088l1.088.091c.725.091,1.36.181,1.723.272a2.04,2.04,0,0,1,1.361,1.361,9.06,9.06,0,0,1,.363,2.358c.091,1.179.181,2,.272,2.63h4.807Zm-5.8-10.431a4.628,4.628,0,0,1-2.721.726h-1.9v-5.533h1.179a8.054,8.054,0,0,1,2.9.363A2.229,2.229,0,0,1,446.808,366,2.694,2.694,0,0,1,445.81,368.263Zm5.8,10.431c-.091-.181-.091-.363-.181-.544v-2.268c0-2-.544-3.447-1.723-4.354a6.317,6.317,0,0,0-2.721-1.088,6.522,6.522,0,0,0,3.356-1.27,4.19,4.19,0,0,0,1.361-3.447,4.943,4.943,0,0,0-2.54-4.626,9.02,9.02,0,0,0-3.809-1h-9.342v19.138H441v-6.8h1.088l1.088.091c.725.091,1.36.181,1.723.272a2.04,2.04,0,0,1,1.361,1.361,9.06,9.06,0,0,1,.363,2.358c.091,1.179.181,2,.272,2.63h4.807Zm-5.8-10.431a4.628,4.628,0,0,1-2.721.726h-1.9v-5.533h1.179a8.054,8.054,0,0,1,2.9.363A2.229,2.229,0,0,1,446.808,366,2.694,2.694,0,0,1,445.81,368.263Zm5.8,10.431c-.091-.181-.091-.363-.181-.544v-2.268c0-2-.544-3.447-1.723-4.354a6.317,6.317,0,0,0-2.721-1.088,6.522,6.522,0,0,0,3.356-1.27,4.19,4.19,0,0,0,1.361-3.447,4.943,4.943,0,0,0-2.54-4.626,9.02,9.02,0,0,0-3.809-1h-9.342v19.138H441v-6.8h1.088l1.088.091c.725.091,1.36.181,1.723.272a2.04,2.04,0,0,1,1.361,1.361,9.06,9.06,0,0,1,.363,2.358c.091,1.179.181,2,.272,2.63h4.807Zm-5.8-10.431a4.628,4.628,0,0,1-2.721.726h-1.9v-5.533h1.179a8.054,8.054,0,0,1,2.9.363A2.229,2.229,0,0,1,446.808,366,2.694,2.694,0,0,1,445.81,368.263Zm5.8,10.431c-.091-.181-.091-.363-.181-.544v-2.268c0-2-.544-3.447-1.723-4.354a6.317,6.317,0,0,0-2.721-1.088,6.522,6.522,0,0,0,3.356-1.27,4.19,4.19,0,0,0,1.361-3.447,4.943,4.943,0,0,0-2.54-4.626,9.02,9.02,0,0,0-3.809-1h-9.342v19.138H441v-6.8h1.088l1.088.091c.725.091,1.36.181,1.723.272a2.04,2.04,0,0,1,1.361,1.361,9.06,9.06,0,0,1,.363,2.358c.091,1.179.181,2,.272,2.63h4.807Zm-5.8-10.431a4.628,4.628,0,0,1-2.721.726h-1.9v-5.533h1.179a8.054,8.054,0,0,1,2.9.363A2.229,2.229,0,0,1,446.808,366,2.694,2.694,0,0,1,445.81,368.263Zm5.8,10.431c-.091-.181-.091-.363-.181-.544v-2.268c0-2-.544-3.447-1.723-4.354a6.317,6.317,0,0,0-2.721-1.088,6.522,6.522,0,0,0,3.356-1.27,4.19,4.19,0,0,0,1.361-3.447,4.943,4.943,0,0,0-2.54-4.626,9.02,9.02,0,0,0-3.809-1h-9.342v19.138H441v-6.8h1.088l1.088.091c.725.091,1.36.181,1.723.272a2.04,2.04,0,0,1,1.361,1.361,9.06,9.06,0,0,1,.363,2.358c.091,1.179.181,2,.272,2.63h4.807Zm-5.8-10.431a4.628,4.628,0,0,1-2.721.726h-1.9v-5.533h1.179a8.054,8.054,0,0,1,2.9.363A2.229,2.229,0,0,1,446.808,366,2.694,2.694,0,0,1,445.81,368.263Zm5.8,10.431c-.091-.181-.091-.363-.181-.544v-2.268c0-2-.544-3.447-1.723-4.354a6.317,6.317,0,0,0-2.721-1.088,6.522,6.522,0,0,0,3.356-1.27,4.19,4.19,0,0,0,1.361-3.447,4.943,4.943,0,0,0-2.54-4.626,9.02,9.02,0,0,0-3.809-1h-9.342v19.138H441v-6.8h1.088l1.088.091c.725.091,1.36.181,1.723.272a2.04,2.04,0,0,1,1.361,1.361,9.06,9.06,0,0,1,.363,2.358c.091,1.179.181,2,.272,2.63h4.807Zm-5.8-10.431a4.628,4.628,0,0,1-2.721.726h-1.9v-5.533h1.179a8.054,8.054,0,0,1,2.9.363A2.229,2.229,0,0,1,446.808,366,2.694,2.694,0,0,1,445.81,368.263Zm5.8,10.431c-.091-.181-.091-.363-.181-.544v-2.268c0-2-.544-3.447-1.723-4.354a6.317,6.317,0,0,0-2.721-1.088,6.522,6.522,0,0,0,3.356-1.27,4.19,4.19,0,0,0,1.361-3.447,4.943,4.943,0,0,0-2.54-4.626,9.02,9.02,0,0,0-3.809-1h-9.342v19.138H441v-6.8h1.088l1.088.091c.725.091,1.36.181,1.723.272a2.04,2.04,0,0,1,1.361,1.361,9.06,9.06,0,0,1,.363,2.358c.091,1.179.181,2,.272,2.63h4.807Zm-5.8-10.431a4.628,4.628,0,0,1-2.721.726h-1.9v-5.533h1.179a8.054,8.054,0,0,1,2.9.363A2.229,2.229,0,0,1,446.808,366,2.694,2.694,0,0,1,445.81,368.263Zm5.8,10.431c-.091-.181-.091-.363-.181-.544v-2.268c0-2-.544-3.447-1.723-4.354a6.317,6.317,0,0,0-2.721-1.088,6.522,6.522,0,0,0,3.356-1.27,4.19,4.19,0,0,0,1.361-3.447,4.943,4.943,0,0,0-2.54-4.626,9.02,9.02,0,0,0-3.809-1h-9.342v19.138H441v-6.8h1.088l1.088.091c.725.091,1.36.181,1.723.272a2.04,2.04,0,0,1,1.361,1.361,9.06,9.06,0,0,1,.363,2.358c.091,1.179.181,2,.272,2.63h4.807Zm-5.8-10.431a4.628,4.628,0,0,1-2.721.726h-1.9v-5.533h1.179a8.054,8.054,0,0,1,2.9.363A2.229,2.229,0,0,1,446.808,366,2.694,2.694,0,0,1,445.81,368.263Zm5.8,10.431c-.091-.181-.091-.363-.181-.544v-2.268c0-2-.544-3.447-1.723-4.354a6.317,6.317,0,0,0-2.721-1.088,6.522,6.522,0,0,0,3.356-1.27,4.19,4.19,0,0,0,1.361-3.447,4.943,4.943,0,0,0-2.54-4.626,9.02,9.02,0,0,0-3.809-1h-9.342v19.138H441v-6.8h1.088l1.088.091c.725.091,1.36.181,1.723.272a2.04,2.04,0,0,1,1.361,1.361,9.06,9.06,0,0,1,.363,2.358c.091,1.179.181,2,.272,2.63h4.807Zm-5.8-10.431a4.628,4.628,0,0,1-2.721.726h-1.9v-5.533h1.179a8.054,8.054,0,0,1,2.9.363A2.229,2.229,0,0,1,446.808,366,2.694,2.694,0,0,1,445.81,368.263Zm5.8,10.431c-.091-.181-.091-.363-.181-.544v-2.268c0-2-.544-3.447-1.723-4.354a6.317,6.317,0,0,0-2.721-1.088,6.522,6.522,0,0,0,3.356-1.27,4.19,4.19,0,0,0,1.361-3.447,4.943,4.943,0,0,0-2.54-4.626,9.02,9.02,0,0,0-3.809-1h-9.342v19.138H441v-6.8h1.088l1.088.091c.725.091,1.36.181,1.723.272a2.04,2.04,0,0,1,1.361,1.361,9.06,9.06,0,0,1,.363,2.358c.091,1.179.181,2,.272,2.63h4.807Zm-5.8-10.431a4.628,4.628,0,0,1-2.721.726h-1.9v-5.533h1.179a8.054,8.054,0,0,1,2.9.363A2.229,2.229,0,0,1,446.808,366,2.694,2.694,0,0,1,445.81,368.263Zm5.8,10.431c-.091-.181-.091-.363-.181-.544v-2.268c0-2-.544-3.447-1.723-4.354a6.317,6.317,0,0,0-2.721-1.088,6.522,6.522,0,0,0,3.356-1.27,4.19,4.19,0,0,0,1.361-3.447,4.943,4.943,0,0,0-2.54-4.626,9.02,9.02,0,0,0-3.809-1h-9.342v19.138H441v-6.8h1.088l1.088.091c.725.091,1.36.181,1.723.272a2.04,2.04,0,0,1,1.361,1.361,9.06,9.06,0,0,1,.363,2.358c.091,1.179.181,2,.272,2.63h4.807Zm-5.8-10.431a4.628,4.628,0,0,1-2.721.726h-1.9v-5.533h1.179a8.054,8.054,0,0,1,2.9.363A2.229,2.229,0,0,1,446.808,366,2.694,2.694,0,0,1,445.81,368.263Zm5.8,10.431c-.091-.181-.091-.363-.181-.544v-2.268c0-2-.544-3.447-1.723-4.354a6.317,6.317,0,0,0-2.721-1.088,6.522,6.522,0,0,0,3.356-1.27,4.19,4.19,0,0,0,1.361-3.447,4.943,4.943,0,0,0-2.54-4.626,9.02,9.02,0,0,0-3.809-1h-9.342v19.138H441v-6.8h1.088l1.088.091c.725.091,1.36.181,1.723.272a2.04,2.04,0,0,1,1.361,1.361,9.06,9.06,0,0,1,.363,2.358c.091,1.179.181,2,.272,2.63h4.807Zm-5.8-10.431a4.628,4.628,0,0,1-2.721.726h-1.9v-5.533h1.179a8.054,8.054,0,0,1,2.9.363A2.229,2.229,0,0,1,446.808,366,2.694,2.694,0,0,1,445.81,368.263Zm5.8,10.431c-.091-.181-.091-.363-.181-.544v-2.268c0-2-.544-3.447-1.723-4.354a6.317,6.317,0,0,0-2.721-1.088,6.522,6.522,0,0,0,3.356-1.27,4.19,4.19,0,0,0,1.361-3.447,4.943,4.943,0,0,0-2.54-4.626,9.02,9.02,0,0,0-3.809-1h-9.342v19.138H441v-6.8h1.088l1.088.091c.725.091,1.36.181,1.723.272a2.04,2.04,0,0,1,1.361,1.361,9.06,9.06,0,0,1,.363,2.358c.091,1.179.181,2,.272,2.63h4.807Zm-5.8-10.431a4.628,4.628,0,0,1-2.721.726h-1.9v-5.533h1.179a8.054,8.054,0,0,1,2.9.363A2.229,2.229,0,0,1,446.808,366,2.694,2.694,0,0,1,445.81,368.263Zm5.8,10.431c-.091-.181-.091-.363-.181-.544v-2.268c0-2-.544-3.447-1.723-4.354a6.317,6.317,0,0,0-2.721-1.088,6.522,6.522,0,0,0,3.356-1.27,4.19,4.19,0,0,0,1.361-3.447,4.943,4.943,0,0,0-2.54-4.626,9.02,9.02,0,0,0-3.809-1h-9.342v19.138H441v-6.8h1.088l1.088.091c.725.091,1.36.181,1.723.272a2.04,2.04,0,0,1,1.361,1.361,9.06,9.06,0,0,1,.363,2.358c.091,1.179.181,2,.272,2.63h4.807Zm-5.8-10.431a4.628,4.628,0,0,1-2.721.726h-1.9v-5.533h1.179a8.054,8.054,0,0,1,2.9.363A2.229,2.229,0,0,1,446.808,366,2.694,2.694,0,0,1,445.81,368.263Zm5.8,10.431c-.091-.181-.091-.363-.181-.544v-2.268c0-2-.544-3.447-1.723-4.354a6.317,6.317,0,0,0-2.721-1.088,6.522,6.522,0,0,0,3.356-1.27,4.19,4.19,0,0,0,1.361-3.447,4.943,4.943,0,0,0-2.54-4.626,9.02,9.02,0,0,0-3.809-1h-9.342v19.138H441v-6.8h1.088l1.088.091c.725.091,1.36.181,1.723.272a2.04,2.04,0,0,1,1.361,1.361,9.06,9.06,0,0,1,.363,2.358c.091,1.179.181,2,.272,2.63h4.807Zm-5.8-10.431a4.628,4.628,0,0,1-2.721.726h-1.9v-5.533h1.179a8.054,8.054,0,0,1,2.9.363A2.229,2.229,0,0,1,446.808,366,2.694,2.694,0,0,1,445.81,368.263Zm5.8,10.431c-.091-.181-.091-.363-.181-.544v-2.268c0-2-.544-3.447-1.723-4.354a6.317,6.317,0,0,0-2.721-1.088,6.522,6.522,0,0,0,3.356-1.27,4.19,4.19,0,0,0,1.361-3.447,4.943,4.943,0,0,0-2.54-4.626,9.02,9.02,0,0,0-3.809-1h-9.342v19.138H441v-6.8h1.088l1.088.091c.725.091,1.36.181,1.723.272a2.04,2.04,0,0,1,1.361,1.361,9.06,9.06,0,0,1,.363,2.358c.091,1.179.181,2,.272,2.63h4.807Zm-5.8-10.431a4.628,4.628,0,0,1-2.721.726h-1.9v-5.533h1.179a8.054,8.054,0,0,1,2.9.363A2.229,2.229,0,0,1,446.808,366,2.694,2.694,0,0,1,445.81,368.263Zm5.8,10.431c-.091-.181-.091-.363-.181-.544v-2.268c0-2-.544-3.447-1.723-4.354a6.317,6.317,0,0,0-2.721-1.088,6.522,6.522,0,0,0,3.356-1.27,4.19,4.19,0,0,0,1.361-3.447,4.943,4.943,0,0,0-2.54-4.626,9.02,9.02,0,0,0-3.809-1h-9.342v19.138H441v-6.8h1.088l1.088.091c.725.091,1.36.181,1.723.272a2.04,2.04,0,0,1,1.361,1.361,9.06,9.06,0,0,1,.363,2.358c.091,1.179.181,2,.272,2.63h4.807Zm-5.8-10.431a4.628,4.628,0,0,1-2.721.726h-1.9v-5.533h1.179a8.054,8.054,0,0,1,2.9.363A2.229,2.229,0,0,1,446.808,366,2.694,2.694,0,0,1,445.81,368.263Zm5.8,10.431c-.091-.181-.091-.363-.181-.544v-2.268c0-2-.544-3.447-1.723-4.354a6.317,6.317,0,0,0-2.721-1.088,6.522,6.522,0,0,0,3.356-1.27,4.19,4.19,0,0,0,1.361-3.447,4.943,4.943,0,0,0-2.54-4.626,9.02,9.02,0,0,0-3.809-1h-9.342v19.138H441v-6.8h1.088l1.088.091c.725.091,1.36.181,1.723.272a2.04,2.04,0,0,1,1.361,1.361,9.06,9.06,0,0,1,.363,2.358c.091,1.179.181,2,.272,2.63h4.807Zm-5.8-10.431a4.628,4.628,0,0,1-2.721.726h-1.9v-5.533h1.179a8.054,8.054,0,0,1,2.9.363A2.229,2.229,0,0,1,446.808,366,2.694,2.694,0,0,1,445.81,368.263Zm5.8,10.431c-.091-.181-.091-.363-.181-.544v-2.268c0-2-.544-3.447-1.723-4.354a6.317,6.317,0,0,0-2.721-1.088,6.522,6.522,0,0,0,3.356-1.27,4.19,4.19,0,0,0,1.361-3.447,4.943,4.943,0,0,0-2.54-4.626,9.02,9.02,0,0,0-3.809-1h-9.342v19.138H441v-6.8h1.088l1.088.091c.725.091,1.36.181,1.723.272a2.04,2.04,0,0,1,1.361,1.361,9.06,9.06,0,0,1,.363,2.358c.091,1.179.181,2,.272,2.63h4.807Zm-5.8-10.431a4.628,4.628,0,0,1-2.721.726h-1.9v-5.533h1.179a8.054,8.054,0,0,1,2.9.363A2.229,2.229,0,0,1,446.808,366,2.694,2.694,0,0,1,445.81,368.263Zm5.8,10.431c-.091-.181-.091-.363-.181-.544v-2.268c0-2-.544-3.447-1.723-4.354a6.317,6.317,0,0,0-2.721-1.088,6.522,6.522,0,0,0,3.356-1.27,4.19,4.19,0,0,0,1.361-3.447,4.943,4.943,0,0,0-2.54-4.626,9.02,9.02,0,0,0-3.809-1h-9.342v19.138H441v-6.8h1.088l1.088.091c.725.091,1.36.181,1.723.272a2.04,2.04,0,0,1,1.361,1.361,9.06,9.06,0,0,1,.363,2.358c.091,1.179.181,2,.272,2.63h4.807Zm-5.8-10.431a4.628,4.628,0,0,1-2.721.726h-1.9v-5.533h1.179a8.054,8.054,0,0,1,2.9.363A2.229,2.229,0,0,1,446.808,366,2.694,2.694,0,0,1,445.81,368.263Zm5.8,10.431c-.091-.181-.091-.363-.181-.544v-2.268c0-2-.544-3.447-1.723-4.354a6.317,6.317,0,0,0-2.721-1.088,6.522,6.522,0,0,0,3.356-1.27,4.19,4.19,0,0,0,1.361-3.447,4.943,4.943,0,0,0-2.54-4.626,9.02,9.02,0,0,0-3.809-1h-9.342v19.138H441v-6.8h1.088l1.088.091c.725.091,1.36.181,1.723.272a2.04,2.04,0,0,1,1.361,1.361,9.06,9.06,0,0,1,.363,2.358c.091,1.179.181,2,.272,2.63h4.807Zm-5.8-10.431a4.628,4.628,0,0,1-2.721.726h-1.9v-5.533h1.179a8.054,8.054,0,0,1,2.9.363A2.229,2.229,0,0,1,446.808,366,2.694,2.694,0,0,1,445.81,368.263Zm5.8,10.431c-.091-.181-.091-.363-.181-.544v-2.268c0-2-.544-3.447-1.723-4.354a6.317,6.317,0,0,0-2.721-1.088,6.522,6.522,0,0,0,3.356-1.27,4.19,4.19,0,0,0,1.361-3.447,4.943,4.943,0,0,0-2.54-4.626,9.02,9.02,0,0,0-3.809-1h-9.342v19.138H441v-6.8h1.088l1.088.091c.725.091,1.36.181,1.723.272a2.04,2.04,0,0,1,1.361,1.361,9.06,9.06,0,0,1,.363,2.358c.091,1.179.181,2,.272,2.63h4.807Zm-5.8-10.431a4.628,4.628,0,0,1-2.721.726h-1.9v-5.533h1.179a8.054,8.054,0,0,1,2.9.363A2.229,2.229,0,0,1,446.808,366,2.694,2.694,0,0,1,445.81,368.263Zm5.8,10.431c-.091-.181-.091-.363-.181-.544v-2.268c0-2-.544-3.447-1.723-4.354a6.317,6.317,0,0,0-2.721-1.088,6.522,6.522,0,0,0,3.356-1.27,4.19,4.19,0,0,0,1.361-3.447,4.943,4.943,0,0,0-2.54-4.626,9.02,9.02,0,0,0-3.809-1h-9.342v19.138H441v-6.8h1.088l1.088.091c.725.091,1.36.181,1.723.272a2.04,2.04,0,0,1,1.361,1.361,9.06,9.06,0,0,1,.363,2.358c.091,1.179.181,2,.272,2.63h4.807Zm-5.8-10.431a4.628,4.628,0,0,1-2.721.726h-1.9v-5.533h1.179a8.054,8.054,0,0,1,2.9.363A2.229,2.229,0,0,1,446.808,366,2.694,2.694,0,0,1,445.81,368.263Zm5.8,10.431c-.091-.181-.091-.363-.181-.544v-2.268c0-2-.544-3.447-1.723-4.354a6.317,6.317,0,0,0-2.721-1.088,6.522,6.522,0,0,0,3.356-1.27,4.19,4.19,0,0,0,1.361-3.447,4.943,4.943,0,0,0-2.54-4.626,9.02,9.02,0,0,0-3.809-1h-9.342v19.138H441v-6.8h1.088l1.088.091c.725.091,1.36.181,1.723.272a2.04,2.04,0,0,1,1.361,1.361,9.06,9.06,0,0,1,.363,2.358c.091,1.179.181,2,.272,2.63h4.807Zm-5.8-10.431a4.628,4.628,0,0,1-2.721.726h-1.9v-5.533h1.179a8.054,8.054,0,0,1,2.9.363A2.229,2.229,0,0,1,446.808,366,2.694,2.694,0,0,1,445.81,368.263Zm5.8,10.431c-.091-.181-.091-.363-.181-.544v-2.268c0-2-.544-3.447-1.723-4.354a6.317,6.317,0,0,0-2.721-1.088,6.522,6.522,0,0,0,3.356-1.27,4.19,4.19,0,0,0,1.361-3.447,4.943,4.943,0,0,0-2.54-4.626,9.02,9.02,0,0,0-3.809-1h-9.342v19.138H441v-6.8h1.088l1.088.091c.725.091,1.36.181,1.723.272a2.04,2.04,0,0,1,1.361,1.361,9.06,9.06,0,0,1,.363,2.358c.091,1.179.181,2,.272,2.63h4.807Zm-5.8-10.431a4.628,4.628,0,0,1-2.721.726h-1.9v-5.533h1.179a8.054,8.054,0,0,1,2.9.363A2.229,2.229,0,0,1,446.808,366,2.694,2.694,0,0,1,445.81,368.263Z" transform="translate(-426.4 -352.3)" fill="#fff"/></g></g></svg>