<svg xmlns="http://www.w3.org/2000/svg" width="572.4" height="565.521" viewBox="0 0 572.4 565.521"><path d="M480.211,265.561h89.438c-4.128-63.294-28.9-121.085-67.422-167.868a429.484,429.484,0,0,1-59.166,20.639A347.624,347.624,0,0,1,480.211,265.561ZM299.96,423.8c39.9,1.376,79.806,5.5,116.957,15.136,22.015-42.655,34.4-92.19,35.775-144.476H299.96Zm71.55-364.63C350.871,35.775,326.1,15.136,299.96,0V112.829a622.613,622.613,0,0,0,103.2-12.384A326.4,326.4,0,0,0,371.51,59.166ZM401.781,463.7c-33.023-6.88-67.422-12.384-103.2-12.384V564.145c26.143-15.136,50.911-34.4,71.55-59.166C382.518,492.595,393.525,478.835,401.781,463.7ZM481.587,293.08c-1.376,55.039-15.136,105.949-35.775,152.732a429.49,429.49,0,0,1,59.166,20.639c39.9-46.783,64.67-107.325,67.422-173.371H481.587ZM392.149,524.242h0a405.753,405.753,0,0,1-34.4,34.4,282.293,282.293,0,0,0,125.213-70.174c-16.512-6.88-34.4-12.384-50.911-17.888C419.669,491.219,407.285,509.106,392.149,524.242Zm0-484.339h0c13.76,16.512,27.519,34.4,38.527,53.663,17.887-5.5,34.4-11.008,50.911-17.888A282.292,282.292,0,0,0,356.374,5.5C370.134,16.512,382.518,27.519,392.149,39.9Zm24.767,86.686A647.289,647.289,0,0,1,299.96,141.724V265.561H452.692C449.94,214.65,437.556,167.867,416.917,126.589Zm-217.4-67.422C188.507,71.55,177.5,85.31,169.243,100.445a622.612,622.612,0,0,0,103.2,12.384V0C244.921,15.136,220.154,34.4,199.515,59.166ZM118.333,265.561H271.065V141.724c-39.9-1.376-79.806-5.5-116.957-15.136C133.468,167.867,121.085,214.65,118.333,265.561Zm8.256-147.228A429.483,429.483,0,0,1,67.422,97.693C28.9,143.1,4.128,202.267,0,265.561H89.438C92.19,211.9,104.573,162.364,126.589,118.333ZM177.5,39.9A405.76,405.76,0,0,1,211.9,5.5C165.116,17.888,122.461,42.655,88.062,75.678c16.512,6.88,34.4,12.384,52.287,17.888A371.533,371.533,0,0,1,177.5,39.9ZM89.438,293.08H0c2.752,66.046,27.519,126.589,67.422,173.371a429.491,429.491,0,0,1,59.166-20.639A372.823,372.823,0,0,1,89.438,293.08ZM177.5,524.242c-13.76-16.512-27.519-34.4-38.527-53.663-17.888,5.5-34.4,11.008-50.911,17.888a282.292,282.292,0,0,0,125.213,70.174C200.891,549.009,188.507,536.626,177.5,524.242Zm-23.391-85.31c37.151-9.632,77.054-13.76,116.957-15.136V294.456H118.333C119.709,346.743,133.468,394.9,154.108,438.932Zm45.407,67.422c20.639,23.391,45.407,44.031,71.55,59.166V452.692a622.615,622.615,0,0,0-103.2,12.384C177.5,478.835,188.507,492.595,199.515,506.354Z" opacity="0.088"/></svg>