<?xml version="1.0" encoding="utf-8"?>
<!-- Generator: Adobe Illustrator 22.0.0, SVG Export Plug-In . SVG Version: 6.00 Build 0)  -->
<svg version="1.1" id="Layer_1" xmlns="http://www.w3.org/2000/svg" xmlns:xlink="http://www.w3.org/1999/xlink" x="0px" y="0px"
	 viewBox="0 0 333.3 27.4" style="enable-background:new 0 0 333.3 27.4;" xml:space="preserve">
<style type="text/css">
	.st0{fill:#FFFFFF;}
	.st1{enable-background:new    ;}
</style>
<g>
	<g id="Group_4236" transform="translate(1038.966 4329.226)">
		<path id="Path_33830" class="st0" d="M-1014.4-4310.1c0,0.1,0,0.1-0.1,0.2c0,0.2-0.1,0.3-0.1,0.4c-0.1,0.3-0.3,0.7-0.4,1
			c-0.3,0.5-0.6,1-0.9,1.5c-0.2,0.3-0.5,0.7-0.8,1c-0.4,0.4-0.8,0.8-1.2,1.2c-0.5,0.4-1,0.8-1.6,1.2c-0.6,0.4-1.3,0.7-2,1
			c-0.5,0.2-1.1,0.4-1.6,0.5c-0.7,0.2-1.4,0.3-2.1,0.3c-0.3,0-0.6,0-1,0c-0.5,0-1-0.1-1.5-0.1c-0.7-0.1-1.4-0.3-2.1-0.5
			c-0.6-0.2-1.1-0.4-1.6-0.7c-0.8-0.4-1.5-0.8-2.2-1.3c-0.3-0.2-0.6-0.5-0.9-0.8c-0.3-0.3-0.6-0.5-0.8-0.8c-0.3-0.3-0.6-0.6-0.8-1
			c-0.2-0.3-0.4-0.6-0.6-0.9c-0.2-0.4-0.5-0.8-0.7-1.2c-0.2-0.5-0.4-0.9-0.6-1.4c-0.2-0.7-0.4-1.3-0.6-2c-0.1-0.3-0.1-0.5-0.1-0.8
			c0-0.3-0.1-0.5-0.1-0.8c-0.1-0.6-0.1-1.2-0.1-1.9c0-0.2,0-0.5,0.1-0.7c0-0.1,0-0.2,0-0.3c0-0.3,0.1-0.5,0.1-0.8
			c0.1-0.4,0.2-1.1,0.3-1.5c0.2-0.6,0.3-1.1,0.5-1.6c0.3-0.7,0.6-1.3,1-1.9c0.2-0.4,0.4-0.7,0.7-1c0.2-0.3,0.5-0.7,0.7-0.9
			c0.1-0.2,0.3-0.3,0.4-0.5c0.2-0.2,0.5-0.4,0.7-0.7c0.3-0.3,0.7-0.6,1-0.8c0.4-0.3,0.7-0.5,1.1-0.7c0.2-0.1,0.4-0.2,0.6-0.3
			c0.7-0.4,1.5-0.7,2.2-0.9c0.6-0.2,1.1-0.3,1.7-0.4c0.4-0.1,0.7-0.1,1.1-0.1c0.3,0,0.5,0,0.8,0c1,0,2,0.2,2.9,0.4
			c0.7,0.2,1.5,0.5,2.2,0.8c0.9,0.5,1.8,1,2.6,1.7c0.9,0.7,1.7,1.5,2.3,2.4c0.4,0.6,0.7,1.2,1,1.8c0,0,0,0,0,0.1
			c-1.9-2.6-4.9-4.1-8.2-4.1c-5.7,0.1-10.3,4.8-10.2,10.5c0,4.8,3.3,9.1,8,10.2c0.6,0.2,1.3,0.3,2,0.3c1,0,2-0.1,2.9-0.4
			c0.3-0.1,0.5-0.2,0.8-0.3c0.2-0.1,0.5-0.2,0.7-0.3c0.8-0.4,1.6-0.9,2.3-1.5c0.2-0.2,0.4-0.4,0.6-0.6c0.5-0.5,0.9-1.1,1.3-1.8
			C-1014.6-4310-1014.5-4310.1-1014.4-4310.1C-1014.5-4310.2-1014.5-4310.2-1014.4-4310.1
			C-1014.4-4310.1-1014.4-4310.1-1014.4-4310.1z"/>
		<path id="Path_33831" class="st0" d="M-1023-4323.9c-4.6-0.3-8.6,3.2-8.9,7.8c-0.3,4.6,3.2,8.6,7.8,8.9c4.6,0.3,8.6-3.2,8.9-7.8
			c0-0.2,0-0.3,0-0.5C-1015-4320-1018.5-4323.8-1023-4323.9z M-1029.2-4314.2L-1029.2-4314.2c-0.2-0.5-0.3-1-0.3-1.5l0,0v0
			c0-0.3,0-0.6,0.1-0.9v0c0.1-0.4,0.2-0.7,0.4-1c0.6-1.4,2-2.2,3.5-2.3c2.3,0.1,4.1,2.1,4,4.5c-0.1,2.1-1.8,3.9-4,4
			C-1027.2-4311.5-1028.6-4312.6-1029.2-4314.2L-1029.2-4314.2z M-1025.5-4310.9c2.7-0.2,4.7-2.5,4.5-5.2c-0.2-2.4-2.1-4.4-4.5-4.5
			c-0.4,0-0.8,0.1-1.2,0.2c0.7-0.4,1.5-0.6,2.3-0.6c3,0.2,5.3,2.8,5.1,5.7c-0.2,2.7-2.3,4.9-5.1,5.1c-1.2,0-2.4-0.5-3.3-1.3
			C-1027-4311.1-1026.2-4310.9-1025.5-4310.9L-1025.5-4310.9z M-1023-4308.9c-0.6,0-1.2-0.1-1.8-0.3c0.2,0,0.3,0,0.5,0
			c3.6-0.2,6.3-3.3,6-6.9c-0.2-3.2-2.8-5.8-6-6c-0.1,0-0.2,0-0.3,0c0.5-0.2,1.1-0.2,1.7-0.2c3.7,0.2,6.5,3.4,6.3,7.1
			C-1016.9-4311.8-1019.6-4309.1-1023-4308.9L-1023-4308.9z"/>
	</g>
	<g id="Group_4237" transform="translate(1239.293 4330.033)">
		<path id="Path_33832" class="st0" d="M-1036.3-4326v5h6.5l0,0.2c-0.1,0.6-0.1,1.3,0,1.9l0,0.5h-6.5v10.4h7.2l0.5,2.9h-10.3v-23.8
			l10.3,0.1l-0.6,2.9L-1036.3-4326z"/>
		<path id="Path_33833" class="st0" d="M-1001.9-4309.5c0.5-0.8,0.8-1.5,1.2-2.4c-0.3-1.7-0.5-3.4-0.5-5.1c0-1.4,0.1-2.8,0.3-4.2
			c-1.7-4.5-6-7.6-10.9-7.7c-6.5,0-11.8,5.6-11.8,12.6c0,6.9,5.3,12.5,11.8,12.5c3.2,0,6.3-1.4,8.4-3.8c1.4,1.2,2.7,1.7,3.1,1.3
			C-999.9-4306.7-1001-4308.3-1001.9-4309.5z M-1004-4311.2c-0.8-0.5-1.3-0.3-1.6,0.1c-0.3,0.4-0.4,0.9,0.3,1.7
			c-1.7,1.8-4.1,2.9-6.5,2.9c-5.1,0-9.2-4.4-9.2-9.8s4.1-9.8,9.2-9.8c5.1,0,9.2,4.4,9.2,9.8
			C-1002.6-4314.5-1003.1-4312.8-1004-4311.2L-1004-4311.2z"/>
		<path id="Path_33834" class="st0" d="M-978-4328.9v15.7c-0.1,5.4-4.6,9.7-10,9.6c-5.2-0.1-9.5-4.3-9.6-9.6v-15.7h3.2v15.3
			c-0.1,3.7,2.7,6.7,6.4,6.8c3.7,0.1,6.7-2.7,6.8-6.4c0-0.2,0-0.3,0-0.5v-15.3H-978z"/>
		<rect id="Rectangle_222" x="-975.7" y="-4328.9" class="st0" width="3.2" height="25"/>
		<path id="Path_33835" class="st0" d="M-950.3-4319.3v15.4h-3.2v-15.3c0.1-3.6-2.7-6.6-6.3-6.9c-0.5-1-1-2-1.6-3
			c0.4-0.1,0.8-0.1,1.2-0.1c5.3,0,9.6,4.2,9.8,9.5C-950.3-4319.6-950.3-4319.5-950.3-4319.3z"/>
		<path id="Path_33836" class="st0" d="M-965.1-4327.6c-0.5,0.3-0.9,0.7-1.3,1v-2.5h-3.2v25h0v0.1h3.2v-15.3c0-2.2,1.1-4.3,2.9-5.6"
			/>
		<path id="Path_33837" class="st0" d="M-935.2-4329.1c-2.3,0-4.5,0.7-6.4,2c0.2,1.1,0.4,2.2,0.6,3.3c1.6-1.4,3.6-2.3,5.8-2.3
			c5.1,0.2,9,4.4,8.9,9.5c0.1,5.1-3.8,9.3-8.9,9.5c-2.1,0-4.2-0.8-5.7-2.2c-0.2,1.1-0.4,2.3-0.6,3.4c1.9,1.3,4.1,2,6.4,2
			c6.5,0,11.8-5.6,11.8-12.5C-923.4-4323.4-928.7-4329.1-935.2-4329.1z M-943-4321.1c-0.1-1.4-0.3-2.8-0.6-4.2
			c-2.2,2.4-3.4,5.5-3.4,8.8c0,3.2,1.2,6.4,3.4,8.8c0.3-1.4,0.5-2.9,0.6-4.3c-0.7-1.4-1.1-2.9-1.1-4.5
			C-944.1-4318.1-943.8-4319.7-943-4321.1L-943-4321.1z"/>
		<path id="Path_33838" class="st0" d="M-920.6-4315.8l1.9,2.9l-7.2,9.1h-4.2l0.7-0.9c3.1-1.7,5.3-4.6,6.3-8L-920.6-4315.8z"/>
		<path id="Path_33839" class="st0" d="M-907.8-4303.8h-3.9l-5.7-8.5l0,0l-3.6-5.4l0,0l-2.1-3.2c-0.8-2.5-2.2-4.7-4.3-6.3l-1.3-2
			h3.9l5.9,8.8l0.7,1.1l0.1,0.2l1.9,2.9l0,0L-907.8-4303.8z"/>
		<path id="Path_33840" class="st0" d="M-915.7-4316.8l-1.9-2.9l7.5-9.5h4.2L-915.7-4316.8z"/>
	</g>
	<g class="st1">
		<path class="st0" d="M42,7.1h5.9c1.5,0,2.8,0.3,3.9,0.9c1.1,0.6,2,1.4,2.7,2.5c0.6,1.1,1,2.3,1,3.7c0,1.4-0.3,2.6-1,3.7
			c-0.6,1.1-1.5,1.9-2.7,2.5c-1.1,0.6-2.5,0.9-3.9,0.9H42V7.1z M47.8,19.3c1.1,0,2.1-0.2,3-0.7s1.5-1.1,2-1.8s0.7-1.7,0.7-2.8
			c0-1-0.2-2-0.7-2.8s-1.1-1.4-2-1.8c-0.9-0.4-1.9-0.7-3-0.7H44v10.5H47.8z"/>
		<path class="st0" d="M67.9,16.4h-8.6c0.1,0.9,0.5,1.7,1.2,2.2s1.6,0.8,2.6,0.8c1.3,0,2.3-0.4,3.1-1.3l1.1,1.2
			c-0.5,0.6-1.1,1-1.8,1.3c-0.7,0.3-1.5,0.4-2.4,0.4c-1.1,0-2.1-0.2-3-0.7c-0.9-0.5-1.5-1.1-2-1.9c-0.5-0.8-0.7-1.8-0.7-2.8
			c0-1,0.2-2,0.7-2.8c0.5-0.8,1.1-1.5,1.9-1.9c0.8-0.5,1.7-0.7,2.7-0.7s1.9,0.2,2.7,0.7s1.4,1.1,1.9,1.9c0.4,0.8,0.7,1.8,0.7,2.8
			C68,16,68,16.2,67.9,16.4z M60.4,12.8c-0.6,0.6-1,1.3-1.1,2.2h6.8c-0.1-0.9-0.5-1.6-1.1-2.2c-0.6-0.6-1.4-0.8-2.3-0.8
			S61,12.3,60.4,12.8z"/>
		<path class="st0" d="M79.9,10.5l-4.6,10.6h-2l-4.6-10.6h2l3.6,8.5l3.7-8.5H79.9z"/>
		<path class="st0" d="M91.1,16.4h-8.6c0.1,0.9,0.5,1.7,1.2,2.2s1.6,0.8,2.6,0.8c1.3,0,2.3-0.4,3.1-1.3l1.1,1.2
			c-0.5,0.6-1.1,1-1.8,1.3c-0.7,0.3-1.5,0.4-2.4,0.4c-1.1,0-2.1-0.2-3-0.7c-0.9-0.5-1.5-1.1-2-1.9c-0.5-0.8-0.7-1.8-0.7-2.8
			c0-1,0.2-2,0.7-2.8c0.5-0.8,1.1-1.5,1.9-1.9c0.8-0.5,1.7-0.7,2.7-0.7s1.9,0.2,2.7,0.7s1.4,1.1,1.9,1.9c0.4,0.8,0.7,1.8,0.7,2.8
			C91.1,16,91.1,16.2,91.1,16.4z M83.6,12.8c-0.6,0.6-1,1.3-1.1,2.2h6.8c-0.1-0.9-0.5-1.6-1.1-2.2c-0.6-0.6-1.4-0.8-2.3-0.8
			S84.2,12.3,83.6,12.8z"/>
		<path class="st0" d="M93.9,6.2h1.9v14.8h-1.9V6.2z"/>
		<path class="st0" d="M101.3,20.5c-0.8-0.5-1.5-1.1-2-1.9c-0.5-0.8-0.7-1.8-0.7-2.8c0-1,0.2-2,0.7-2.8c0.5-0.8,1.1-1.5,2-1.9
			s1.8-0.7,2.8-0.7c1.1,0,2,0.2,2.8,0.7c0.8,0.5,1.5,1.1,2,1.9c0.5,0.8,0.7,1.8,0.7,2.8c0,1-0.2,2-0.7,2.8c-0.5,0.8-1.1,1.5-2,1.9
			c-0.8,0.5-1.8,0.7-2.8,0.7C103.1,21.2,102.1,21,101.3,20.5z M106,19c0.5-0.3,1-0.8,1.3-1.3c0.3-0.6,0.5-1.2,0.5-2
			c0-0.7-0.2-1.4-0.5-1.9s-0.7-1-1.3-1.3s-1.2-0.5-1.8-0.5s-1.3,0.2-1.8,0.5s-1,0.7-1.3,1.3s-0.5,1.2-0.5,1.9c0,0.7,0.2,1.4,0.5,2
			c0.3,0.6,0.7,1,1.3,1.3c0.5,0.3,1.2,0.5,1.8,0.5S105.4,19.3,106,19z"/>
		<path class="st0" d="M120.8,11c0.8,0.5,1.4,1.1,1.9,1.9s0.7,1.8,0.7,2.8c0,1.1-0.2,2-0.7,2.8s-1.1,1.5-1.9,1.9
			c-0.8,0.5-1.7,0.7-2.8,0.7c-0.8,0-1.5-0.1-2.1-0.4s-1.2-0.7-1.6-1.3v5.5h-1.9V10.5h1.8v1.7c0.4-0.6,1-1,1.6-1.3s1.4-0.5,2.2-0.5
			C119.1,10.4,120,10.6,120.8,11z M119.7,19c0.5-0.3,1-0.8,1.3-1.3c0.3-0.6,0.5-1.2,0.5-2c0-0.7-0.2-1.4-0.5-1.9s-0.7-1-1.3-1.3
			s-1.1-0.5-1.8-0.5c-0.7,0-1.3,0.2-1.8,0.5s-1,0.8-1.3,1.3c-0.3,0.6-0.5,1.2-0.5,1.9c0,0.7,0.2,1.4,0.5,2c0.3,0.6,0.7,1,1.3,1.3
			c0.5,0.3,1.2,0.5,1.8,0.5C118.6,19.5,119.2,19.3,119.7,19z"/>
		<path class="st0" d="M135.7,16.4h-8.6c0.1,0.9,0.5,1.7,1.2,2.2s1.6,0.8,2.6,0.8c1.3,0,2.3-0.4,3.1-1.3l1.1,1.2
			c-0.5,0.6-1.1,1-1.8,1.3c-0.7,0.3-1.5,0.4-2.4,0.4c-1.1,0-2.1-0.2-3-0.7c-0.9-0.5-1.5-1.1-2-1.9c-0.5-0.8-0.7-1.8-0.7-2.8
			c0-1,0.2-2,0.7-2.8c0.5-0.8,1.1-1.5,1.9-1.9c0.8-0.5,1.7-0.7,2.7-0.7s1.9,0.2,2.7,0.7s1.4,1.1,1.9,1.9c0.4,0.8,0.7,1.8,0.7,2.8
			C135.8,16,135.8,16.2,135.7,16.4z M128.2,12.8c-0.6,0.6-1,1.3-1.1,2.2h6.8c-0.1-0.9-0.5-1.6-1.1-2.2c-0.6-0.6-1.4-0.8-2.3-0.8
			S128.8,12.3,128.2,12.8z"/>
		<path class="st0" d="M148.5,6.2v14.8h-1.8v-1.7c-0.4,0.6-1,1-1.6,1.3s-1.4,0.5-2.2,0.5c-1,0-1.9-0.2-2.8-0.7s-1.4-1.1-1.9-1.9
			c-0.5-0.8-0.7-1.8-0.7-2.8c0-1.1,0.2-2,0.7-2.8c0.5-0.8,1.1-1.4,1.9-1.9s1.7-0.7,2.8-0.7c0.8,0,1.5,0.1,2.1,0.4
			c0.6,0.3,1.2,0.7,1.6,1.3V6.2H148.5z M144.9,19c0.5-0.3,1-0.8,1.3-1.3c0.3-0.6,0.5-1.2,0.5-2c0-0.7-0.2-1.4-0.5-1.9
			s-0.7-1-1.3-1.3s-1.2-0.5-1.8-0.5c-0.7,0-1.3,0.2-1.8,0.5c-0.5,0.3-1,0.7-1.3,1.3c-0.3,0.6-0.5,1.2-0.5,1.9c0,0.7,0.2,1.4,0.5,2
			c0.3,0.6,0.7,1,1.3,1.3c0.5,0.3,1.2,0.5,1.8,0.5C143.8,19.5,144.4,19.3,144.9,19z"/>
		<path class="st0" d="M166.2,11c0.8,0.5,1.4,1.1,1.9,1.9s0.7,1.8,0.7,2.8c0,1.1-0.2,2-0.7,2.8s-1.1,1.5-1.9,1.9
			c-0.8,0.5-1.7,0.7-2.8,0.7c-0.8,0-1.5-0.2-2.2-0.5s-1.2-0.8-1.6-1.3v1.7h-1.8V6.2h1.9v5.8c0.4-0.6,1-1,1.6-1.3
			c0.6-0.3,1.3-0.4,2.1-0.4C164.5,10.4,165.4,10.6,166.2,11z M165.1,19c0.5-0.3,1-0.8,1.3-1.3c0.3-0.6,0.5-1.2,0.5-2
			c0-0.7-0.2-1.4-0.5-1.9s-0.7-1-1.3-1.3s-1.1-0.5-1.8-0.5c-0.7,0-1.3,0.2-1.8,0.5c-0.5,0.3-1,0.7-1.3,1.3s-0.5,1.2-0.5,1.9
			c0,0.7,0.2,1.4,0.5,2c0.3,0.6,0.7,1,1.3,1.3c0.5,0.3,1.2,0.5,1.8,0.5C163.9,19.5,164.6,19.3,165.1,19z"/>
		<path class="st0" d="M180.6,10.5l-5.1,11.7c-0.5,1.1-1,1.8-1.6,2.3s-1.3,0.7-2.2,0.7c-0.5,0-1-0.1-1.5-0.2
			c-0.5-0.2-0.9-0.4-1.2-0.7l0.8-1.4c0.5,0.5,1.2,0.8,1.9,0.8c0.5,0,0.9-0.1,1.2-0.4c0.3-0.2,0.6-0.7,0.8-1.3l0.3-0.7l-4.7-10.6h2
			l3.7,8.5l3.7-8.5H180.6z"/>
	</g>
</g>
</svg>
