<svg xmlns="http://www.w3.org/2000/svg" width="39.933" height="38.74" viewBox="0 0 39.933 38.74"><g transform="translate(-1600.614 -3212.301)"><path d="M37.69,0H2.211A2.3,2.3,0,0,0,0,2.388v27.7a2.3,2.3,0,0,0,2.211,2.388H21.673a3.828,3.828,0,0,0,3.507-1.886l.284-.6,1.3-2.794a2.255,2.255,0,0,1,.979-1,3.4,3.4,0,0,1,1.643-.406h8.372a2.206,2.206,0,0,0,2.18-1.958V2.388A2.348,2.348,0,0,0,37.69,0Zm-32,29.846a.692.692,0,0,1-.663.716H3.854a.7.7,0,0,1-.663-.716v-1a.692.692,0,0,1,.663-.716H5.023a.7.7,0,0,1,.663.716Zm0-26.364a.692.692,0,0,1-.663.716H3.854a.7.7,0,0,1-.663-.716v-1a.692.692,0,0,1,.663-.716H5.023a.7.7,0,0,1,.663.716ZM10.2,29.846a.692.692,0,0,1-.663.716H8.372a.7.7,0,0,1-.663-.716v-1a.692.692,0,0,1,.663-.716H9.541a.7.7,0,0,1,.663.716Zm0-26.364a.692.692,0,0,1-.663.716H8.372a.7.7,0,0,1-.663-.716v-1a.692.692,0,0,1,.663-.716H9.541a.7.7,0,0,1,.663.716Zm4.328,26.364a.692.692,0,0,1-.663.716H12.7a.7.7,0,0,1-.663-.716v-1a.692.692,0,0,1,.663-.716h1.2a.7.7,0,0,1,.663.716v1Zm0-26.364a.692.692,0,0,1-.663.716H12.7a.7.7,0,0,1-.663-.716v-1a.692.692,0,0,1,.663-.716h1.2a.7.7,0,0,1,.663.716v1ZM19.05,29.846a.692.692,0,0,1-.663.716H17.218a.7.7,0,0,1-.663-.716v-1a.692.692,0,0,1,.663-.716h1.169a.7.7,0,0,1,.663.716Zm0-26.364a.692.692,0,0,1-.663.716H17.218a.7.7,0,0,1-.663-.716v-1a.692.692,0,0,1,.663-.716h1.169a.7.7,0,0,1,.663.716Zm4.36,26.364a.692.692,0,0,1-.663.716H21.578a.7.7,0,0,1-.663-.716v-1a.692.692,0,0,1,.663-.716h1.169a.7.7,0,0,1,.663.716Zm0-26.364a.692.692,0,0,1-.663.716H21.578a.7.7,0,0,1-.663-.716v-1a.692.692,0,0,1,.663-.716h1.169a.7.7,0,0,1,.663.716Zm4.518,0a.692.692,0,0,1-.663.716H26.1a.7.7,0,0,1-.663-.716v-1a.692.692,0,0,1,.663-.716h1.169a.7.7,0,0,1,.663.716Zm4.36,0a.692.692,0,0,1-.663.716H30.455a.7.7,0,0,1-.663-.716v-1a.692.692,0,0,1,.663-.716h1.169a.7.7,0,0,1,.663.716Zm4.518,0a.692.692,0,0,1-.663.716H34.973a.7.7,0,0,1-.663-.716v-1a.692.692,0,0,1,.663-.716h1.169a.7.7,0,0,1,.663.716Z" transform="translate(1640.547 3244.773) rotate(180)"/><path d="M116.4,19.846v3.333a.866.866,0,0,0,.773.913h0a.835.835,0,0,0,.773-.913h0a.3.3,0,0,1,.273-.32h.546a.3.3,0,0,1,.273.32v2.74a1.139,1.139,0,0,0,1.046,1.233h0a1.139,1.139,0,0,0,1.046-1.233l-.045-6.118Z" transform="translate(1515.316 3223.89)"/></g></svg>