<svg xmlns="http://www.w3.org/2000/svg" width="87" height="87" viewBox="0 0 87 87"><path d="M125.625,71.25A18.178,18.178,0,0,1,143.75,89.375v36.25a18.178,18.178,0,0,1-18.125,18.125H89.375A18.178,18.178,0,0,1,71.25,125.625V89.375A18.178,18.178,0,0,1,89.375,71.25h36.25m0-7.25H89.375A25.45,25.45,0,0,0,64,89.375v36.25A25.45,25.45,0,0,0,89.375,151h36.25A25.45,25.45,0,0,0,151,125.625V89.375A25.45,25.45,0,0,0,125.625,64Z" transform="translate(-64 -64)" fill="#fff"/><path d="M205.313,138.875a5.438,5.438,0,1,1,5.438-5.437A5.424,5.424,0,0,1,205.313,138.875ZM181.75,142.5a14.5,14.5,0,1,1-14.5,14.5,14.513,14.513,0,0,1,14.5-14.5m0-7.25A21.75,21.75,0,1,0,203.5,157,21.756,21.756,0,0,0,181.75,135.25Z" transform="translate(-138.25 -113.5)" fill="#fff"/><path d="M116.4,19.907v7.814a2.077,2.077,0,0,0,1.93,2.141h0a2,2,0,0,0,1.93-2.141h0a.732.732,0,0,1,.681-.749H122.3a.732.732,0,0,1,.681.749v6.422a2.733,2.733,0,0,0,2.611,2.89h0a2.733,2.733,0,0,0,2.611-2.89L128.091,19.8Z" transform="translate(-74.504 39.368)" fill="#fff"/></svg>