<svg xmlns="http://www.w3.org/2000/svg" width="494.275" height="733.923" viewBox="0 0 494.275 733.923"><path d="M423.349,723.852H247.892a23.537,23.537,0,1,0,0,47.074H423.349a23.537,23.537,0,1,0,0-47.074Zm0-70.611H247.892a23.537,23.537,0,1,0,0,47.074H423.349a23.746,23.746,0,0,0,23.537-23.537C444.746,663.94,436.187,653.242,423.349,653.242ZM335.621,818l77.03-27.816H260.73Zm2.14-733.923h-6.419c-128.383,0-243.928,104.846-243.928,233.229S196.539,518.44,207.238,559.094s0,59.912,29.956,68.471,94.148,6.419,94.148,6.419h6.419s66.331,2.14,94.148-6.419c29.956-8.559,19.258-29.956,29.956-68.471,10.7-40.655,119.824-113.405,119.824-241.788C581.688,186.783,466.143,84.077,337.76,84.077Z" transform="translate(-87.413 -84.077)" fill="#ffb100" opacity="0.127"/></svg>