<?xml version="1.0" encoding="utf-8"?>
<!-- Generator: Adobe Illustrator 22.0.0, SVG Export Plug-In . SVG Version: 6.00 Build 0)  -->
<svg version="1.1" id="Layer_1" xmlns="http://www.w3.org/2000/svg" xmlns:xlink="http://www.w3.org/1999/xlink" x="0px" y="0px"
	 viewBox="0 0 424.3 27.4" style="enable-background:new 0 0 424.3 27.4;" xml:space="preserve">
<style type="text/css">
	.st0{fill:#FFFFFF;}
	.st1{enable-background:new    ;}
</style>
<g>
	<g id="Group_4236" transform="translate(1038.966 4329.226)">
		<path id="Path_33830" class="st0" d="M-1014.4-4310.1c0,0.1,0,0.1-0.1,0.2c0,0.2-0.1,0.3-0.1,0.4c-0.1,0.3-0.3,0.7-0.4,1
			c-0.3,0.5-0.6,1-0.9,1.5c-0.2,0.3-0.5,0.7-0.8,1c-0.4,0.4-0.8,0.8-1.2,1.2c-0.5,0.4-1,0.8-1.6,1.2c-0.6,0.4-1.3,0.7-2,1
			c-0.5,0.2-1.1,0.4-1.6,0.5c-0.7,0.2-1.4,0.3-2.1,0.3c-0.3,0-0.6,0-1,0c-0.5,0-1-0.1-1.5-0.1c-0.7-0.1-1.4-0.3-2.1-0.5
			c-0.6-0.2-1.1-0.4-1.6-0.7c-0.8-0.4-1.5-0.8-2.2-1.3c-0.3-0.2-0.6-0.5-0.9-0.8c-0.3-0.3-0.6-0.5-0.8-0.8c-0.3-0.3-0.6-0.6-0.8-1
			c-0.2-0.3-0.4-0.6-0.6-0.9c-0.2-0.4-0.5-0.8-0.7-1.2c-0.2-0.5-0.4-0.9-0.6-1.4c-0.2-0.7-0.4-1.3-0.6-2c-0.1-0.3-0.1-0.5-0.1-0.8
			c0-0.3-0.1-0.5-0.1-0.8c-0.1-0.6-0.1-1.2-0.1-1.9c0-0.2,0-0.5,0.1-0.7c0-0.1,0-0.2,0-0.3c0-0.3,0.1-0.5,0.1-0.8
			c0.1-0.4,0.2-1.1,0.3-1.5c0.2-0.6,0.3-1.1,0.5-1.6c0.3-0.7,0.6-1.3,1-1.9c0.2-0.4,0.4-0.7,0.7-1c0.2-0.3,0.5-0.7,0.7-0.9
			c0.1-0.2,0.3-0.3,0.4-0.5c0.2-0.2,0.5-0.4,0.7-0.7c0.3-0.3,0.7-0.6,1-0.8c0.4-0.3,0.7-0.5,1.1-0.7c0.2-0.1,0.4-0.2,0.6-0.3
			c0.7-0.4,1.5-0.7,2.2-0.9c0.6-0.2,1.1-0.3,1.7-0.4c0.4-0.1,0.7-0.1,1.1-0.1c0.3,0,0.5,0,0.8,0c1,0,2,0.2,2.9,0.4
			c0.7,0.2,1.5,0.5,2.2,0.8c0.9,0.5,1.8,1,2.6,1.7c0.9,0.7,1.7,1.5,2.3,2.4c0.4,0.6,0.7,1.2,1,1.8c0,0,0,0,0,0.1
			c-1.9-2.6-4.9-4.1-8.2-4.1c-5.7,0.1-10.3,4.8-10.2,10.5c0,4.8,3.3,9.1,8,10.2c0.6,0.2,1.3,0.3,2,0.3c1,0,2-0.1,2.9-0.4
			c0.3-0.1,0.5-0.2,0.8-0.3c0.2-0.1,0.5-0.2,0.7-0.3c0.8-0.4,1.6-0.9,2.3-1.5c0.2-0.2,0.4-0.4,0.6-0.6c0.5-0.5,0.9-1.1,1.3-1.8
			C-1014.6-4310-1014.5-4310.1-1014.4-4310.1C-1014.5-4310.2-1014.5-4310.2-1014.4-4310.1
			C-1014.4-4310.1-1014.4-4310.1-1014.4-4310.1z"/>
		<path id="Path_33831" class="st0" d="M-1023-4323.9c-4.6-0.3-8.6,3.2-8.9,7.8c-0.3,4.6,3.2,8.6,7.8,8.9c4.6,0.3,8.6-3.2,8.9-7.8
			c0-0.2,0-0.3,0-0.5C-1015-4320-1018.5-4323.8-1023-4323.9z M-1029.2-4314.2L-1029.2-4314.2c-0.2-0.5-0.3-1-0.3-1.5l0,0v0
			c0-0.3,0-0.6,0.1-0.9v0c0.1-0.4,0.2-0.7,0.4-1c0.6-1.4,2-2.2,3.5-2.3c2.3,0.1,4.1,2.1,4,4.5c-0.1,2.1-1.8,3.9-4,4
			C-1027.2-4311.5-1028.6-4312.6-1029.2-4314.2L-1029.2-4314.2z M-1025.5-4310.9c2.7-0.2,4.7-2.5,4.5-5.2c-0.2-2.4-2.1-4.4-4.5-4.5
			c-0.4,0-0.8,0.1-1.2,0.2c0.7-0.4,1.5-0.6,2.3-0.6c3,0.2,5.3,2.8,5.1,5.7c-0.2,2.7-2.3,4.9-5.1,5.1c-1.2,0-2.4-0.5-3.3-1.3
			C-1027-4311.1-1026.2-4310.9-1025.5-4310.9L-1025.5-4310.9z M-1023-4308.9c-0.6,0-1.2-0.1-1.8-0.3c0.2,0,0.3,0,0.5,0
			c3.6-0.2,6.3-3.3,6-6.9c-0.2-3.2-2.8-5.8-6-6c-0.1,0-0.2,0-0.3,0c0.5-0.2,1.1-0.2,1.7-0.2c3.7,0.2,6.5,3.4,6.3,7.1
			C-1016.9-4311.8-1019.6-4309.1-1023-4308.9L-1023-4308.9z"/>
	</g>
	<g id="Group_4237" transform="translate(1330.293 4330.033)">
		<path id="Path_33832" class="st0" d="M-1036.3-4326v5h6.5l0,0.2c-0.1,0.6-0.1,1.3,0,1.9l0,0.5h-6.5v10.4h7.2l0.5,2.9h-10.3v-23.8
			l10.3,0.1l-0.6,2.9L-1036.3-4326z"/>
		<path id="Path_33833" class="st0" d="M-1001.9-4309.5c0.5-0.8,0.8-1.5,1.2-2.4c-0.3-1.7-0.5-3.4-0.5-5.1c0-1.4,0.1-2.8,0.3-4.2
			c-1.7-4.5-6-7.6-10.9-7.7c-6.5,0-11.8,5.6-11.8,12.6c0,6.9,5.3,12.5,11.8,12.5c3.2,0,6.3-1.4,8.4-3.8c1.4,1.2,2.7,1.7,3.1,1.3
			C-999.9-4306.7-1001-4308.3-1001.9-4309.5z M-1004-4311.2c-0.8-0.5-1.3-0.3-1.6,0.1c-0.3,0.4-0.4,0.9,0.3,1.7
			c-1.7,1.8-4.1,2.9-6.5,2.9c-5.1,0-9.2-4.4-9.2-9.8s4.1-9.8,9.2-9.8c5.1,0,9.2,4.4,9.2,9.8
			C-1002.6-4314.5-1003.1-4312.8-1004-4311.2L-1004-4311.2z"/>
		<path id="Path_33834" class="st0" d="M-978-4328.9v15.7c-0.1,5.4-4.6,9.7-10,9.6c-5.2-0.1-9.5-4.3-9.6-9.6v-15.7h3.2v15.3
			c-0.1,3.7,2.7,6.7,6.4,6.8c3.7,0.1,6.7-2.7,6.8-6.4c0-0.2,0-0.3,0-0.5v-15.3H-978z"/>
		<rect id="Rectangle_222" x="-975.7" y="-4328.9" class="st0" width="3.2" height="25"/>
		<path id="Path_33835" class="st0" d="M-950.3-4319.3v15.4h-3.2v-15.3c0.1-3.6-2.7-6.6-6.3-6.9c-0.5-1-1-2-1.6-3
			c0.4-0.1,0.8-0.1,1.2-0.1c5.3,0,9.6,4.2,9.8,9.5C-950.3-4319.6-950.3-4319.5-950.3-4319.3z"/>
		<path id="Path_33836" class="st0" d="M-965.1-4327.6c-0.5,0.3-0.9,0.7-1.3,1v-2.5h-3.2v25h0v0.1h3.2v-15.3c0-2.2,1.1-4.3,2.9-5.6"
			/>
		<path id="Path_33837" class="st0" d="M-935.2-4329.1c-2.3,0-4.5,0.7-6.4,2c0.2,1.1,0.4,2.2,0.6,3.3c1.6-1.4,3.6-2.3,5.8-2.3
			c5.1,0.2,9,4.4,8.9,9.5c0.1,5.1-3.8,9.3-8.9,9.5c-2.1,0-4.2-0.8-5.7-2.2c-0.2,1.1-0.4,2.3-0.6,3.4c1.9,1.3,4.1,2,6.4,2
			c6.5,0,11.8-5.6,11.8-12.5C-923.4-4323.4-928.7-4329.1-935.2-4329.1z M-943-4321.1c-0.1-1.4-0.3-2.8-0.6-4.2
			c-2.2,2.4-3.4,5.5-3.4,8.8c0,3.2,1.2,6.4,3.4,8.8c0.3-1.4,0.5-2.9,0.6-4.3c-0.7-1.4-1.1-2.9-1.1-4.5
			C-944.1-4318.1-943.8-4319.7-943-4321.1L-943-4321.1z"/>
		<path id="Path_33838" class="st0" d="M-920.6-4315.8l1.9,2.9l-7.2,9.1h-4.2l0.7-0.9c3.1-1.7,5.3-4.6,6.3-8L-920.6-4315.8z"/>
		<path id="Path_33839" class="st0" d="M-907.8-4303.8h-3.9l-5.7-8.5l0,0l-3.6-5.4l0,0l-2.1-3.2c-0.8-2.5-2.2-4.7-4.3-6.3l-1.3-2
			h3.9l5.9,8.8l0.7,1.1l0.1,0.2l1.9,2.9l0,0L-907.8-4303.8z"/>
		<path id="Path_33840" class="st0" d="M-915.7-4316.8l-1.9-2.9l7.5-9.5h4.2L-915.7-4316.8z"/>
	</g>
	<g class="st1">
		<path class="st0" d="M47.3,8.4c1,0.9,1.6,2.1,1.6,3.6c0,1.5-0.5,2.7-1.6,3.6c-1,0.9-2.5,1.3-4.3,1.3h-3.5v4.2h-2v-14h5.5
			C44.9,7.1,46.3,7.5,47.3,8.4z M45.9,14.3c0.7-0.5,1-1.3,1-2.3c0-1-0.3-1.8-1-2.3c-0.7-0.5-1.6-0.8-2.9-0.8h-3.4v6.3H43
			C44.3,15.1,45.2,14.8,45.9,14.3z"/>
		<path class="st0" d="M53.1,20.5c-0.8-0.5-1.5-1.1-2-1.9c-0.5-0.8-0.7-1.8-0.7-2.8c0-1,0.2-2,0.7-2.8c0.5-0.8,1.1-1.5,2-1.9
			s1.8-0.7,2.8-0.7c1.1,0,2,0.2,2.8,0.7s1.5,1.1,2,1.9c0.5,0.8,0.7,1.8,0.7,2.8c0,1-0.2,2-0.7,2.8c-0.5,0.8-1.1,1.5-2,1.9
			S57,21.2,56,21.2C54.9,21.2,54,21,53.1,20.5z M57.8,19c0.5-0.3,1-0.8,1.3-1.3c0.3-0.6,0.5-1.2,0.5-2c0-0.7-0.2-1.4-0.5-1.9
			s-0.7-1-1.3-1.3S56.7,12,56,12c-0.7,0-1.3,0.2-1.8,0.5s-1,0.7-1.3,1.3c-0.3,0.6-0.5,1.2-0.5,1.9c0,0.7,0.2,1.4,0.5,2
			c0.3,0.6,0.7,1,1.3,1.3c0.5,0.3,1.2,0.5,1.8,0.5C56.7,19.5,57.3,19.3,57.8,19z"/>
		<path class="st0" d="M71.6,16.4c0.4,0.4,0.6,0.9,0.6,1.5c0,0.6-0.2,1.2-0.6,1.7s-1,0.9-1.8,1.1c-0.8,0.3-1.6,0.4-2.5,0.4
			c-0.8,0-1.6-0.1-2.3-0.3c-0.8-0.2-1.4-0.5-2-0.9l0.6-1.5c0.5,0.3,1.1,0.6,1.7,0.8c0.7,0.2,1.3,0.3,2,0.3c0.9,0,1.6-0.2,2.2-0.5
			c0.5-0.3,0.8-0.7,0.8-1.3c0-0.5-0.2-0.9-0.7-1.1c-0.4-0.3-1-0.4-1.8-0.4h-1.9v-1.4h1.8c0.7,0,1.3-0.1,1.7-0.4
			c0.4-0.3,0.6-0.6,0.6-1c0-0.5-0.2-0.9-0.7-1.1s-1.1-0.4-2-0.4c-1.1,0-2.2,0.3-3.3,0.8l-0.5-1.5c1.3-0.7,2.6-1,4.1-1
			c0.9,0,1.6,0.1,2.3,0.4s1.2,0.6,1.6,1c0.4,0.4,0.6,0.9,0.6,1.5c0,0.5-0.2,1-0.5,1.4c-0.3,0.4-0.8,0.7-1.4,0.9
			C70.7,15.7,71.3,16,71.6,16.4z"/>
		<path class="st0" d="M83.6,11c0.8,0.5,1.5,1.1,1.9,1.9s0.7,1.8,0.7,2.8c0,1.1-0.2,2-0.7,2.8s-1.1,1.5-1.9,1.9s-1.7,0.7-2.8,0.7
			c-0.8,0-1.5-0.1-2.1-0.4c-0.6-0.3-1.2-0.7-1.6-1.3v5.5h-1.9V10.5h1.8v1.7c0.4-0.6,1-1,1.6-1.3s1.4-0.5,2.2-0.5
			C81.9,10.4,82.8,10.6,83.6,11z M82.6,19c0.5-0.3,1-0.8,1.3-1.3c0.3-0.6,0.5-1.2,0.5-2c0-0.7-0.2-1.4-0.5-1.9
			c-0.3-0.6-0.7-1-1.3-1.3S81.4,12,80.7,12c-0.7,0-1.3,0.2-1.8,0.5c-0.5,0.3-1,0.8-1.3,1.3c-0.3,0.6-0.5,1.2-0.5,1.9
			c0,0.7,0.2,1.4,0.5,2c0.3,0.6,0.7,1,1.3,1.3c0.5,0.3,1.2,0.5,1.8,0.5C81.4,19.5,82,19.3,82.6,19z"/>
		<path class="st0" d="M90.8,20.5c-0.8-0.5-1.5-1.1-2-1.9c-0.5-0.8-0.7-1.8-0.7-2.8c0-1,0.2-2,0.7-2.8c0.5-0.8,1.1-1.5,2-1.9
			s1.8-0.7,2.8-0.7c1.1,0,2,0.2,2.8,0.7c0.8,0.5,1.5,1.1,2,1.9c0.5,0.8,0.7,1.8,0.7,2.8c0,1-0.2,2-0.7,2.8c-0.5,0.8-1.1,1.5-2,1.9
			c-0.8,0.5-1.8,0.7-2.8,0.7C92.6,21.2,91.7,21,90.8,20.5z M95.5,19c0.5-0.3,1-0.8,1.3-1.3c0.3-0.6,0.5-1.2,0.5-2
			c0-0.7-0.2-1.4-0.5-1.9s-0.7-1-1.3-1.3S94.4,12,93.7,12s-1.3,0.2-1.8,0.5s-1,0.7-1.3,1.3s-0.5,1.2-0.5,1.9c0,0.7,0.2,1.4,0.5,2
			c0.3,0.6,0.7,1,1.3,1.3c0.5,0.3,1.2,0.5,1.8,0.5S95,19.3,95.5,19z"/>
		<path class="st0" d="M110.1,11.5c0.8,0.4,1.4,1,1.8,1.8c0.4,0.8,0.6,1.7,0.6,2.7c0,1-0.2,1.9-0.7,2.7c-0.5,0.8-1.1,1.4-1.9,1.8
			c-0.8,0.4-1.8,0.7-2.8,0.7c-1.8,0-3.2-0.6-4.2-1.9c-1-1.2-1.5-3-1.5-5.2c0-2.2,0.4-3.9,1.3-5.1c0.9-1.2,2.3-2,4.1-2.5l4.8-1.1
			l0.3,1.8l-4.5,1c-1.4,0.3-2.4,0.8-3.1,1.6c-0.7,0.7-1.1,1.8-1.2,3.2c0.5-0.7,1-1.2,1.8-1.6s1.5-0.6,2.4-0.6
			C108.5,10.8,109.4,11,110.1,11.5z M109,19.2c0.5-0.3,0.9-0.7,1.2-1.3c0.3-0.5,0.4-1.2,0.4-1.8c0-1.1-0.3-1.9-1-2.5
			c-0.6-0.6-1.5-1-2.5-1s-1.9,0.3-2.5,1c-0.6,0.6-1,1.5-1,2.5c0,0.7,0.1,1.3,0.5,1.8c0.3,0.5,0.7,1,1.2,1.3c0.5,0.3,1.1,0.5,1.8,0.5
			C107.8,19.6,108.4,19.5,109,19.2z"/>
		<path class="st0" d="M124.5,10.5v10.6h-1.9v-8.9H118l-0.1,2.4c-0.1,1.4-0.2,2.6-0.4,3.6c-0.2,1-0.5,1.7-0.9,2.3
			c-0.4,0.6-1,0.9-1.8,0.9c-0.3,0-0.7-0.1-1.2-0.2l0.1-1.6c0.2,0,0.3,0.1,0.5,0.1c0.5,0,0.9-0.2,1.2-0.7c0.3-0.5,0.4-1,0.5-1.7
			c0.1-0.6,0.2-1.6,0.2-2.7l0.2-3.9H124.5z"/>
		<path class="st0" d="M137.8,16.4h-8.6c0.1,0.9,0.5,1.7,1.2,2.2s1.6,0.8,2.6,0.8c1.3,0,2.3-0.4,3.1-1.3l1.1,1.2
			c-0.5,0.6-1.1,1-1.8,1.3c-0.7,0.3-1.5,0.4-2.4,0.4c-1.1,0-2.1-0.2-3-0.7c-0.9-0.5-1.5-1.1-2-1.9c-0.5-0.8-0.7-1.8-0.7-2.8
			c0-1,0.2-2,0.7-2.8c0.5-0.8,1.1-1.5,1.9-1.9c0.8-0.5,1.7-0.7,2.7-0.7c1,0,1.9,0.2,2.7,0.7s1.4,1.1,1.9,1.9
			c0.4,0.8,0.7,1.8,0.7,2.8C137.9,16,137.9,16.2,137.8,16.4z M130.3,12.8c-0.6,0.6-1,1.3-1.1,2.2h6.8c-0.1-0.9-0.5-1.6-1.1-2.2
			c-0.6-0.6-1.4-0.8-2.3-0.8S131,12.3,130.3,12.8z"/>
		<path class="st0" d="M141,10.5h1.9V15h6v-4.5h1.9v10.6h-1.9v-4.4h-6v4.4H141V10.5z"/>
		<path class="st0" d="M156.4,20.5c-0.8-0.5-1.5-1.1-2-1.9c-0.5-0.8-0.7-1.8-0.7-2.8c0-1,0.2-2,0.7-2.8c0.5-0.8,1.1-1.5,2-1.9
			s1.8-0.7,2.8-0.7c1.1,0,2,0.2,2.8,0.7c0.8,0.5,1.5,1.1,2,1.9c0.5,0.8,0.7,1.8,0.7,2.8c0,1-0.2,2-0.7,2.8c-0.5,0.8-1.1,1.5-2,1.9
			c-0.8,0.5-1.8,0.7-2.8,0.7C158.2,21.2,157.3,21,156.4,20.5z M161.1,19c0.5-0.3,1-0.8,1.3-1.3c0.3-0.6,0.5-1.2,0.5-2
			c0-0.7-0.2-1.4-0.5-1.9s-0.7-1-1.3-1.3s-1.2-0.5-1.8-0.5s-1.3,0.2-1.8,0.5s-1,0.7-1.3,1.3s-0.5,1.2-0.5,1.9c0,0.7,0.2,1.4,0.5,2
			c0.3,0.6,0.7,1,1.3,1.3c0.5,0.3,1.2,0.5,1.8,0.5S160.6,19.3,161.1,19z"/>
		<path class="st0" d="M177.3,16.6h-2.2v4.5h-1.9V10.5h1.9v4.5h2.2l3.4-4.5h2.1l-4,5.1l4.3,5.5h-2.3L177.3,16.6z"/>
		<path class="st0" d="M186.6,20.5c-0.8-0.5-1.5-1.1-2-1.9c-0.5-0.8-0.7-1.8-0.7-2.8c0-1,0.2-2,0.7-2.8c0.5-0.8,1.1-1.5,2-1.9
			s1.8-0.7,2.8-0.7c1.1,0,2,0.2,2.8,0.7c0.8,0.5,1.5,1.1,2,1.9c0.5,0.8,0.7,1.8,0.7,2.8c0,1-0.2,2-0.7,2.8c-0.5,0.8-1.1,1.5-2,1.9
			c-0.8,0.5-1.8,0.7-2.8,0.7C188.4,21.2,187.4,21,186.6,20.5z M191.3,19c0.5-0.3,1-0.8,1.3-1.3c0.3-0.6,0.5-1.2,0.5-2
			c0-0.7-0.2-1.4-0.5-1.9s-0.7-1-1.3-1.3s-1.2-0.5-1.8-0.5s-1.3,0.2-1.8,0.5s-1,0.7-1.3,1.3s-0.5,1.2-0.5,1.9c0,0.7,0.2,1.4,0.5,2
			c0.3,0.6,0.7,1,1.3,1.3c0.5,0.3,1.2,0.5,1.8,0.5S190.7,19.3,191.3,19z"/>
		<path class="st0" d="M210,10.5v10.6h-1.7v-7.7l-4,6.5h-0.8l-3.9-6.6v7.8h-1.8V10.5h2l4.2,7.2l4.3-7.2H210z"/>
		<path class="st0" d="M221.1,11.4c0.8,0.7,1.2,1.8,1.2,3.2v6.4h-1.8v-1.4c-0.3,0.5-0.8,0.9-1.4,1.1c-0.6,0.3-1.3,0.4-2.1,0.4
			c-1.2,0-2.1-0.3-2.8-0.9c-0.7-0.6-1.1-1.3-1.1-2.3s0.3-1.7,1-2.2c0.7-0.6,1.8-0.9,3.2-0.9h3v-0.4c0-0.8-0.2-1.5-0.7-1.9
			c-0.5-0.4-1.2-0.7-2.1-0.7c-0.6,0-1.2,0.1-1.8,0.3c-0.6,0.2-1.1,0.5-1.5,0.8l-0.8-1.4c0.5-0.4,1.2-0.8,2-1
			c0.8-0.2,1.6-0.4,2.4-0.4C219.2,10.4,220.3,10.7,221.1,11.4z M219.1,19.2c0.5-0.3,0.9-0.8,1.2-1.4v-1.5h-3c-1.6,0-2.4,0.5-2.4,1.6
			c0,0.5,0.2,1,0.6,1.3c0.4,0.3,1,0.5,1.7,0.5S218.6,19.5,219.1,19.2z"/>
		<path class="st0" d="M225.8,10.5h1.9V15h6v-4.5h1.9v10.6h-1.9v-4.4h-6v4.4h-1.9V10.5z"/>
		<path class="st0" d="M250.3,19.4v4.1h-1.8v-2.5h-8.9v2.5h-1.8v-4.1h0.6c0.7,0,1.1-0.5,1.4-1.4s0.4-2.2,0.5-3.9l0.2-3.6h8.2v8.9
			H250.3z M241.8,17.5c-0.2,0.9-0.5,1.5-0.9,1.9h5.9v-7.2h-4.6l-0.1,2C242,15.5,241.9,16.6,241.8,17.5z"/>
		<path class="st0" d="M254.6,20.5c-0.8-0.5-1.5-1.1-2-1.9c-0.5-0.8-0.7-1.8-0.7-2.8c0-1,0.2-2,0.7-2.8c0.5-0.8,1.1-1.5,2-1.9
			s1.8-0.7,2.8-0.7c1.1,0,2,0.2,2.8,0.7s1.5,1.1,2,1.9c0.5,0.8,0.7,1.8,0.7,2.8c0,1-0.2,2-0.7,2.8c-0.5,0.8-1.1,1.5-2,1.9
			s-1.8,0.7-2.8,0.7C256.4,21.2,255.5,21,254.6,20.5z M259.3,19c0.5-0.3,1-0.8,1.3-1.3c0.3-0.6,0.5-1.2,0.5-2c0-0.7-0.2-1.4-0.5-1.9
			s-0.7-1-1.3-1.3s-1.1-0.5-1.8-0.5c-0.7,0-1.3,0.2-1.8,0.5s-1,0.7-1.3,1.3c-0.3,0.6-0.5,1.2-0.5,1.9c0,0.7,0.2,1.4,0.5,2
			c0.3,0.6,0.7,1,1.3,1.3c0.5,0.3,1.2,0.5,1.8,0.5C258.2,19.5,258.8,19.3,259.3,19z"/>
		<path class="st0" d="M278,11.1c0.8,0.5,1.5,1.1,1.9,1.9s0.7,1.8,0.7,2.8c0,1-0.2,2-0.7,2.8c-0.5,0.8-1.1,1.5-1.9,1.9
			c-0.8,0.5-1.7,0.7-2.8,0.7c-0.9,0-1.8-0.2-2.5-0.6c-0.8-0.4-1.4-0.9-1.9-1.6c-0.5-0.7-0.8-1.5-0.9-2.4h-2.1v4.5h-1.9V10.5h1.9v4.3
			h2.2c0.1-0.9,0.4-1.7,0.9-2.3c0.5-0.7,1.1-1.2,1.9-1.6c0.8-0.4,1.6-0.5,2.5-0.5C276.3,10.4,277.2,10.6,278,11.1z M277,19
			c0.5-0.3,0.9-0.7,1.2-1.3s0.5-1.2,0.5-2c0-0.7-0.2-1.4-0.5-1.9s-0.7-1-1.2-1.3c-0.5-0.3-1.1-0.5-1.8-0.5c-0.7,0-1.2,0.2-1.8,0.5
			s-1,0.7-1.2,1.3s-0.5,1.2-0.5,1.9c0,0.7,0.2,1.4,0.5,2s0.7,1,1.2,1.3s1.1,0.5,1.8,0.5C275.9,19.5,276.5,19.4,277,19z"/>
	</g>
</g>
</svg>
